<mxfile host="app.diagrams.net" modified="2021-01-21T13:06:00.768Z" agent="5.0 (Windows NT 10.0; Win64; x64) AppleWebKit/537.36 (KHTML, like Gecko) Chrome/87.0.4280.141 Safari/537.36" etag="z1OApxlhvfj2Qudu2Lzs" version="14.1.8" type="github" pages="3">
  <diagram id="nulgUZcRM6IO7Wxl4WT8" name="Object Resources">
    <mxGraphModel dx="1415" dy="761" grid="1" gridSize="10" guides="1" tooltips="1" connect="1" arrows="1" fold="1" page="1" pageScale="1" pageWidth="850" pageHeight="1100" math="0" shadow="0">
      <root>
        <mxCell id="xkv93dfL5ZNA0a60ZzHi-0" />
        <mxCell id="xkv93dfL5ZNA0a60ZzHi-1" parent="xkv93dfL5ZNA0a60ZzHi-0" />
        <mxCell id="xkv93dfL5ZNA0a60ZzHi-7" value="Modal title" style="html=1;shadow=0;dashed=0;shape=mxgraph.bootstrap.rrect;rSize=5;html=1;strokeColor=#C8C8C8;fillColor=#ffffff;whiteSpace=wrap;verticalAlign=top;align=left;fontSize=18;spacing=15;spacingTop=-5;" parent="xkv93dfL5ZNA0a60ZzHi-1" vertex="1">
          <mxGeometry x="410" y="280" width="400" height="200" as="geometry" />
        </mxCell>
        <mxCell id="xkv93dfL5ZNA0a60ZzHi-8" value="" style="shape=line;strokeColor=#dddddd;resizeWidth=1;" parent="xkv93dfL5ZNA0a60ZzHi-7" vertex="1">
          <mxGeometry width="400" height="10" relative="1" as="geometry">
            <mxPoint y="50" as="offset" />
          </mxGeometry>
        </mxCell>
        <mxCell id="xkv93dfL5ZNA0a60ZzHi-9" value="" style="html=1;shadow=0;dashed=0;shape=mxgraph.bootstrap.x;strokeColor=#868686;strokeWidth=2;" parent="xkv93dfL5ZNA0a60ZzHi-7" vertex="1">
          <mxGeometry x="1" width="8" height="8" relative="1" as="geometry">
            <mxPoint x="-24" y="20" as="offset" />
          </mxGeometry>
        </mxCell>
        <mxCell id="xkv93dfL5ZNA0a60ZzHi-10" value="Modal body text goes here." style="strokeColor=none;fillColor=none;resizeWidth=1;align=left;verticalAlign=top;spacing=10;fontSize=13;" parent="xkv93dfL5ZNA0a60ZzHi-7" vertex="1">
          <mxGeometry width="400" height="40" relative="1" as="geometry">
            <mxPoint y="60" as="offset" />
          </mxGeometry>
        </mxCell>
        <mxCell id="xkv93dfL5ZNA0a60ZzHi-11" value="" style="shape=line;strokeColor=#dddddd;resizeWidth=1;" parent="xkv93dfL5ZNA0a60ZzHi-7" vertex="1">
          <mxGeometry width="400" height="10" relative="1" as="geometry">
            <mxPoint y="120" as="offset" />
          </mxGeometry>
        </mxCell>
        <mxCell id="xkv93dfL5ZNA0a60ZzHi-12" value="Save changes" style="html=1;shadow=0;dashed=0;shape=mxgraph.bootstrap.rrect;rSize=5;fillColor=#0085FC;strokeColor=none;fontColor=#FFFFFF;fontSize=14;" parent="xkv93dfL5ZNA0a60ZzHi-7" vertex="1">
          <mxGeometry x="1" y="1" width="110" height="40" relative="1" as="geometry">
            <mxPoint x="-130" y="-60" as="offset" />
          </mxGeometry>
        </mxCell>
        <mxCell id="xkv93dfL5ZNA0a60ZzHi-13" value="Close" style="html=1;shadow=0;dashed=0;shape=mxgraph.bootstrap.rrect;rSize=5;fillColor=#6C757D;strokeColor=none;fontColor=#FFFFFF;fontSize=14;" parent="xkv93dfL5ZNA0a60ZzHi-7" vertex="1">
          <mxGeometry x="1" y="1" width="70" height="40" relative="1" as="geometry">
            <mxPoint x="-220" y="-60" as="offset" />
          </mxGeometry>
        </mxCell>
        <mxCell id="eUFhsMvUKg0KT--hQEIe-0" value="" style="rounded=0;whiteSpace=wrap;html=1;align=left;labelBackgroundColor=#ffffff;shadow=0;strokeColor=#CCCCCC;" parent="xkv93dfL5ZNA0a60ZzHi-1" vertex="1">
          <mxGeometry x="65.5" y="258" width="243.5" height="138" as="geometry" />
        </mxCell>
        <mxCell id="eUFhsMvUKg0KT--hQEIe-1" value="Go To IMA" style="rounded=0;whiteSpace=wrap;html=1;fontColor=#FFFFFF;fillColor=#3333FF;strokeColor=#3333FF;" parent="xkv93dfL5ZNA0a60ZzHi-1" vertex="1">
          <mxGeometry x="191" y="356" width="104" height="30" as="geometry" />
        </mxCell>
        <mxCell id="eUFhsMvUKg0KT--hQEIe-2" value="" style="rounded=0;whiteSpace=wrap;html=1;shadow=0;sketch=0;strokeColor=#CCCCCC;fillColor=#808080;fontSize=10;fontColor=#808080;" parent="xkv93dfL5ZNA0a60ZzHi-1" vertex="1">
          <mxGeometry x="65" y="396" width="244" height="154" as="geometry" />
        </mxCell>
        <mxCell id="eUFhsMvUKg0KT--hQEIe-3" value="&lt;div style=&quot;text-align: left ; font-size: 16px&quot;&gt;&lt;font style=&quot;font-size: 16px&quot;&gt;IMA Process Assignment(s)&lt;/font&gt;&lt;/div&gt;&lt;br style=&quot;font-size: 16px&quot;&gt;&lt;span style=&quot;font-weight: normal&quot;&gt;There are 2 new Systems awaiting IMA Process Review.&lt;/span&gt;" style="text;html=1;strokeColor=none;fillColor=none;align=center;verticalAlign=middle;whiteSpace=wrap;rounded=0;shadow=0;sketch=0;fontSize=10;fontColor=#808080;fontStyle=1" parent="xkv93dfL5ZNA0a60ZzHi-1" vertex="1">
          <mxGeometry x="71" y="258" width="186" height="94" as="geometry" />
        </mxCell>
        <mxCell id="eUFhsMvUKg0KT--hQEIe-4" value="Assigned item information displayed here" style="text;html=1;strokeColor=none;fillColor=none;align=center;verticalAlign=middle;whiteSpace=wrap;rounded=0;shadow=0;sketch=0;fontSize=10;" parent="xkv93dfL5ZNA0a60ZzHi-1" vertex="1">
          <mxGeometry x="123" y="449" width="128" height="56" as="geometry" />
        </mxCell>
        <mxCell id="eUFhsMvUKg0KT--hQEIe-7" value="" style="html=1;shadow=0;dashed=0;shape=mxgraph.bootstrap.rrect;rSize=5;strokeColor=#DFDFDF;html=1;whiteSpace=wrap;fillColor=#FFFFFF;fontColor=#495057;" parent="xkv93dfL5ZNA0a60ZzHi-1" vertex="1">
          <mxGeometry x="60" y="590" width="300" height="300" as="geometry" />
        </mxCell>
        <mxCell id="eUFhsMvUKg0KT--hQEIe-8" value="&lt;font style=&quot;font-size: 16px&quot;&gt;Dataset Title #1&lt;/font&gt;&lt;br&gt;Guide: 123456/1258d25s8f22f&lt;br&gt;other data goes here" style="html=1;shadow=0;dashed=0;shape=mxgraph.bootstrap.topButton;rSize=5;perimeter=none;whiteSpace=wrap;resizeWidth=1;align=left;spacing=10;verticalAlign=top;fillColor=#0085FC;strokeColor=#0085FC;fontColor=#ffffff;" parent="eUFhsMvUKg0KT--hQEIe-7" vertex="1">
          <mxGeometry width="300" height="100" relative="1" as="geometry" />
        </mxCell>
        <mxCell id="eUFhsMvUKg0KT--hQEIe-10" value="&lt;font style=&quot;font-size: 16px&quot;&gt;Dataset Title #2&lt;/font&gt;&lt;br&gt;Guide: 185576/58d6s8dd222dgf8&lt;br&gt;Other data goes here&lt;br&gt;&lt;br&gt;&lt;br&gt;" style="strokeColor=inherit;fillColor=inherit;gradientColor=inherit;fontColor=inherit;html=1;shadow=0;dashed=0;perimeter=none;whiteSpace=wrap;resizeWidth=1;align=left;spacing=10;" parent="eUFhsMvUKg0KT--hQEIe-7" vertex="1">
          <mxGeometry width="300" height="100" relative="1" as="geometry">
            <mxPoint y="100" as="offset" />
          </mxGeometry>
        </mxCell>
        <mxCell id="eUFhsMvUKg0KT--hQEIe-12" value="&lt;font style=&quot;font-size: 16px&quot;&gt;Dataset Title #3&lt;/font&gt;&lt;br&gt;Guide: 123456/88d55s6c8fs6&lt;br&gt;other data goes here&lt;br&gt;&lt;br&gt;&lt;br&gt;" style="strokeColor=inherit;fillColor=inherit;gradientColor=inherit;fontColor=inherit;html=1;shadow=0;dashed=0;shape=mxgraph.bootstrap.bottomButton;rSize=5;perimeter=none;whiteSpace=wrap;resizeWidth=1;resizeHeight=0;align=left;spacing=10;" parent="eUFhsMvUKg0KT--hQEIe-7" vertex="1">
          <mxGeometry y="1" width="300" height="100" relative="1" as="geometry">
            <mxPoint y="-100" as="offset" />
          </mxGeometry>
        </mxCell>
        <mxCell id="GMRbsEK7jlrv7o2Da9Vz-0" value="" style="rounded=0;whiteSpace=wrap;html=1;fillColor=#3333FF;" parent="xkv93dfL5ZNA0a60ZzHi-1" vertex="1">
          <mxGeometry x="22" y="19" width="818" height="61" as="geometry" />
        </mxCell>
        <mxCell id="GMRbsEK7jlrv7o2Da9Vz-1" value="&lt;font style=&quot;font-size: 14px&quot;&gt;FEEDBACK&lt;/font&gt;" style="rounded=1;whiteSpace=wrap;html=1;fillColor=#FF8000;strokeColor=#FF8000;fontColor=#FFFFFF;" parent="xkv93dfL5ZNA0a60ZzHi-1" vertex="1">
          <mxGeometry x="714" y="29.5" width="120" height="40" as="geometry" />
        </mxCell>
        <mxCell id="GMRbsEK7jlrv7o2Da9Vz-2" value="" style="shape=image;html=1;verticalAlign=top;verticalLabelPosition=bottom;labelBackgroundColor=#ffffff;imageAspect=0;aspect=fixed;image=https://cdn3.iconfinder.com/data/icons/social-media-2125/78/bell-128.png;strokeColor=#FF8000;fillColor=#FF8000;fontColor=#FFFFFF;" parent="xkv93dfL5ZNA0a60ZzHi-1" vertex="1">
          <mxGeometry x="652" y="29.5" width="37" height="37" as="geometry" />
        </mxCell>
        <mxCell id="GMRbsEK7jlrv7o2Da9Vz-3" value="" style="whiteSpace=wrap;html=1;shape=mxgraph.basic.octagon2;align=center;verticalAlign=middle;dx=12;shadow=0;sketch=0;fontSize=20;fontColor=#808080;fillColor=#FF8000;strokeColor=#FF8000;" parent="xkv93dfL5ZNA0a60ZzHi-1" vertex="1">
          <mxGeometry x="32" y="25.5" width="56" height="42" as="geometry" />
        </mxCell>
        <mxCell id="GMRbsEK7jlrv7o2Da9Vz-4" value="Eva" style="text;html=1;strokeColor=none;fillColor=none;align=center;verticalAlign=middle;whiteSpace=wrap;rounded=0;shadow=0;sketch=0;fontSize=20;fontColor=#FFFFFF;fontStyle=1" parent="xkv93dfL5ZNA0a60ZzHi-1" vertex="1">
          <mxGeometry x="98" y="39" width="40" height="20" as="geometry" />
        </mxCell>
        <mxCell id="GMRbsEK7jlrv7o2Da9Vz-5" value="" style="html=1;verticalLabelPosition=bottom;align=center;labelBackgroundColor=#ffffff;verticalAlign=top;strokeWidth=2;shadow=0;dashed=0;shape=mxgraph.ios7.icons.user;sketch=0;fontSize=20;fontColor=#FFFFFF;fillColor=#FFFFFF;" parent="xkv93dfL5ZNA0a60ZzHi-1" vertex="1">
          <mxGeometry x="500" y="34.5" width="30" height="30" as="geometry" />
        </mxCell>
        <mxCell id="GMRbsEK7jlrv7o2Da9Vz-6" value="John Doe" style="text;html=1;strokeColor=none;fillColor=none;align=center;verticalAlign=middle;whiteSpace=wrap;rounded=0;shadow=0;sketch=0;fontSize=19;fontColor=#FFFFFF;" parent="xkv93dfL5ZNA0a60ZzHi-1" vertex="1">
          <mxGeometry x="543.5" y="39.5" width="94" height="20" as="geometry" />
        </mxCell>
        <mxCell id="GMRbsEK7jlrv7o2Da9Vz-13" value="" style="html=1;shadow=0;dashed=0;shape=mxgraph.bootstrap.rrect;rSize=5;strokeColor=#DEE2E6;html=1;whiteSpace=wrap;fillColor=#ffffff;fontColor=#0085FC;fontSize=14;" parent="xkv93dfL5ZNA0a60ZzHi-1" vertex="1">
          <mxGeometry x="590" y="640" width="220" height="30" as="geometry" />
        </mxCell>
        <mxCell id="GMRbsEK7jlrv7o2Da9Vz-14" value="Previous" style="strokeColor=inherit;fillColor=inherit;gradientColor=inherit;html=1;shadow=0;dashed=0;shape=mxgraph.bootstrap.leftButton;rSize=5;perimeter=none;whiteSpace=wrap;resizeHeight=1;fontColor=#6C767D;fontSize=14;" parent="GMRbsEK7jlrv7o2Da9Vz-13" vertex="1">
          <mxGeometry width="70" height="30" relative="1" as="geometry" />
        </mxCell>
        <mxCell id="GMRbsEK7jlrv7o2Da9Vz-15" value="1" style="strokeColor=inherit;fillColor=inherit;gradientColor=inherit;fontColor=inherit;html=1;shadow=0;dashed=0;perimeter=none;whiteSpace=wrap;resizeHeight=1;fontSize=14;" parent="GMRbsEK7jlrv7o2Da9Vz-13" vertex="1">
          <mxGeometry width="30" height="30" relative="1" as="geometry">
            <mxPoint x="70" as="offset" />
          </mxGeometry>
        </mxCell>
        <mxCell id="GMRbsEK7jlrv7o2Da9Vz-16" value="2" style="html=1;shadow=0;dashed=0;perimeter=none;whiteSpace=wrap;resizeHeight=1;fillColor=#0085FC;strokeColor=none;fontColor=#ffffff;fontSize=14;" parent="GMRbsEK7jlrv7o2Da9Vz-13" vertex="1">
          <mxGeometry width="30" height="30" relative="1" as="geometry">
            <mxPoint x="100" as="offset" />
          </mxGeometry>
        </mxCell>
        <mxCell id="GMRbsEK7jlrv7o2Da9Vz-17" value="3" style="strokeColor=inherit;fillColor=inherit;gradientColor=inherit;fontColor=inherit;html=1;shadow=0;dashed=0;perimeter=none;whiteSpace=wrap;resizeHeight=1;fontSize=14;" parent="GMRbsEK7jlrv7o2Da9Vz-13" vertex="1">
          <mxGeometry width="30" height="30" relative="1" as="geometry">
            <mxPoint x="130" as="offset" />
          </mxGeometry>
        </mxCell>
        <mxCell id="GMRbsEK7jlrv7o2Da9Vz-18" value="Next" style="strokeColor=inherit;fillColor=inherit;gradientColor=inherit;fontColor=inherit;html=1;shadow=0;dashed=0;shape=mxgraph.bootstrap.rightButton;rSize=5;perimeter=none;whiteSpace=wrap;resizeHeight=1;fontSize=14;" parent="GMRbsEK7jlrv7o2Da9Vz-13" vertex="1">
          <mxGeometry x="1" width="60" height="30" relative="1" as="geometry">
            <mxPoint x="-60" as="offset" />
          </mxGeometry>
        </mxCell>
        <mxCell id="GMRbsEK7jlrv7o2Da9Vz-19" value="" style="html=1;shadow=0;dashed=0;shape=mxgraph.bootstrap.rrect;rSize=5;fillColor=#f6f6f6;whiteSpace=wrap;" parent="xkv93dfL5ZNA0a60ZzHi-1" vertex="1">
          <mxGeometry x="390" y="780" width="430" height="20" as="geometry" />
        </mxCell>
        <mxCell id="GMRbsEK7jlrv7o2Da9Vz-20" value="" style="html=1;shadow=0;dashed=0;shape=mxgraph.bootstrap.leftButtonStriped;fillColor=#55BFE0;fontColor=#FFFFFF;whiteSpace=wrap;" parent="GMRbsEK7jlrv7o2Da9Vz-19" vertex="1">
          <mxGeometry width="268.75" height="20" as="geometry" />
        </mxCell>
        <mxCell id="AXpmR5Ptf7vZE80HdJZA-2" value="1" style="shape=ellipse;fontSize=12;strokeColor=none;fillColor=#4285F4;fontColor=#ffffff;align=center;verticalAlign=middle;" parent="xkv93dfL5ZNA0a60ZzHi-1" vertex="1">
          <mxGeometry x="70" y="930" width="24" height="24" as="geometry" />
        </mxCell>
        <mxCell id="AXpmR5Ptf7vZE80HdJZA-3" value="Ad unit details" style="shape=rect;fontColor=#4d4d4dlfontSize=13;strokeColor=none;fillColor=none;" parent="xkv93dfL5ZNA0a60ZzHi-1" vertex="1">
          <mxGeometry x="32" y="960" width="100" height="20" as="geometry" />
        </mxCell>
        <mxCell id="AXpmR5Ptf7vZE80HdJZA-4" value="" style="shape=line;strokeColor=#b3b3b3;" parent="xkv93dfL5ZNA0a60ZzHi-1" vertex="1">
          <mxGeometry x="102" y="937" width="110" height="10" as="geometry" />
        </mxCell>
        <mxCell id="AXpmR5Ptf7vZE80HdJZA-5" value="2" style="shape=ellipse;fontSize=12;strokeColor=none;fillColor=#9e9e9e;fontColor=#ffffff;align=center;verticalAlign=middle;" parent="xkv93dfL5ZNA0a60ZzHi-1" vertex="1">
          <mxGeometry x="222" y="930" width="24" height="24" as="geometry" />
        </mxCell>
        <mxCell id="AXpmR5Ptf7vZE80HdJZA-6" value="Ad sizes" style="shape=rect;fontColor=#4d4d4dlfontSize=13;strokeColor=none;fillColor=none;" parent="xkv93dfL5ZNA0a60ZzHi-1" vertex="1">
          <mxGeometry x="184" y="960" width="100" height="20" as="geometry" />
        </mxCell>
        <mxCell id="AXpmR5Ptf7vZE80HdJZA-7" value="" style="shape=line;strokeColor=#b3b3b3;" parent="xkv93dfL5ZNA0a60ZzHi-1" vertex="1">
          <mxGeometry x="254" y="937" width="110" height="10" as="geometry" />
        </mxCell>
        <mxCell id="AXpmR5Ptf7vZE80HdJZA-8" value="3" style="shape=ellipse;fontSize=12;strokeColor=none;fillColor=#9e9e9e;fontColor=#ffffff;" parent="xkv93dfL5ZNA0a60ZzHi-1" vertex="1">
          <mxGeometry x="374" y="930" width="24" height="24" as="geometry" />
        </mxCell>
        <mxCell id="AXpmR5Ptf7vZE80HdJZA-9" value="Create an ad" style="shape=rect;fontColor=#4d4d4dlfontSize=13;strokeColor=none;fillColor=none;align=center;verticalAlign=middle;" parent="xkv93dfL5ZNA0a60ZzHi-1" vertex="1">
          <mxGeometry x="336" y="960" width="100" height="20" as="geometry" />
        </mxCell>
        <mxCell id="AXpmR5Ptf7vZE80HdJZA-10" value="" style="shape=rect;fillColor=#ffffff;strokeColor=#eeeeee;shadow=1;" parent="xkv93dfL5ZNA0a60ZzHi-1" vertex="1">
          <mxGeometry x="560" y="880" width="280" height="328" as="geometry" />
        </mxCell>
        <mxCell id="AXpmR5Ptf7vZE80HdJZA-11" value="Title goes here" style="text;fontSize=19;fontColor=#000000;align=left;spacing=16;verticalAlign=middle;fontStyle=1;resizeWidth=1;" parent="AXpmR5Ptf7vZE80HdJZA-10" vertex="1">
          <mxGeometry width="280" height="68" relative="1" as="geometry" />
        </mxCell>
        <mxCell id="AXpmR5Ptf7vZE80HdJZA-12" value="Single line text goes here" style="text;fontSize=15;fontColor=#000000;align=left;spacing=16;fillColor=#e0e0e0;verticalAlign=middle;resizeWidth=1;" parent="AXpmR5Ptf7vZE80HdJZA-10" vertex="1">
          <mxGeometry width="280" height="50" relative="1" as="geometry">
            <mxPoint y="68" as="offset" />
          </mxGeometry>
        </mxCell>
        <mxCell id="AXpmR5Ptf7vZE80HdJZA-13" value="Two line wrapped text goes here making it wrap to next line" style="text;fontSize=15;fontColor=#000000;align=left;spacing=16;verticalAlign=middle;whiteSpace=wrap;resizeWidth=1;" parent="AXpmR5Ptf7vZE80HdJZA-10" vertex="1">
          <mxGeometry width="280" height="70" relative="1" as="geometry">
            <mxPoint y="118" as="offset" />
          </mxGeometry>
        </mxCell>
        <mxCell id="AXpmR5Ptf7vZE80HdJZA-14" value="Single line text goes here" style="text;fontSize=15;fontColor=#000000;align=left;spacing=16;verticalAlign=middle;resizeWidth=1;" parent="AXpmR5Ptf7vZE80HdJZA-10" vertex="1">
          <mxGeometry width="280" height="50" relative="1" as="geometry">
            <mxPoint y="188" as="offset" />
          </mxGeometry>
        </mxCell>
        <mxCell id="AXpmR5Ptf7vZE80HdJZA-15" value="Three line wrapped text goes here making it wrap to next line and continues longer to be here" style="text;fontSize=15;fontColor=#000000;align=left;spacing=16;verticalAlign=middle;whiteSpace=wrap;resizeWidth=1;" parent="AXpmR5Ptf7vZE80HdJZA-10" vertex="1">
          <mxGeometry width="280" height="90" relative="1" as="geometry">
            <mxPoint y="238" as="offset" />
          </mxGeometry>
        </mxCell>
        <mxCell id="AXpmR5Ptf7vZE80HdJZA-16" value="Chip text here" style="shape=rect;arcSize=50;strokeColor=none;fillColor=#eeeeee;rounded=1;spacingLeft=24;fontSize=13;align=left;" parent="xkv93dfL5ZNA0a60ZzHi-1" vertex="1">
          <mxGeometry x="42" y="1020" width="148" height="32" as="geometry" />
        </mxCell>
        <mxCell id="AXpmR5Ptf7vZE80HdJZA-18" value="" style="shape=ellipse;strokeColor=none;fillColor=#A5A5A5;aspect=fixed;" parent="AXpmR5Ptf7vZE80HdJZA-16" vertex="1">
          <mxGeometry x="1" y="0.5" width="16" height="16" relative="1" as="geometry">
            <mxPoint x="-24" y="-8" as="offset" />
          </mxGeometry>
        </mxCell>
        <mxCell id="AXpmR5Ptf7vZE80HdJZA-19" value="" style="dashed=0;shape=mxgraph.gmdl.x;strokeColor=#ffffff;strokeWidth=2;" parent="AXpmR5Ptf7vZE80HdJZA-18" vertex="1">
          <mxGeometry x="5" y="5" width="6" height="6" as="geometry" />
        </mxCell>
        <mxCell id="5jCBTZgDd5pSJJfWpDrM-0" value="" style="group" parent="xkv93dfL5ZNA0a60ZzHi-1" connectable="0" vertex="1">
          <mxGeometry x="440" y="223" width="346" height="35" as="geometry" />
        </mxCell>
        <mxCell id="AXpmR5Ptf7vZE80HdJZA-0" value="Hint text" style="text;fontColor=#808080;fontSize=16;verticalAlign=middle;strokeColor=none;fillColor=none;" parent="5jCBTZgDd5pSJJfWpDrM-0" vertex="1">
          <mxGeometry width="346" height="30" as="geometry" />
        </mxCell>
        <mxCell id="AXpmR5Ptf7vZE80HdJZA-1" value="" style="dashed=0;shape=line;strokeWidth=1;noLabel=1;strokeColor=#cccccc;opacity=50;" parent="5jCBTZgDd5pSJJfWpDrM-0" vertex="1">
          <mxGeometry y="25" width="346" height="10" as="geometry" />
        </mxCell>
        <mxCell id="XB1SntbMcaMM9CkIJR_m-0" value="" style="html=1;shadow=0;dashed=0;shape=mxgraph.bootstrap.rrect;rSize=5;strokeColor=#CED4DA;html=1;whiteSpace=wrap;fillColor=#FFFFFF;fontColor=#7D868C;align=left;spacing=15;spacingLeft=40;fontSize=14;" parent="xkv93dfL5ZNA0a60ZzHi-1" vertex="1">
          <mxGeometry x="530" y="520" width="230.00000000000006" height="30" as="geometry" />
        </mxCell>
        <mxCell id="hCrV3XMsrdQ1lhvqrHGt-57" value="" style="group" parent="xkv93dfL5ZNA0a60ZzHi-1" vertex="1" connectable="0">
          <mxGeometry x="30" y="1130" width="236" height="638" as="geometry" />
        </mxCell>
        <mxCell id="hCrV3XMsrdQ1lhvqrHGt-28" value="1" style="shape=ellipse;strokeColor=none;fillColor=#4285F4;fontColor=#ffffff;" parent="hCrV3XMsrdQ1lhvqrHGt-57" vertex="1">
          <mxGeometry width="24" height="24" as="geometry" />
        </mxCell>
        <mxCell id="hCrV3XMsrdQ1lhvqrHGt-29" value="Dataset Details" style="shape=rect;strokeColor=none;fillColor=none;align=left;fontStyle=1;" parent="hCrV3XMsrdQ1lhvqrHGt-57" vertex="1">
          <mxGeometry x="36" width="200" height="24" as="geometry" />
        </mxCell>
        <mxCell id="hCrV3XMsrdQ1lhvqrHGt-30" value="" style="shape=line;direction=north;strokeColor=#b3b3b3;" parent="hCrV3XMsrdQ1lhvqrHGt-57" vertex="1">
          <mxGeometry x="7" y="30" width="10" height="296" as="geometry" />
        </mxCell>
        <mxCell id="hCrV3XMsrdQ1lhvqrHGt-31" value="Next" style="shape=rect;strokeColor=none;fillColor=#4285f4;fontColor=#ffffff;rounded=1;" parent="hCrV3XMsrdQ1lhvqrHGt-57" vertex="1">
          <mxGeometry x="36" y="276" width="102" height="36" as="geometry" />
        </mxCell>
        <mxCell id="hCrV3XMsrdQ1lhvqrHGt-32" value="2" style="shape=ellipse;strokeColor=none;fillColor=#9e9e9e;fontColor=#ffffff;" parent="hCrV3XMsrdQ1lhvqrHGt-57" vertex="1">
          <mxGeometry y="332" width="24" height="24" as="geometry" />
        </mxCell>
        <mxCell id="hCrV3XMsrdQ1lhvqrHGt-33" value="Dataset Classification Details" style="shape=rect;strokeColor=none;fillColor=none;align=left;fontColor=#aaaaaa;" parent="hCrV3XMsrdQ1lhvqrHGt-57" vertex="1">
          <mxGeometry x="36" y="332" width="200" height="24" as="geometry" />
        </mxCell>
        <mxCell id="hCrV3XMsrdQ1lhvqrHGt-34" value="3" style="shape=ellipse;strokeColor=none;fillColor=#9e9e9e;fontColor=#ffffff;" parent="hCrV3XMsrdQ1lhvqrHGt-57" vertex="1">
          <mxGeometry y="398" width="24" height="24" as="geometry" />
        </mxCell>
        <mxCell id="hCrV3XMsrdQ1lhvqrHGt-35" value="Dataset Location" style="shape=rect;strokeColor=none;fillColor=none;align=left;fontColor=#aaaaaa;" parent="hCrV3XMsrdQ1lhvqrHGt-57" vertex="1">
          <mxGeometry x="36" y="398" width="200" height="24" as="geometry" />
        </mxCell>
        <mxCell id="hCrV3XMsrdQ1lhvqrHGt-36" value="" style="shape=line;direction=north;strokeColor=#b3b3b3;" parent="hCrV3XMsrdQ1lhvqrHGt-57" vertex="1">
          <mxGeometry x="7" y="366" width="10" height="25" as="geometry" />
        </mxCell>
        <mxCell id="hCrV3XMsrdQ1lhvqrHGt-39" value="Cancel" style="html=1;shadow=0;dashed=0;shape=mxgraph.bootstrap.rrect;rSize=5;fillColor=#6C757D;strokeColor=none;fontColor=#FFFFFF;fontSize=14;" parent="hCrV3XMsrdQ1lhvqrHGt-57" vertex="1">
          <mxGeometry x="146.00402733964256" y="276" width="70" height="36" as="geometry" />
        </mxCell>
        <mxCell id="hCrV3XMsrdQ1lhvqrHGt-47" value="4" style="shape=ellipse;strokeColor=none;fillColor=#9e9e9e;fontColor=#ffffff;" parent="hCrV3XMsrdQ1lhvqrHGt-57" vertex="1">
          <mxGeometry y="474" width="24" height="24" as="geometry" />
        </mxCell>
        <mxCell id="hCrV3XMsrdQ1lhvqrHGt-48" value="" style="shape=line;direction=north;strokeColor=#b3b3b3;" parent="hCrV3XMsrdQ1lhvqrHGt-57" vertex="1">
          <mxGeometry x="7" y="436" width="10" height="25" as="geometry" />
        </mxCell>
        <mxCell id="hCrV3XMsrdQ1lhvqrHGt-49" value="5" style="shape=ellipse;strokeColor=none;fillColor=#9e9e9e;fontColor=#ffffff;" parent="hCrV3XMsrdQ1lhvqrHGt-57" vertex="1">
          <mxGeometry y="544" width="24" height="24" as="geometry" />
        </mxCell>
        <mxCell id="hCrV3XMsrdQ1lhvqrHGt-50" value="" style="shape=line;direction=north;strokeColor=#b3b3b3;" parent="hCrV3XMsrdQ1lhvqrHGt-57" vertex="1">
          <mxGeometry x="7" y="506" width="10" height="25" as="geometry" />
        </mxCell>
        <mxCell id="hCrV3XMsrdQ1lhvqrHGt-51" value="6" style="shape=ellipse;strokeColor=none;fillColor=#9e9e9e;fontColor=#ffffff;" parent="hCrV3XMsrdQ1lhvqrHGt-57" vertex="1">
          <mxGeometry y="614" width="24" height="24" as="geometry" />
        </mxCell>
        <mxCell id="hCrV3XMsrdQ1lhvqrHGt-52" value="" style="shape=line;direction=north;strokeColor=#b3b3b3;" parent="hCrV3XMsrdQ1lhvqrHGt-57" vertex="1">
          <mxGeometry x="7" y="576" width="10" height="25" as="geometry" />
        </mxCell>
        <mxCell id="hCrV3XMsrdQ1lhvqrHGt-53" value="PII" style="shape=rect;strokeColor=none;fillColor=none;align=left;fontColor=#aaaaaa;" parent="hCrV3XMsrdQ1lhvqrHGt-57" vertex="1">
          <mxGeometry x="36" y="474" width="200" height="24" as="geometry" />
        </mxCell>
        <mxCell id="hCrV3XMsrdQ1lhvqrHGt-54" value="Record Schedule" style="shape=rect;strokeColor=none;fillColor=none;align=left;fontColor=#aaaaaa;" parent="hCrV3XMsrdQ1lhvqrHGt-57" vertex="1">
          <mxGeometry x="36" y="544" width="200" height="24" as="geometry" />
        </mxCell>
        <mxCell id="hCrV3XMsrdQ1lhvqrHGt-55" value="Notes" style="shape=rect;strokeColor=none;fillColor=none;align=left;fontColor=#aaaaaa;" parent="hCrV3XMsrdQ1lhvqrHGt-57" vertex="1">
          <mxGeometry x="36" y="614" width="200" height="24" as="geometry" />
        </mxCell>
        <mxCell id="2PX1hrpuTWqkZqvQyhOm-13" value="" style="group" parent="xkv93dfL5ZNA0a60ZzHi-1" vertex="1" connectable="0">
          <mxGeometry x="370" y="1290" width="440.33" height="55" as="geometry" />
        </mxCell>
        <mxCell id="2PX1hrpuTWqkZqvQyhOm-14" value="&lt;font color=&quot;#000000&quot; style=&quot;font-size: 11px;&quot;&gt;Originating Org:&lt;/font&gt;" style="text;html=1;strokeColor=none;fillColor=none;align=left;verticalAlign=middle;whiteSpace=wrap;rounded=0;shadow=0;sketch=0;fontSize=11;fontColor=#0645AD;" parent="2PX1hrpuTWqkZqvQyhOm-13" vertex="1">
          <mxGeometry width="80.33" height="20" as="geometry" />
        </mxCell>
        <mxCell id="2PX1hrpuTWqkZqvQyhOm-15" value="Level 4" style="rounded=1;fillColor=#F1F2F4;strokeColor=none;html=1;fontColor=#596780;align=left;fontSize=12;spacingLeft=10;shadow=0;sketch=0;" parent="2PX1hrpuTWqkZqvQyhOm-13" vertex="1">
          <mxGeometry x="270" y="25" width="80" height="30" as="geometry" />
        </mxCell>
        <mxCell id="2PX1hrpuTWqkZqvQyhOm-16" value="" style="shape=triangle;direction=south;fillColor=#596780;strokeColor=none;html=1" parent="2PX1hrpuTWqkZqvQyhOm-15" vertex="1">
          <mxGeometry x="1" y="0.5" width="12" height="6" relative="1" as="geometry">
            <mxPoint x="-20" y="-3" as="offset" />
          </mxGeometry>
        </mxCell>
        <mxCell id="2PX1hrpuTWqkZqvQyhOm-17" value="&lt;font color=&quot;#000000&quot;&gt;PPP/QQQ/RRR/ZZZ/AAA&lt;/font&gt;" style="text;html=1;strokeColor=none;fillColor=none;align=left;verticalAlign=middle;whiteSpace=wrap;rounded=0;shadow=0;sketch=0;fontSize=10;fontColor=#0645AD;" parent="2PX1hrpuTWqkZqvQyhOm-13" vertex="1">
          <mxGeometry x="90" width="80.33" height="20" as="geometry" />
        </mxCell>
        <mxCell id="2PX1hrpuTWqkZqvQyhOm-18" value="Level 5" style="rounded=1;fillColor=#F1F2F4;strokeColor=none;html=1;fontColor=#596780;align=left;fontSize=12;spacingLeft=10;shadow=0;sketch=0;" parent="2PX1hrpuTWqkZqvQyhOm-13" vertex="1">
          <mxGeometry x="360.33" y="25" width="80" height="30" as="geometry" />
        </mxCell>
        <mxCell id="2PX1hrpuTWqkZqvQyhOm-19" value="" style="shape=triangle;direction=south;fillColor=#596780;strokeColor=none;html=1" parent="2PX1hrpuTWqkZqvQyhOm-18" vertex="1">
          <mxGeometry x="1" y="0.5" width="12" height="6" relative="1" as="geometry">
            <mxPoint x="-20" y="-3" as="offset" />
          </mxGeometry>
        </mxCell>
        <mxCell id="2PX1hrpuTWqkZqvQyhOm-20" value="Level 1" style="rounded=1;fillColor=#F1F2F4;strokeColor=none;html=1;fontColor=#596780;align=left;fontSize=12;spacingLeft=10;shadow=0;sketch=0;" parent="2PX1hrpuTWqkZqvQyhOm-13" vertex="1">
          <mxGeometry y="25" width="80" height="30" as="geometry" />
        </mxCell>
        <mxCell id="2PX1hrpuTWqkZqvQyhOm-21" value="" style="shape=triangle;direction=south;fillColor=#596780;strokeColor=none;html=1" parent="2PX1hrpuTWqkZqvQyhOm-20" vertex="1">
          <mxGeometry x="1" y="0.5" width="12" height="6" relative="1" as="geometry">
            <mxPoint x="-20" y="-3" as="offset" />
          </mxGeometry>
        </mxCell>
        <mxCell id="2PX1hrpuTWqkZqvQyhOm-22" value="Level 2" style="rounded=1;fillColor=#F1F2F4;strokeColor=none;html=1;fontColor=#596780;align=left;fontSize=12;spacingLeft=10;shadow=0;sketch=0;" parent="2PX1hrpuTWqkZqvQyhOm-13" vertex="1">
          <mxGeometry x="90" y="25" width="80" height="30" as="geometry" />
        </mxCell>
        <mxCell id="2PX1hrpuTWqkZqvQyhOm-23" value="" style="shape=triangle;direction=south;fillColor=#596780;strokeColor=none;html=1" parent="2PX1hrpuTWqkZqvQyhOm-22" vertex="1">
          <mxGeometry x="1" y="0.5" width="12" height="6" relative="1" as="geometry">
            <mxPoint x="-20" y="-3" as="offset" />
          </mxGeometry>
        </mxCell>
        <mxCell id="2PX1hrpuTWqkZqvQyhOm-24" value="Level 3" style="rounded=1;fillColor=#F1F2F4;strokeColor=none;html=1;fontColor=#596780;align=left;fontSize=12;spacingLeft=10;shadow=0;sketch=0;" parent="2PX1hrpuTWqkZqvQyhOm-13" vertex="1">
          <mxGeometry x="180" y="25" width="80" height="30" as="geometry" />
        </mxCell>
        <mxCell id="2PX1hrpuTWqkZqvQyhOm-25" value="" style="shape=triangle;direction=south;fillColor=#596780;strokeColor=none;html=1" parent="2PX1hrpuTWqkZqvQyhOm-24" vertex="1">
          <mxGeometry x="1" y="0.5" width="12" height="6" relative="1" as="geometry">
            <mxPoint x="-20" y="-3" as="offset" />
          </mxGeometry>
        </mxCell>
        <mxCell id="PjoGtc6Fw8YFjYWqu3ur-3" value="" style="group" parent="xkv93dfL5ZNA0a60ZzHi-1" connectable="0" vertex="1">
          <mxGeometry x="370" y="1370" width="346" height="55" as="geometry" />
        </mxCell>
        <mxCell id="PjoGtc6Fw8YFjYWqu3ur-0" value="Label text" style="text;fontColor=#1F9BFD;fontSize=12;verticalAlign=middle;strokeColor=none;fillColor=none;" parent="PjoGtc6Fw8YFjYWqu3ur-3" vertex="1">
          <mxGeometry width="346" height="30" as="geometry" />
        </mxCell>
        <mxCell id="PjoGtc6Fw8YFjYWqu3ur-1" value="Input text" style="text;fontSize=16;verticalAlign=middle;strokeColor=none;fillColor=none;" parent="PjoGtc6Fw8YFjYWqu3ur-3" vertex="1">
          <mxGeometry y="20" width="346" height="30" as="geometry" />
        </mxCell>
        <mxCell id="PjoGtc6Fw8YFjYWqu3ur-2" value="" style="dashed=0;shape=line;strokeWidth=2;noLabel=1;strokeColor=#1F9BFD;" parent="PjoGtc6Fw8YFjYWqu3ur-3" vertex="1">
          <mxGeometry y="45" width="346" height="10" as="geometry" />
        </mxCell>
        <mxCell id="LsmkeChisaqdX0jZGm3e-0" value="" style="shape=ellipse;dashed=0;strokeColor=none;shadow=1;fontSize=13;align=center;verticalAlign=top;labelPosition=center;verticalLabelPosition=bottom;html=1;aspect=fixed;rounded=1;sketch=0;fillColor=#F8F9FA;" parent="xkv93dfL5ZNA0a60ZzHi-1" vertex="1">
          <mxGeometry x="380" y="1480" width="30" height="30" as="geometry" />
        </mxCell>
        <mxCell id="LsmkeChisaqdX0jZGm3e-1" value="" style="dashed=0;html=1;shape=mxgraph.gmdl.cloud;strokeColor=none;fillColor=#737373;shadow=0;" parent="LsmkeChisaqdX0jZGm3e-0" vertex="1">
          <mxGeometry x="8.571428571428571" y="10.714285714285714" width="12.857142857142858" height="8.571428571428571" as="geometry" />
        </mxCell>
        <mxCell id="LsmkeChisaqdX0jZGm3e-2" value="" style="shape=flexArrow;endArrow=classic;html=1;width=1.627906976744186;endWidth=1.4940886059503704;endSize=0.670391061452514;fillColor=#FFFFFF;strokeColor=none;" parent="LsmkeChisaqdX0jZGm3e-0" edge="1">
          <mxGeometry width="50" height="50" relative="1" as="geometry">
            <mxPoint x="14.940000000000055" y="12" as="sourcePoint" />
            <mxPoint x="14.940000000000055" y="18" as="targetPoint" />
          </mxGeometry>
        </mxCell>
        <mxCell id="4wY3HowodGtWrObB14q6-0" value="" style="group" parent="xkv93dfL5ZNA0a60ZzHi-1" connectable="0" vertex="1">
          <mxGeometry x="145" y="140" width="555" height="60" as="geometry" />
        </mxCell>
        <mxCell id="pSqkXLJ9_N4VDg3yCQ0M-0" value="" style="html=1;shadow=0;dashed=0;fillColor=#F8F9FA;strokeColor=none;fontSize=16;fontColor=#181819;align=left;spacing=15;" parent="4wY3HowodGtWrObB14q6-0" vertex="1">
          <mxGeometry width="555" height="60" as="geometry" />
        </mxCell>
        <mxCell id="pSqkXLJ9_N4VDg3yCQ0M-1" value="Search" style="html=1;shadow=0;dashed=0;shape=mxgraph.bootstrap.rrect;rSize=5;fontSize=14;fontColor=#6C767D;strokeColor=#CED4DA;fillColor=#ffffff;align=left;spacing=10;" parent="pSqkXLJ9_N4VDg3yCQ0M-0" vertex="1">
          <mxGeometry width="470" height="40" relative="1" as="geometry">
            <mxPoint x="10" y="10" as="offset" />
          </mxGeometry>
        </mxCell>
        <mxCell id="s2X8znYwR4Jzq7JiZqey-3" value="" style="ellipse;whiteSpace=wrap;html=1;fillColor=#FFFFFF;" parent="pSqkXLJ9_N4VDg3yCQ0M-0" vertex="1">
          <mxGeometry x="425.67961165048536" y="22" width="10.776699029126211" height="10" as="geometry" />
        </mxCell>
        <mxCell id="s2X8znYwR4Jzq7JiZqey-4" value="" style="endArrow=none;html=1;" parent="pSqkXLJ9_N4VDg3yCQ0M-0" edge="1">
          <mxGeometry width="50" height="50" relative="1" as="geometry">
            <mxPoint x="436.4563106796116" y="32" as="sourcePoint" />
            <mxPoint x="436.4563106796116" y="32" as="targetPoint" />
            <Array as="points">
              <mxPoint x="447.23300970873777" y="40" />
            </Array>
          </mxGeometry>
        </mxCell>
        <mxCell id="s2X8znYwR4Jzq7JiZqey-6" value="" style="triangle;whiteSpace=wrap;html=1;rotation=90;fillColor=#000000;" parent="pSqkXLJ9_N4VDg3yCQ0M-0" vertex="1">
          <mxGeometry x="458.00970873786395" y="25" width="10.776699029126211" height="10" as="geometry" />
        </mxCell>
        <mxCell id="pSqkXLJ9_N4VDg3yCQ0M-3" value="" style="shape=ellipse;dashed=0;strokeColor=none;shadow=1;fontSize=13;align=center;verticalAlign=top;labelPosition=center;verticalLabelPosition=bottom;html=1;aspect=fixed;" parent="4wY3HowodGtWrObB14q6-0" vertex="1">
          <mxGeometry x="492.5" y="10" width="40" height="40" as="geometry" />
        </mxCell>
        <mxCell id="pSqkXLJ9_N4VDg3yCQ0M-4" value="" style="dashed=0;html=1;shape=mxgraph.gmdl.plus;strokeColor=#737373;strokeWidth=2;shadow=0;" parent="pSqkXLJ9_N4VDg3yCQ0M-3" vertex="1">
          <mxGeometry x="12" y="12" width="16" height="16" as="geometry" />
        </mxCell>
        <mxCell id="LsmkeChisaqdX0jZGm3e-3" value="" style="shape=ellipse;dashed=0;strokeColor=none;shadow=1;fontSize=13;align=center;verticalAlign=top;labelPosition=center;verticalLabelPosition=bottom;html=1;aspect=fixed;rounded=1;sketch=0;fillColor=#F8F9FA;" parent="xkv93dfL5ZNA0a60ZzHi-1" vertex="1">
          <mxGeometry x="470" y="1520" width="30" height="30" as="geometry" />
        </mxCell>
        <mxCell id="LsmkeChisaqdX0jZGm3e-4" value="" style="dashed=0;html=1;shape=mxgraph.gmdl.cloud;strokeColor=none;fillColor=#737373;shadow=0;" parent="LsmkeChisaqdX0jZGm3e-3" vertex="1">
          <mxGeometry x="8.571428571428571" y="10.714285714285714" width="12.857142857142858" height="8.571428571428571" as="geometry" />
        </mxCell>
        <mxCell id="LsmkeChisaqdX0jZGm3e-5" value="" style="shape=flexArrow;endArrow=classic;html=1;width=1.627906976744186;endWidth=1.4940886059503704;endSize=0.670391061452514;strokeColor=none;fillColor=#ffffff;" parent="LsmkeChisaqdX0jZGm3e-3" edge="1">
          <mxGeometry width="50" height="50" relative="1" as="geometry">
            <mxPoint x="14.939999999999827" y="18" as="sourcePoint" />
            <mxPoint x="14.939999999999827" y="12" as="targetPoint" />
          </mxGeometry>
        </mxCell>
        <mxCell id="h2KlU3Mq0JFBnVk52u2B-9" value="" style="group" parent="xkv93dfL5ZNA0a60ZzHi-1" connectable="0" vertex="1">
          <mxGeometry x="360" y="1560" width="280" height="328" as="geometry" />
        </mxCell>
        <mxCell id="h2KlU3Mq0JFBnVk52u2B-0" value="" style="shape=rect;fillColor=#ffffff;strokeColor=#eeeeee;shadow=1;container=0;" parent="h2KlU3Mq0JFBnVk52u2B-9" vertex="1">
          <mxGeometry width="280" height="328" as="geometry" />
        </mxCell>
        <mxCell id="h2KlU3Mq0JFBnVk52u2B-1" value="Title goes here" style="text;fontSize=19;fontColor=#000000;align=left;spacing=16;verticalAlign=middle;fontStyle=1;resizeWidth=1;" parent="h2KlU3Mq0JFBnVk52u2B-9" vertex="1">
          <mxGeometry width="280" height="50" as="geometry" />
        </mxCell>
        <mxCell id="h2KlU3Mq0JFBnVk52u2B-6" value="" style="shape=triangle;direction=north;fillColor=#596780;strokeColor=none;html=1;" parent="h2KlU3Mq0JFBnVk52u2B-9" vertex="1">
          <mxGeometry x="250" y="22" width="18" height="9" as="geometry" />
        </mxCell>
        <mxCell id="h2KlU3Mq0JFBnVk52u2B-7" value="" style="line;strokeWidth=1;fillColor=none;align=left;verticalAlign=middle;spacingTop=-1;spacingLeft=3;spacingRight=3;rotatable=0;labelPosition=right;points=[];portConstraint=eastwest;labelBackgroundColor=none;sketch=0;fontSize=16;strokeColor=#E6E6E6;" parent="h2KlU3Mq0JFBnVk52u2B-9" vertex="1">
          <mxGeometry x="1" y="42" width="279" height="8" as="geometry" />
        </mxCell>
        <mxCell id="h2KlU3Mq0JFBnVk52u2B-8" value="Expandable Panel conten" style="text;html=1;strokeColor=none;fillColor=none;align=center;verticalAlign=middle;whiteSpace=wrap;rounded=0;labelBackgroundColor=none;sketch=0;fontSize=16;" parent="h2KlU3Mq0JFBnVk52u2B-9" vertex="1">
          <mxGeometry x="8" y="60" width="215" height="20" as="geometry" />
        </mxCell>
        <mxCell id="EqVPE0Dl84wnntA0E7xP-0" value="" style="group" parent="xkv93dfL5ZNA0a60ZzHi-1" vertex="1" connectable="0">
          <mxGeometry x="425" y="1520" width="30" height="30" as="geometry" />
        </mxCell>
        <mxCell id="EqVPE0Dl84wnntA0E7xP-1" value="" style="shape=ellipse;dashed=0;strokeColor=none;shadow=1;fontSize=13;align=center;verticalAlign=top;labelPosition=center;verticalLabelPosition=bottom;html=1;aspect=fixed;rounded=1;sketch=0;fillColor=#F8F9FA;" parent="EqVPE0Dl84wnntA0E7xP-0" vertex="1">
          <mxGeometry width="30" height="30" as="geometry" />
        </mxCell>
        <mxCell id="EqVPE0Dl84wnntA0E7xP-2" value="" style="dashed=0;aspect=fixed;verticalLabelPosition=bottom;verticalAlign=top;align=center;shape=mxgraph.gmdl.reply;strokeColor=none;fillColor=#737373;shadow=0;labelBackgroundColor=#00FF00;fontSize=14;fontColor=#00FF00;direction=west;flipV=1;" parent="EqVPE0Dl84wnntA0E7xP-0" vertex="1">
          <mxGeometry x="7" y="7.800000000000011" width="16" height="14.4" as="geometry" />
        </mxCell>
        <mxCell id="RFJ4KLtVArKrq3MvSFmw-10" value="" style="group" parent="xkv93dfL5ZNA0a60ZzHi-1" connectable="0" vertex="1">
          <mxGeometry x="88" y="1940" width="232" height="120" as="geometry" />
        </mxCell>
        <mxCell id="RFJ4KLtVArKrq3MvSFmw-0" value="Line item selected" style="dashed=0;shape=rect;fillColor=#ffffff;strokeColor=none;verticalLabelPosition=middle;align=left;verticalAlign=middle;fontSize=15;spacingLeft=72;" parent="RFJ4KLtVArKrq3MvSFmw-10" vertex="1">
          <mxGeometry width="232" height="30" as="geometry" />
        </mxCell>
        <mxCell id="RFJ4KLtVArKrq3MvSFmw-1" value="" style="dashed=0;shape=mxgraph.gmdl.checkbox;strokeColor=none;fillColor=#089953;strokeWidth=2;" parent="RFJ4KLtVArKrq3MvSFmw-0" vertex="1">
          <mxGeometry y="0.5" width="18" height="18" relative="1" as="geometry">
            <mxPoint x="16" y="-9" as="offset" />
          </mxGeometry>
        </mxCell>
        <mxCell id="RFJ4KLtVArKrq3MvSFmw-3" value="Line item unselected" style="dashed=0;shape=rect;fillColor=#ffffff;strokeColor=none;verticalLabelPosition=middle;align=left;verticalAlign=middle;fontSize=15;spacingLeft=72;" parent="RFJ4KLtVArKrq3MvSFmw-10" vertex="1">
          <mxGeometry y="30" width="232" height="30" as="geometry" />
        </mxCell>
        <mxCell id="RFJ4KLtVArKrq3MvSFmw-4" value="" style="dashed=0;shape=mxgraph.gmdl.checkbox;strokeColor=#666666;fillColor=none;strokeWidth=2;" parent="RFJ4KLtVArKrq3MvSFmw-3" vertex="1">
          <mxGeometry y="0.5" width="18" height="18" relative="1" as="geometry">
            <mxPoint x="16" y="-9" as="offset" />
          </mxGeometry>
        </mxCell>
        <mxCell id="RFJ4KLtVArKrq3MvSFmw-6" value="Line item unselected" style="dashed=0;shape=rect;fillColor=#ffffff;strokeColor=none;verticalLabelPosition=middle;align=left;verticalAlign=middle;fontSize=15;spacingLeft=72;" parent="RFJ4KLtVArKrq3MvSFmw-10" vertex="1">
          <mxGeometry y="60" width="232" height="30" as="geometry" />
        </mxCell>
        <mxCell id="RFJ4KLtVArKrq3MvSFmw-7" value="" style="dashed=0;shape=mxgraph.gmdl.checkbox;strokeColor=#666666;fillColor=none;strokeWidth=2;" parent="RFJ4KLtVArKrq3MvSFmw-6" vertex="1">
          <mxGeometry y="0.5" width="18" height="18" relative="1" as="geometry">
            <mxPoint x="16" y="-9" as="offset" />
          </mxGeometry>
        </mxCell>
        <mxCell id="RFJ4KLtVArKrq3MvSFmw-8" value="Line item unselected" style="dashed=0;shape=rect;fillColor=#ffffff;strokeColor=none;verticalLabelPosition=middle;align=left;verticalAlign=middle;fontSize=15;spacingLeft=72;" parent="RFJ4KLtVArKrq3MvSFmw-10" vertex="1">
          <mxGeometry y="90" width="232" height="30" as="geometry" />
        </mxCell>
        <mxCell id="RFJ4KLtVArKrq3MvSFmw-9" value="" style="dashed=0;shape=mxgraph.gmdl.checkbox;strokeColor=#666666;fillColor=none;strokeWidth=2;" parent="RFJ4KLtVArKrq3MvSFmw-8" vertex="1">
          <mxGeometry y="0.5" width="18" height="18" relative="1" as="geometry">
            <mxPoint x="16" y="-9" as="offset" />
          </mxGeometry>
        </mxCell>
      </root>
    </mxGraphModel>
  </diagram>
  <diagram id="wk0b3mhe-Ob9a0cl-FzW" name="PageFlow">
    <mxGraphModel dx="1662" dy="762" grid="1" gridSize="10" guides="1" tooltips="1" connect="1" arrows="1" fold="1" page="1" pageScale="1" pageWidth="1100" pageHeight="850" math="0" shadow="0">
      <root>
        <mxCell id="PJeUOQCIqOAqOTLe1t8q-0" />
        <mxCell id="PJeUOQCIqOAqOTLe1t8q-1" parent="PJeUOQCIqOAqOTLe1t8q-0" />
        <mxCell id="PJeUOQCIqOAqOTLe1t8q-2" value="Dashboard&lt;br&gt;page" style="rounded=1;whiteSpace=wrap;html=1;" parent="PJeUOQCIqOAqOTLe1t8q-1" vertex="1">
          <mxGeometry x="560" y="110" width="120" height="60" as="geometry" />
        </mxCell>
        <mxCell id="PJeUOQCIqOAqOTLe1t8q-3" style="edgeStyle=elbowEdgeStyle;orthogonalLoop=1;jettySize=auto;html=1;exitX=0.5;exitY=0;exitDx=0;exitDy=0;entryX=0.5;entryY=1;entryDx=0;entryDy=0;elbow=vertical;rounded=1;" parent="PJeUOQCIqOAqOTLe1t8q-1" source="PJeUOQCIqOAqOTLe1t8q-5" target="PJeUOQCIqOAqOTLe1t8q-2" edge="1">
          <mxGeometry relative="1" as="geometry" />
        </mxCell>
        <mxCell id="PJeUOQCIqOAqOTLe1t8q-4" value="" style="edgeStyle=elbowEdgeStyle;rounded=1;orthogonalLoop=1;jettySize=auto;elbow=vertical;html=1;" parent="PJeUOQCIqOAqOTLe1t8q-1" source="PJeUOQCIqOAqOTLe1t8q-5" target="PJeUOQCIqOAqOTLe1t8q-21" edge="1">
          <mxGeometry relative="1" as="geometry" />
        </mxCell>
        <mxCell id="PJeUOQCIqOAqOTLe1t8q-5" value="Object Search page" style="rounded=1;whiteSpace=wrap;html=1;" parent="PJeUOQCIqOAqOTLe1t8q-1" vertex="1">
          <mxGeometry x="110" y="470" width="120" height="60" as="geometry" />
        </mxCell>
        <mxCell id="PJeUOQCIqOAqOTLe1t8q-6" style="edgeStyle=elbowEdgeStyle;rounded=1;orthogonalLoop=1;jettySize=auto;elbow=vertical;html=1;entryX=0.75;entryY=1;entryDx=0;entryDy=0;" parent="PJeUOQCIqOAqOTLe1t8q-1" source="PJeUOQCIqOAqOTLe1t8q-8" target="PJeUOQCIqOAqOTLe1t8q-2" edge="1">
          <mxGeometry relative="1" as="geometry" />
        </mxCell>
        <mxCell id="PJeUOQCIqOAqOTLe1t8q-7" value="" style="edgeStyle=elbowEdgeStyle;rounded=1;orthogonalLoop=1;jettySize=auto;elbow=vertical;html=1;" parent="PJeUOQCIqOAqOTLe1t8q-1" source="PJeUOQCIqOAqOTLe1t8q-8" target="PJeUOQCIqOAqOTLe1t8q-25" edge="1">
          <mxGeometry relative="1" as="geometry" />
        </mxCell>
        <mxCell id="PJeUOQCIqOAqOTLe1t8q-8" value="IMA process page" style="rounded=1;whiteSpace=wrap;html=1;" parent="PJeUOQCIqOAqOTLe1t8q-1" vertex="1">
          <mxGeometry x="900" y="470" width="120" height="60" as="geometry" />
        </mxCell>
        <mxCell id="PJeUOQCIqOAqOTLe1t8q-9" value="" style="edgeStyle=elbowEdgeStyle;rounded=1;orthogonalLoop=1;jettySize=auto;elbow=vertical;html=1;" parent="PJeUOQCIqOAqOTLe1t8q-1" source="PJeUOQCIqOAqOTLe1t8q-11" target="PJeUOQCIqOAqOTLe1t8q-14" edge="1">
          <mxGeometry relative="1" as="geometry" />
        </mxCell>
        <mxCell id="PJeUOQCIqOAqOTLe1t8q-10" value="" style="edgeStyle=elbowEdgeStyle;rounded=1;orthogonalLoop=1;jettySize=auto;elbow=vertical;html=1;" parent="PJeUOQCIqOAqOTLe1t8q-1" source="PJeUOQCIqOAqOTLe1t8q-11" target="PJeUOQCIqOAqOTLe1t8q-34" edge="1">
          <mxGeometry relative="1" as="geometry" />
        </mxCell>
        <mxCell id="PJeUOQCIqOAqOTLe1t8q-11" value="holding pen page" style="rounded=1;whiteSpace=wrap;html=1;" parent="PJeUOQCIqOAqOTLe1t8q-1" vertex="1">
          <mxGeometry x="425" y="590" width="120" height="60" as="geometry" />
        </mxCell>
        <mxCell id="PJeUOQCIqOAqOTLe1t8q-12" value="" style="edgeStyle=elbowEdgeStyle;rounded=1;orthogonalLoop=1;jettySize=auto;elbow=vertical;html=1;" parent="PJeUOQCIqOAqOTLe1t8q-1" source="PJeUOQCIqOAqOTLe1t8q-14" target="PJeUOQCIqOAqOTLe1t8q-23" edge="1">
          <mxGeometry relative="1" as="geometry" />
        </mxCell>
        <mxCell id="PJeUOQCIqOAqOTLe1t8q-13" style="edgeStyle=elbowEdgeStyle;rounded=1;orthogonalLoop=1;jettySize=auto;elbow=vertical;html=1;exitX=0.5;exitY=0;exitDx=0;exitDy=0;" parent="PJeUOQCIqOAqOTLe1t8q-1" source="PJeUOQCIqOAqOTLe1t8q-14" edge="1">
          <mxGeometry relative="1" as="geometry">
            <mxPoint x="620" y="170" as="targetPoint" />
          </mxGeometry>
        </mxCell>
        <mxCell id="PJeUOQCIqOAqOTLe1t8q-14" value="Upload page" style="rounded=1;whiteSpace=wrap;html=1;" parent="PJeUOQCIqOAqOTLe1t8q-1" vertex="1">
          <mxGeometry x="530" y="460" width="120" height="60" as="geometry" />
        </mxCell>
        <mxCell id="PJeUOQCIqOAqOTLe1t8q-15" style="edgeStyle=elbowEdgeStyle;rounded=1;orthogonalLoop=1;jettySize=auto;elbow=vertical;html=1;entryX=0.25;entryY=1;entryDx=0;entryDy=0;" parent="PJeUOQCIqOAqOTLe1t8q-1" source="PJeUOQCIqOAqOTLe1t8q-17" edge="1" target="PJeUOQCIqOAqOTLe1t8q-2">
          <mxGeometry relative="1" as="geometry">
            <mxPoint x="620" y="170" as="targetPoint" />
          </mxGeometry>
        </mxCell>
        <mxCell id="PJeUOQCIqOAqOTLe1t8q-16" value="" style="edgeStyle=elbowEdgeStyle;rounded=1;orthogonalLoop=1;jettySize=auto;elbow=vertical;html=1;" parent="PJeUOQCIqOAqOTLe1t8q-1" source="PJeUOQCIqOAqOTLe1t8q-17" target="PJeUOQCIqOAqOTLe1t8q-30" edge="1">
          <mxGeometry relative="1" as="geometry" />
        </mxCell>
        <mxCell id="PJeUOQCIqOAqOTLe1t8q-17" value="datasets page" style="rounded=1;whiteSpace=wrap;html=1;" parent="PJeUOQCIqOAqOTLe1t8q-1" vertex="1">
          <mxGeometry x="270" y="470" width="120" height="60" as="geometry" />
        </mxCell>
        <mxCell id="PJeUOQCIqOAqOTLe1t8q-18" style="edgeStyle=elbowEdgeStyle;rounded=1;orthogonalLoop=1;jettySize=auto;elbow=vertical;html=1;entryX=1;entryY=0.75;entryDx=0;entryDy=0;" parent="PJeUOQCIqOAqOTLe1t8q-1" source="PJeUOQCIqOAqOTLe1t8q-19" target="PJeUOQCIqOAqOTLe1t8q-2" edge="1">
          <mxGeometry relative="1" as="geometry">
            <Array as="points">
              <mxPoint x="800" y="155" />
            </Array>
          </mxGeometry>
        </mxCell>
        <mxCell id="PJeUOQCIqOAqOTLe1t8q-19" value="Metrics page" style="rounded=1;whiteSpace=wrap;html=1;" parent="PJeUOQCIqOAqOTLe1t8q-1" vertex="1">
          <mxGeometry x="1000" y="130" width="120" height="60" as="geometry" />
        </mxCell>
        <mxCell id="PJeUOQCIqOAqOTLe1t8q-20" value="" style="edgeStyle=elbowEdgeStyle;rounded=1;orthogonalLoop=1;jettySize=auto;elbow=vertical;html=1;" parent="PJeUOQCIqOAqOTLe1t8q-1" source="PJeUOQCIqOAqOTLe1t8q-21" target="PJeUOQCIqOAqOTLe1t8q-28" edge="1">
          <mxGeometry relative="1" as="geometry" />
        </mxCell>
        <mxCell id="PJeUOQCIqOAqOTLe1t8q-21" value="file search result" style="rounded=1;whiteSpace=wrap;html=1;" parent="PJeUOQCIqOAqOTLe1t8q-1" vertex="1">
          <mxGeometry x="110" y="610" width="120" height="60" as="geometry" />
        </mxCell>
        <mxCell id="PJeUOQCIqOAqOTLe1t8q-22" style="edgeStyle=elbowEdgeStyle;rounded=1;orthogonalLoop=1;jettySize=auto;elbow=vertical;html=1;exitX=0.5;exitY=1;exitDx=0;exitDy=0;entryX=0.5;entryY=0;entryDx=0;entryDy=0;" parent="PJeUOQCIqOAqOTLe1t8q-1" source="PJeUOQCIqOAqOTLe1t8q-23" target="PJeUOQCIqOAqOTLe1t8q-34" edge="1">
          <mxGeometry relative="1" as="geometry" />
        </mxCell>
        <mxCell id="PJeUOQCIqOAqOTLe1t8q-23" value="Digitization page" style="rounded=1;whiteSpace=wrap;html=1;" parent="PJeUOQCIqOAqOTLe1t8q-1" vertex="1">
          <mxGeometry x="620" y="590" width="120" height="60" as="geometry" />
        </mxCell>
        <mxCell id="PJeUOQCIqOAqOTLe1t8q-24" value="" style="edgeStyle=elbowEdgeStyle;rounded=1;orthogonalLoop=1;jettySize=auto;elbow=vertical;html=1;" parent="PJeUOQCIqOAqOTLe1t8q-1" source="PJeUOQCIqOAqOTLe1t8q-25" target="PJeUOQCIqOAqOTLe1t8q-27" edge="1">
          <mxGeometry relative="1" as="geometry" />
        </mxCell>
        <mxCell id="PJeUOQCIqOAqOTLe1t8q-25" value="system" style="rounded=1;whiteSpace=wrap;html=1;" parent="PJeUOQCIqOAqOTLe1t8q-1" vertex="1">
          <mxGeometry x="900" y="610" width="120" height="60" as="geometry" />
        </mxCell>
        <mxCell id="PJeUOQCIqOAqOTLe1t8q-26" value="" style="edgeStyle=elbowEdgeStyle;rounded=1;orthogonalLoop=1;jettySize=auto;elbow=vertical;html=1;" parent="PJeUOQCIqOAqOTLe1t8q-1" source="PJeUOQCIqOAqOTLe1t8q-27" target="PJeUOQCIqOAqOTLe1t8q-36" edge="1">
          <mxGeometry relative="1" as="geometry" />
        </mxCell>
        <mxCell id="PJeUOQCIqOAqOTLe1t8q-27" value="assign classification/disposition" style="rounded=1;whiteSpace=wrap;html=1;" parent="PJeUOQCIqOAqOTLe1t8q-1" vertex="1">
          <mxGeometry x="900" y="750" width="120" height="60" as="geometry" />
        </mxCell>
        <mxCell id="PJeUOQCIqOAqOTLe1t8q-28" value="Link to file/record page" style="rounded=1;whiteSpace=wrap;html=1;" parent="PJeUOQCIqOAqOTLe1t8q-1" vertex="1">
          <mxGeometry x="110" y="750" width="120" height="60" as="geometry" />
        </mxCell>
        <mxCell id="PJeUOQCIqOAqOTLe1t8q-29" value="" style="edgeStyle=elbowEdgeStyle;rounded=1;orthogonalLoop=1;jettySize=auto;elbow=vertical;html=1;" parent="PJeUOQCIqOAqOTLe1t8q-1" source="PJeUOQCIqOAqOTLe1t8q-30" target="PJeUOQCIqOAqOTLe1t8q-32" edge="1">
          <mxGeometry relative="1" as="geometry" />
        </mxCell>
        <mxCell id="PJeUOQCIqOAqOTLe1t8q-30" value="Dataset Search" style="rounded=1;whiteSpace=wrap;html=1;" parent="PJeUOQCIqOAqOTLe1t8q-1" vertex="1">
          <mxGeometry x="270" y="610" width="120" height="60" as="geometry" />
        </mxCell>
        <mxCell id="PJeUOQCIqOAqOTLe1t8q-31" value="" style="edgeStyle=elbowEdgeStyle;rounded=1;orthogonalLoop=1;jettySize=auto;elbow=vertical;html=1;" parent="PJeUOQCIqOAqOTLe1t8q-1" source="PJeUOQCIqOAqOTLe1t8q-32" target="PJeUOQCIqOAqOTLe1t8q-33" edge="1">
          <mxGeometry relative="1" as="geometry" />
        </mxCell>
        <mxCell id="PJeUOQCIqOAqOTLe1t8q-32" value="File list" style="rounded=1;whiteSpace=wrap;html=1;" parent="PJeUOQCIqOAqOTLe1t8q-1" vertex="1">
          <mxGeometry x="270" y="750" width="120" height="60" as="geometry" />
        </mxCell>
        <mxCell id="PJeUOQCIqOAqOTLe1t8q-33" value="workspace" style="rounded=1;whiteSpace=wrap;html=1;" parent="PJeUOQCIqOAqOTLe1t8q-1" vertex="1">
          <mxGeometry x="270" y="890" width="120" height="60" as="geometry" />
        </mxCell>
        <mxCell id="PJeUOQCIqOAqOTLe1t8q-34" value="Reprocess apge" style="rounded=1;whiteSpace=wrap;html=1;" parent="PJeUOQCIqOAqOTLe1t8q-1" vertex="1">
          <mxGeometry x="530" y="750" width="120" height="60" as="geometry" />
        </mxCell>
        <mxCell id="PJeUOQCIqOAqOTLe1t8q-35" value="" style="edgeStyle=elbowEdgeStyle;rounded=1;orthogonalLoop=1;jettySize=auto;elbow=vertical;html=1;" parent="PJeUOQCIqOAqOTLe1t8q-1" source="PJeUOQCIqOAqOTLe1t8q-36" target="PJeUOQCIqOAqOTLe1t8q-38" edge="1">
          <mxGeometry relative="1" as="geometry" />
        </mxCell>
        <mxCell id="PJeUOQCIqOAqOTLe1t8q-36" value="edit requirements" style="rounded=1;whiteSpace=wrap;html=1;" parent="PJeUOQCIqOAqOTLe1t8q-1" vertex="1">
          <mxGeometry x="900" y="890" width="120" height="60" as="geometry" />
        </mxCell>
        <mxCell id="PJeUOQCIqOAqOTLe1t8q-37" value="" style="edgeStyle=elbowEdgeStyle;rounded=1;orthogonalLoop=1;jettySize=auto;elbow=vertical;html=1;" parent="PJeUOQCIqOAqOTLe1t8q-1" source="PJeUOQCIqOAqOTLe1t8q-38" target="PJeUOQCIqOAqOTLe1t8q-39" edge="1">
          <mxGeometry relative="1" as="geometry" />
        </mxCell>
        <mxCell id="PJeUOQCIqOAqOTLe1t8q-38" value="submit requirements" style="rounded=1;whiteSpace=wrap;html=1;" parent="PJeUOQCIqOAqOTLe1t8q-1" vertex="1">
          <mxGeometry x="900" y="1030" width="120" height="60" as="geometry" />
        </mxCell>
        <mxCell id="PJeUOQCIqOAqOTLe1t8q-39" value="Review Requirements" style="rounded=1;whiteSpace=wrap;html=1;" parent="PJeUOQCIqOAqOTLe1t8q-1" vertex="1">
          <mxGeometry x="900" y="1170" width="120" height="60" as="geometry" />
        </mxCell>
      </root>
    </mxGraphModel>
  </diagram>
  <diagram name="Dashboard w/Carousel" id="YE4-XOmHQeGqe6cq5tir">
    <mxGraphModel dx="2031" dy="1939" grid="1" gridSize="10" guides="1" tooltips="1" connect="0" arrows="0" fold="1" page="1" pageScale="1" pageWidth="1100" pageHeight="850" math="0" shadow="0">
      <root>
        <mxCell id="azvi52GzjCQ6X3Fhh1YJ-0" />
        <mxCell id="azvi52GzjCQ6X3Fhh1YJ-1" parent="azvi52GzjCQ6X3Fhh1YJ-0" />
        <mxCell id="azvi52GzjCQ6X3Fhh1YJ-2" value="" style="rounded=0;whiteSpace=wrap;html=1;fillColor=#3333FF;" parent="azvi52GzjCQ6X3Fhh1YJ-1" vertex="1">
          <mxGeometry x="14" y="-820" width="1185" height="60" as="geometry" />
        </mxCell>
        <mxCell id="azvi52GzjCQ6X3Fhh1YJ-5" value="My Assigned Tasks" style="text;html=1;strokeColor=none;fillColor=none;align=center;verticalAlign=middle;whiteSpace=wrap;rounded=0;fontColor=#999999;fontStyle=1;fontSize=20;" parent="azvi52GzjCQ6X3Fhh1YJ-1" vertex="1">
          <mxGeometry x="281" y="-742" width="230" height="20" as="geometry" />
        </mxCell>
        <mxCell id="azvi52GzjCQ6X3Fhh1YJ-6" value="My Group&#39;s Assigned Tasks" style="text;html=1;strokeColor=none;fillColor=none;align=center;verticalAlign=middle;whiteSpace=wrap;rounded=0;fontStyle=1;fontColor=#999999;fontSize=20;" parent="azvi52GzjCQ6X3Fhh1YJ-1" vertex="1">
          <mxGeometry x="301" y="-380" width="286" height="20" as="geometry" />
        </mxCell>
        <mxCell id="azvi52GzjCQ6X3Fhh1YJ-7" value="&lt;font style=&quot;font-size: 14px&quot;&gt;FEEDBACK&lt;/font&gt;" style="rounded=1;whiteSpace=wrap;html=1;fillColor=#FF8000;strokeColor=#FF8000;fontColor=#FFFFFF;" parent="azvi52GzjCQ6X3Fhh1YJ-1" vertex="1">
          <mxGeometry x="1058" y="-808.5" width="120" height="40" as="geometry" />
        </mxCell>
        <mxCell id="azvi52GzjCQ6X3Fhh1YJ-8" value="" style="shape=image;html=1;verticalAlign=top;verticalLabelPosition=bottom;labelBackgroundColor=#ffffff;imageAspect=0;aspect=fixed;image=https://cdn3.iconfinder.com/data/icons/social-media-2125/78/bell-128.png;strokeColor=#FF8000;fillColor=#FF8000;fontColor=#FFFFFF;" parent="azvi52GzjCQ6X3Fhh1YJ-1" vertex="1">
          <mxGeometry x="996" y="-808.5" width="37" height="37" as="geometry" />
        </mxCell>
        <mxCell id="azvi52GzjCQ6X3Fhh1YJ-9" value="" style="fillColor=#f5f5f5;strokeColor=#666666;gradientColor=#b3b3b3;" parent="azvi52GzjCQ6X3Fhh1YJ-1" vertex="1">
          <mxGeometry x="349" y="35" width="30" height="100" as="geometry" />
        </mxCell>
        <mxCell id="azvi52GzjCQ6X3Fhh1YJ-10" value="" style="shape=mxgraph.arrows2.arrow;dy=0.4;dx=16;notch=0;direction=north;fillColor=#f5f5f5;strokeColor=#666666;gradientColor=#b3b3b3;" parent="azvi52GzjCQ6X3Fhh1YJ-9" vertex="1">
          <mxGeometry x="3" y="30" width="24" height="70" as="geometry" />
        </mxCell>
        <mxCell id="azvi52GzjCQ6X3Fhh1YJ-11" value="GRS" style="text;html=1;align=center;verticalAlign=middle;whiteSpace=wrap;fontSize=10;gradientColor=#b3b3b3;fillColor=#f5f5f5;strokeColor=#666666;" parent="azvi52GzjCQ6X3Fhh1YJ-9" vertex="1">
          <mxGeometry width="30" height="20" as="geometry" />
        </mxCell>
        <mxCell id="azvi52GzjCQ6X3Fhh1YJ-12" value="" style="fillColor=#f5f5f5;strokeColor=#666666;gradientColor=#b3b3b3;" parent="azvi52GzjCQ6X3Fhh1YJ-1" vertex="1">
          <mxGeometry x="384" y="15" width="30" height="120" as="geometry" />
        </mxCell>
        <mxCell id="azvi52GzjCQ6X3Fhh1YJ-13" value="" style="shape=mxgraph.arrows2.arrow;dy=0.4;dx=16;notch=0;direction=south;fillColor=#f5f5f5;strokeColor=#666666;gradientColor=#b3b3b3;" parent="azvi52GzjCQ6X3Fhh1YJ-12" vertex="1">
          <mxGeometry x="3" width="24" height="80" as="geometry" />
        </mxCell>
        <mxCell id="azvi52GzjCQ6X3Fhh1YJ-14" value="RCS" style="text;html=1;align=center;verticalAlign=middle;whiteSpace=wrap;fontSize=10;gradientColor=#b3b3b3;fillColor=#f5f5f5;strokeColor=#666666;" parent="azvi52GzjCQ6X3Fhh1YJ-12" vertex="1">
          <mxGeometry width="30" height="20" as="geometry" />
        </mxCell>
        <mxCell id="azvi52GzjCQ6X3Fhh1YJ-15" value="" style="fillColor=#f5f5f5;strokeColor=#666666;gradientColor=#b3b3b3;" parent="azvi52GzjCQ6X3Fhh1YJ-1" vertex="1">
          <mxGeometry x="419" y="5" width="36" height="130" as="geometry" />
        </mxCell>
        <mxCell id="azvi52GzjCQ6X3Fhh1YJ-16" value="" style="shape=mxgraph.arrows2.arrow;dy=0.4;dx=16;notch=0;direction=north;fillColor=#f5f5f5;strokeColor=#666666;gradientColor=#b3b3b3;" parent="azvi52GzjCQ6X3Fhh1YJ-15" vertex="1">
          <mxGeometry x="3.5999999999999996" y="80" width="28.799999999999997" height="50" as="geometry" />
        </mxCell>
        <mxCell id="azvi52GzjCQ6X3Fhh1YJ-17" value="FRCS" style="text;html=1;align=center;verticalAlign=middle;whiteSpace=wrap;fontSize=10;gradientColor=#b3b3b3;fillColor=#f5f5f5;strokeColor=#666666;" parent="azvi52GzjCQ6X3Fhh1YJ-15" vertex="1">
          <mxGeometry width="36" height="20" as="geometry" />
        </mxCell>
        <mxCell id="azvi52GzjCQ6X3Fhh1YJ-24" value="" style="html=1;verticalLabelPosition=bottom;align=center;labelBackgroundColor=#ffffff;verticalAlign=top;strokeWidth=2;strokeColor=#666666;shadow=0;dashed=0;shape=mxgraph.ios7.icons.pie_chart;fillColor=#f5f5f5;gradientColor=#b3b3b3;" parent="azvi52GzjCQ6X3Fhh1YJ-1" vertex="1">
          <mxGeometry x="643.5" y="11" width="160" height="136" as="geometry" />
        </mxCell>
        <mxCell id="azvi52GzjCQ6X3Fhh1YJ-25" value="" style="shape=image;html=1;verticalAlign=top;verticalLabelPosition=bottom;labelBackgroundColor=#ffffff;imageAspect=0;aspect=fixed;image=https://cdn2.iconfinder.com/data/icons/ios-7-icons/50/line_chart-128.png;strokeColor=#FF8000;fillColor=#FF8000;fontColor=#FFFFFF;" parent="azvi52GzjCQ6X3Fhh1YJ-1" vertex="1">
          <mxGeometry x="975" y="1" width="146" height="146" as="geometry" />
        </mxCell>
        <mxCell id="azvi52GzjCQ6X3Fhh1YJ-34" value="" style="rounded=0;whiteSpace=wrap;html=1;align=left;labelBackgroundColor=#ffffff;shadow=0;strokeColor=#CCCCCC;" parent="azvi52GzjCQ6X3Fhh1YJ-1" vertex="1">
          <mxGeometry x="334.5" y="-705" width="243.5" height="138" as="geometry" />
        </mxCell>
        <mxCell id="azvi52GzjCQ6X3Fhh1YJ-37" value="Go To IMA" style="rounded=0;whiteSpace=wrap;html=1;fontColor=#FFFFFF;fillColor=#3333FF;strokeColor=#3333FF;" parent="azvi52GzjCQ6X3Fhh1YJ-1" vertex="1">
          <mxGeometry x="460" y="-607" width="104" height="30" as="geometry" />
        </mxCell>
        <mxCell id="Ajgv92NS7ZwRNSzHR014-0" value="" style="rounded=0;whiteSpace=wrap;html=1;shadow=0;sketch=0;strokeColor=#CCCCCC;fillColor=#808080;fontSize=10;fontColor=#808080;" parent="azvi52GzjCQ6X3Fhh1YJ-1" vertex="1">
          <mxGeometry x="334" y="-567" width="244" height="154" as="geometry" />
        </mxCell>
        <mxCell id="Ajgv92NS7ZwRNSzHR014-1" value="&lt;div style=&quot;text-align: left ; font-size: 16px&quot;&gt;&lt;font style=&quot;font-size: 16px&quot;&gt;IMA Process Assignment(s)&lt;/font&gt;&lt;/div&gt;&lt;br style=&quot;font-size: 16px&quot;&gt;&lt;span style=&quot;font-weight: normal&quot;&gt;There are 2 new Systems awaiting IMA Process Review.&lt;/span&gt;" style="text;html=1;strokeColor=none;fillColor=none;align=center;verticalAlign=middle;whiteSpace=wrap;rounded=0;shadow=0;sketch=0;fontSize=10;fontColor=#808080;fontStyle=1" parent="azvi52GzjCQ6X3Fhh1YJ-1" vertex="1">
          <mxGeometry x="340" y="-705" width="186" height="94" as="geometry" />
        </mxCell>
        <mxCell id="xenEn6fitPmHM1TRzBhj-1" value="Metrics Summary" style="text;html=1;strokeColor=none;fillColor=none;align=center;verticalAlign=middle;whiteSpace=wrap;rounded=0;fontStyle=1;fontColor=#999999;fontSize=20;" parent="azvi52GzjCQ6X3Fhh1YJ-1" vertex="1">
          <mxGeometry x="304" y="-30" width="180" height="20" as="geometry" />
        </mxCell>
        <mxCell id="xenEn6fitPmHM1TRzBhj-3" value="Assigned item information displayed here" style="text;html=1;strokeColor=none;fillColor=none;align=center;verticalAlign=middle;whiteSpace=wrap;rounded=0;shadow=0;sketch=0;fontSize=10;" parent="azvi52GzjCQ6X3Fhh1YJ-1" vertex="1">
          <mxGeometry x="392" y="-514" width="128" height="56" as="geometry" />
        </mxCell>
        <mxCell id="xenEn6fitPmHM1TRzBhj-4" value="" style="shape=image;html=1;verticalAlign=top;verticalLabelPosition=bottom;labelBackgroundColor=#ffffff;imageAspect=0;aspect=fixed;image=https://cdn2.iconfinder.com/data/icons/ink-arrow/38/caret-down-128.png;shadow=0;sketch=0;strokeColor=#CCCCCC;fillColor=#808080;fontSize=10;align=left;rotation=90;fontColor=#808080;" parent="azvi52GzjCQ6X3Fhh1YJ-1" vertex="1">
          <mxGeometry x="329" y="-518" width="56" height="56" as="geometry" />
        </mxCell>
        <mxCell id="xenEn6fitPmHM1TRzBhj-6" value="" style="shape=image;html=1;verticalAlign=top;verticalLabelPosition=bottom;labelBackgroundColor=#ffffff;imageAspect=0;aspect=fixed;image=https://cdn2.iconfinder.com/data/icons/ink-arrow/38/caret-down-128.png;shadow=0;sketch=0;strokeColor=#CCCCCC;fillColor=#808080;fontSize=10;align=left;rotation=-90;fontColor=#808080;" parent="azvi52GzjCQ6X3Fhh1YJ-1" vertex="1">
          <mxGeometry x="520" y="-514" width="56" height="56" as="geometry" />
        </mxCell>
        <mxCell id="9bJnKq5YEKvpMrtjTlFG-0" value="" style="shape=rect;strokeColor=#eeeeee;fillColor=#ffffff;shadow=1;whiteSpace=wrap;" parent="azvi52GzjCQ6X3Fhh1YJ-1" vertex="1">
          <mxGeometry x="16" y="-758" width="272" height="893" as="geometry" />
        </mxCell>
        <mxCell id="9bJnKq5YEKvpMrtjTlFG-1" value="Datasets" style="text;verticalAlign=middle;spacing=0;spacingLeft=16;fontSize=15;resizeWidth=1;fontStyle=1" parent="9bJnKq5YEKvpMrtjTlFG-0" vertex="1">
          <mxGeometry width="272" height="42" relative="1" as="geometry" />
        </mxCell>
        <mxCell id="9bJnKq5YEKvpMrtjTlFG-2" value="Create and manage datasets and the objects within them." style="text;verticalAlign=middle;spacing=0;spacingLeft=16;fontSize=10;resizeWidth=1;fontColor=#808080;whiteSpace=wrap;" parent="9bJnKq5YEKvpMrtjTlFG-0" vertex="1">
          <mxGeometry width="192" height="42" relative="1" as="geometry">
            <mxPoint y="22" as="offset" />
          </mxGeometry>
        </mxCell>
        <mxCell id="9bJnKq5YEKvpMrtjTlFG-3" value="Digitizations" style="text;verticalAlign=middle;spacing=0;spacingLeft=16;fontSize=15;resizeWidth=1;fontStyle=1" parent="9bJnKq5YEKvpMrtjTlFG-0" vertex="1">
          <mxGeometry width="272" height="42" relative="1" as="geometry">
            <mxPoint y="71" as="offset" />
          </mxGeometry>
        </mxCell>
        <mxCell id="9bJnKq5YEKvpMrtjTlFG-4" value="Bulk ingest of standard files in a defined format." style="text;verticalAlign=middle;spacing=0;spacingLeft=16;fontSize=10;resizeWidth=1;fontColor=#808080;" parent="9bJnKq5YEKvpMrtjTlFG-0" vertex="1">
          <mxGeometry width="272" height="42" relative="1" as="geometry">
            <mxPoint y="91" as="offset" />
          </mxGeometry>
        </mxCell>
        <mxCell id="9bJnKq5YEKvpMrtjTlFG-5" value="Holding Pen" style="text;verticalAlign=middle;spacing=0;spacingLeft=16;fontSize=15;resizeWidth=1;fontStyle=1" parent="9bJnKq5YEKvpMrtjTlFG-0" vertex="1">
          <mxGeometry width="272" height="42" relative="1" as="geometry">
            <mxPoint y="128" as="offset" />
          </mxGeometry>
        </mxCell>
        <mxCell id="9bJnKq5YEKvpMrtjTlFG-6" value="Secure, short term storage for objects" style="text;verticalAlign=middle;spacing=0;spacingLeft=16;fontSize=10;resizeWidth=1;fontColor=#808080;" parent="9bJnKq5YEKvpMrtjTlFG-0" vertex="1">
          <mxGeometry width="272" height="42" relative="1" as="geometry">
            <mxPoint y="146" as="offset" />
          </mxGeometry>
        </mxCell>
        <mxCell id="9bJnKq5YEKvpMrtjTlFG-7" value="IMA Process" style="text;verticalAlign=middle;spacing=0;spacingLeft=16;fontSize=15;resizeWidth=1;fontStyle=1" parent="9bJnKq5YEKvpMrtjTlFG-0" vertex="1">
          <mxGeometry width="272" height="42" relative="1" as="geometry">
            <mxPoint y="182" as="offset" />
          </mxGeometry>
        </mxCell>
        <mxCell id="9bJnKq5YEKvpMrtjTlFG-8" value="Guide systems through the IMA Processs" style="text;verticalAlign=middle;spacing=0;spacingLeft=16;fontSize=10;resizeWidth=1;fontColor=#808080;" parent="9bJnKq5YEKvpMrtjTlFG-0" vertex="1">
          <mxGeometry width="272" height="42" relative="1" as="geometry">
            <mxPoint y="199" as="offset" />
          </mxGeometry>
        </mxCell>
        <mxCell id="9bJnKq5YEKvpMrtjTlFG-9" value="Metrics" style="text;verticalAlign=middle;spacing=0;spacingLeft=16;fontSize=15;resizeWidth=1;fillColor=none;fontStyle=1" parent="9bJnKq5YEKvpMrtjTlFG-0" vertex="1">
          <mxGeometry width="272" height="42" relative="1" as="geometry">
            <mxPoint y="234" as="offset" />
          </mxGeometry>
        </mxCell>
        <mxCell id="9bJnKq5YEKvpMrtjTlFG-10" value="View various records management metrics" style="text;verticalAlign=middle;spacing=0;spacingLeft=16;fontSize=10;resizeWidth=1;fontColor=#808080;" parent="9bJnKq5YEKvpMrtjTlFG-0" vertex="1">
          <mxGeometry width="272" height="42" relative="1" as="geometry">
            <mxPoint y="252" as="offset" />
          </mxGeometry>
        </mxCell>
        <mxCell id="9bJnKq5YEKvpMrtjTlFG-11" value="" style="shape=rect;strokeColor=none;fillColor=#dddddd;" parent="9bJnKq5YEKvpMrtjTlFG-0" vertex="1">
          <mxGeometry x="1" width="4" height="190" relative="1" as="geometry">
            <mxPoint x="-4" y="125" as="offset" />
          </mxGeometry>
        </mxCell>
        <mxCell id="9bJnKq5YEKvpMrtjTlFG-12" value="Search" style="text;verticalAlign=middle;spacing=0;spacingLeft=16;fontSize=15;resizeWidth=1;fontStyle=1" parent="9bJnKq5YEKvpMrtjTlFG-0" vertex="1">
          <mxGeometry x="2" y="264.00348837209395" width="272" height="79.2938689217759" as="geometry" />
        </mxCell>
        <mxCell id="9bJnKq5YEKvpMrtjTlFG-13" value="" style="rounded=0;whiteSpace=wrap;html=1;align=left;labelBackgroundColor=#ffffff;shadow=0;strokeColor=#CCCCCC;" parent="azvi52GzjCQ6X3Fhh1YJ-1" vertex="1">
          <mxGeometry x="612.5" y="-705" width="243.5" height="138" as="geometry" />
        </mxCell>
        <mxCell id="9bJnKq5YEKvpMrtjTlFG-14" value="Go To IMA" style="rounded=0;whiteSpace=wrap;html=1;fontColor=#FFFFFF;fillColor=#3333FF;strokeColor=#3333FF;" parent="azvi52GzjCQ6X3Fhh1YJ-1" vertex="1">
          <mxGeometry x="738" y="-607" width="104" height="30" as="geometry" />
        </mxCell>
        <mxCell id="9bJnKq5YEKvpMrtjTlFG-15" value="" style="rounded=0;whiteSpace=wrap;html=1;shadow=0;sketch=0;strokeColor=#CCCCCC;fillColor=#808080;fontSize=10;fontColor=#808080;" parent="azvi52GzjCQ6X3Fhh1YJ-1" vertex="1">
          <mxGeometry x="612" y="-567" width="244" height="154" as="geometry" />
        </mxCell>
        <mxCell id="9bJnKq5YEKvpMrtjTlFG-16" value="&lt;div style=&quot;text-align: left ; font-size: 16px&quot;&gt;&lt;font style=&quot;font-size: 16px&quot;&gt;New Datasets for Review&lt;/font&gt;&lt;/div&gt;&lt;br style=&quot;font-size: 16px&quot;&gt;&lt;span style=&quot;font-weight: normal&quot;&gt;There are 2 new Systems awaiting IMA Process Review.&lt;/span&gt;" style="text;html=1;strokeColor=none;fillColor=none;align=center;verticalAlign=middle;whiteSpace=wrap;rounded=0;shadow=0;sketch=0;fontSize=10;fontColor=#808080;fontStyle=1" parent="azvi52GzjCQ6X3Fhh1YJ-1" vertex="1">
          <mxGeometry x="618" y="-705" width="186" height="94" as="geometry" />
        </mxCell>
        <mxCell id="9bJnKq5YEKvpMrtjTlFG-17" value="Assigned item information displayed here" style="text;html=1;strokeColor=none;fillColor=none;align=center;verticalAlign=middle;whiteSpace=wrap;rounded=0;shadow=0;sketch=0;fontSize=10;" parent="azvi52GzjCQ6X3Fhh1YJ-1" vertex="1">
          <mxGeometry x="670" y="-514" width="128" height="56" as="geometry" />
        </mxCell>
        <mxCell id="9bJnKq5YEKvpMrtjTlFG-18" value="" style="shape=image;html=1;verticalAlign=top;verticalLabelPosition=bottom;labelBackgroundColor=#ffffff;imageAspect=0;aspect=fixed;image=https://cdn2.iconfinder.com/data/icons/ink-arrow/38/caret-down-128.png;shadow=0;sketch=0;strokeColor=#CCCCCC;fillColor=#808080;fontSize=10;align=left;rotation=90;fontColor=#808080;" parent="azvi52GzjCQ6X3Fhh1YJ-1" vertex="1">
          <mxGeometry x="607" y="-518" width="56" height="56" as="geometry" />
        </mxCell>
        <mxCell id="9bJnKq5YEKvpMrtjTlFG-19" value="" style="shape=image;html=1;verticalAlign=top;verticalLabelPosition=bottom;labelBackgroundColor=#ffffff;imageAspect=0;aspect=fixed;image=https://cdn2.iconfinder.com/data/icons/ink-arrow/38/caret-down-128.png;shadow=0;sketch=0;strokeColor=#CCCCCC;fillColor=#808080;fontSize=10;align=left;rotation=-90;fontColor=#808080;" parent="azvi52GzjCQ6X3Fhh1YJ-1" vertex="1">
          <mxGeometry x="798" y="-514" width="56" height="56" as="geometry" />
        </mxCell>
        <mxCell id="9bJnKq5YEKvpMrtjTlFG-20" value="" style="rounded=0;whiteSpace=wrap;html=1;align=left;labelBackgroundColor=#ffffff;shadow=0;strokeColor=#CCCCCC;" parent="azvi52GzjCQ6X3Fhh1YJ-1" vertex="1">
          <mxGeometry x="912" y="-705" width="243.5" height="138" as="geometry" />
        </mxCell>
        <mxCell id="9bJnKq5YEKvpMrtjTlFG-21" value="Go To IMA" style="rounded=0;whiteSpace=wrap;html=1;fontColor=#FFFFFF;fillColor=#3333FF;strokeColor=#3333FF;" parent="azvi52GzjCQ6X3Fhh1YJ-1" vertex="1">
          <mxGeometry x="1037.5" y="-607" width="104" height="30" as="geometry" />
        </mxCell>
        <mxCell id="9bJnKq5YEKvpMrtjTlFG-22" value="" style="rounded=0;whiteSpace=wrap;html=1;shadow=0;sketch=0;strokeColor=#CCCCCC;fillColor=#808080;fontSize=10;fontColor=#808080;" parent="azvi52GzjCQ6X3Fhh1YJ-1" vertex="1">
          <mxGeometry x="911.5" y="-567" width="244" height="154" as="geometry" />
        </mxCell>
        <mxCell id="9bJnKq5YEKvpMrtjTlFG-23" value="&lt;div style=&quot;text-align: left ; font-size: 16px&quot;&gt;New Object(s) Eligible for Disposition&lt;/div&gt;&lt;br style=&quot;font-size: 16px&quot;&gt;&lt;span style=&quot;font-weight: normal&quot;&gt;There are 2 new Systems awaiting IMA Process Review.&lt;/span&gt;" style="text;html=1;strokeColor=none;fillColor=none;align=center;verticalAlign=middle;whiteSpace=wrap;rounded=0;shadow=0;sketch=0;fontSize=10;fontColor=#808080;fontStyle=1" parent="azvi52GzjCQ6X3Fhh1YJ-1" vertex="1">
          <mxGeometry x="917.5" y="-705" width="186" height="94" as="geometry" />
        </mxCell>
        <mxCell id="9bJnKq5YEKvpMrtjTlFG-24" value="Assigned item information displayed here" style="text;html=1;strokeColor=none;fillColor=none;align=center;verticalAlign=middle;whiteSpace=wrap;rounded=0;shadow=0;sketch=0;fontSize=10;" parent="azvi52GzjCQ6X3Fhh1YJ-1" vertex="1">
          <mxGeometry x="969.5" y="-514" width="128" height="56" as="geometry" />
        </mxCell>
        <mxCell id="9bJnKq5YEKvpMrtjTlFG-25" value="" style="shape=image;html=1;verticalAlign=top;verticalLabelPosition=bottom;labelBackgroundColor=#ffffff;imageAspect=0;aspect=fixed;image=https://cdn2.iconfinder.com/data/icons/ink-arrow/38/caret-down-128.png;shadow=0;sketch=0;strokeColor=#CCCCCC;fillColor=#808080;fontSize=10;align=left;rotation=90;fontColor=#808080;" parent="azvi52GzjCQ6X3Fhh1YJ-1" vertex="1">
          <mxGeometry x="906.5" y="-518" width="56" height="56" as="geometry" />
        </mxCell>
        <mxCell id="9bJnKq5YEKvpMrtjTlFG-26" value="" style="shape=image;html=1;verticalAlign=top;verticalLabelPosition=bottom;labelBackgroundColor=#ffffff;imageAspect=0;aspect=fixed;image=https://cdn2.iconfinder.com/data/icons/ink-arrow/38/caret-down-128.png;shadow=0;sketch=0;strokeColor=#CCCCCC;fillColor=#808080;fontSize=10;align=left;rotation=-90;fontColor=#808080;" parent="azvi52GzjCQ6X3Fhh1YJ-1" vertex="1">
          <mxGeometry x="1097.5" y="-514" width="56" height="56" as="geometry" />
        </mxCell>
        <mxCell id="mt_yLH3t8Wl-Z0vrEKKa-0" value="" style="whiteSpace=wrap;html=1;shape=mxgraph.basic.octagon2;align=center;verticalAlign=middle;dx=12;shadow=0;sketch=0;fontSize=20;fontColor=#808080;fillColor=#FF8000;strokeColor=#FF8000;" parent="azvi52GzjCQ6X3Fhh1YJ-1" vertex="1">
          <mxGeometry x="24" y="-813.5" width="56" height="42" as="geometry" />
        </mxCell>
        <mxCell id="mt_yLH3t8Wl-Z0vrEKKa-1" value="Eva" style="text;html=1;strokeColor=none;fillColor=none;align=center;verticalAlign=middle;whiteSpace=wrap;rounded=0;shadow=0;sketch=0;fontSize=20;fontColor=#FFFFFF;fontStyle=1" parent="azvi52GzjCQ6X3Fhh1YJ-1" vertex="1">
          <mxGeometry x="90" y="-800" width="40" height="20" as="geometry" />
        </mxCell>
        <mxCell id="mt_yLH3t8Wl-Z0vrEKKa-2" value="" style="html=1;verticalLabelPosition=bottom;align=center;labelBackgroundColor=#ffffff;verticalAlign=top;strokeWidth=2;shadow=0;dashed=0;shape=mxgraph.ios7.icons.user;sketch=0;fontSize=20;fontColor=#FFFFFF;fillColor=#FFFFFF;" parent="azvi52GzjCQ6X3Fhh1YJ-1" vertex="1">
          <mxGeometry x="844" y="-803.5" width="30" height="30" as="geometry" />
        </mxCell>
        <mxCell id="mt_yLH3t8Wl-Z0vrEKKa-3" value="John Doe" style="text;html=1;strokeColor=none;fillColor=none;align=center;verticalAlign=middle;whiteSpace=wrap;rounded=0;shadow=0;sketch=0;fontSize=19;fontColor=#FFFFFF;" parent="azvi52GzjCQ6X3Fhh1YJ-1" vertex="1">
          <mxGeometry x="887.5" y="-798.5" width="94" height="20" as="geometry" />
        </mxCell>
        <mxCell id="pGGozBY4UUzD068neh3i-0" value="" style="rounded=0;whiteSpace=wrap;html=1;align=left;labelBackgroundColor=#ffffff;shadow=0;strokeColor=#CCCCCC;" parent="azvi52GzjCQ6X3Fhh1YJ-1" vertex="1">
          <mxGeometry x="340" y="-349" width="243.5" height="138" as="geometry" />
        </mxCell>
        <mxCell id="pGGozBY4UUzD068neh3i-1" value="Go To IMA" style="rounded=0;whiteSpace=wrap;html=1;fontColor=#FFFFFF;fillColor=#3333FF;strokeColor=#3333FF;" parent="azvi52GzjCQ6X3Fhh1YJ-1" vertex="1">
          <mxGeometry x="465.5" y="-251" width="104" height="30" as="geometry" />
        </mxCell>
        <mxCell id="pGGozBY4UUzD068neh3i-2" value="" style="rounded=0;whiteSpace=wrap;html=1;shadow=0;sketch=0;strokeColor=#CCCCCC;fillColor=#808080;fontSize=10;fontColor=#808080;" parent="azvi52GzjCQ6X3Fhh1YJ-1" vertex="1">
          <mxGeometry x="339.5" y="-211" width="244" height="154" as="geometry" />
        </mxCell>
        <mxCell id="pGGozBY4UUzD068neh3i-3" value="&lt;div style=&quot;text-align: left ; font-size: 16px&quot;&gt;&lt;font style=&quot;font-size: 16px&quot;&gt;IMA Process Assignment(s)&lt;/font&gt;&lt;/div&gt;&lt;br style=&quot;font-size: 16px&quot;&gt;&lt;span style=&quot;font-weight: normal&quot;&gt;There are 2 new Systems awaiting IMA Process Review.&lt;/span&gt;" style="text;html=1;strokeColor=none;fillColor=none;align=center;verticalAlign=middle;whiteSpace=wrap;rounded=0;shadow=0;sketch=0;fontSize=10;fontColor=#808080;fontStyle=1" parent="azvi52GzjCQ6X3Fhh1YJ-1" vertex="1">
          <mxGeometry x="345.5" y="-349" width="186" height="94" as="geometry" />
        </mxCell>
        <mxCell id="pGGozBY4UUzD068neh3i-4" value="Assigned item information displayed here" style="text;html=1;strokeColor=none;fillColor=none;align=center;verticalAlign=middle;whiteSpace=wrap;rounded=0;shadow=0;sketch=0;fontSize=10;" parent="azvi52GzjCQ6X3Fhh1YJ-1" vertex="1">
          <mxGeometry x="397.5" y="-158" width="128" height="56" as="geometry" />
        </mxCell>
        <mxCell id="pGGozBY4UUzD068neh3i-5" value="" style="shape=image;html=1;verticalAlign=top;verticalLabelPosition=bottom;labelBackgroundColor=#ffffff;imageAspect=0;aspect=fixed;image=https://cdn2.iconfinder.com/data/icons/ink-arrow/38/caret-down-128.png;shadow=0;sketch=0;strokeColor=#CCCCCC;fillColor=#808080;fontSize=10;align=left;rotation=90;fontColor=#808080;" parent="azvi52GzjCQ6X3Fhh1YJ-1" vertex="1">
          <mxGeometry x="334.5" y="-162" width="56" height="56" as="geometry" />
        </mxCell>
        <mxCell id="pGGozBY4UUzD068neh3i-6" value="" style="shape=image;html=1;verticalAlign=top;verticalLabelPosition=bottom;labelBackgroundColor=#ffffff;imageAspect=0;aspect=fixed;image=https://cdn2.iconfinder.com/data/icons/ink-arrow/38/caret-down-128.png;shadow=0;sketch=0;strokeColor=#CCCCCC;fillColor=#808080;fontSize=10;align=left;rotation=-90;fontColor=#808080;" parent="azvi52GzjCQ6X3Fhh1YJ-1" vertex="1">
          <mxGeometry x="525.5" y="-158" width="56" height="56" as="geometry" />
        </mxCell>
        <mxCell id="pGGozBY4UUzD068neh3i-7" value="" style="rounded=0;whiteSpace=wrap;html=1;align=left;labelBackgroundColor=#ffffff;shadow=0;strokeColor=#CCCCCC;" parent="azvi52GzjCQ6X3Fhh1YJ-1" vertex="1">
          <mxGeometry x="618" y="-349" width="243.5" height="138" as="geometry" />
        </mxCell>
        <mxCell id="pGGozBY4UUzD068neh3i-8" value="Go To IMA" style="rounded=0;whiteSpace=wrap;html=1;fontColor=#FFFFFF;fillColor=#3333FF;strokeColor=#3333FF;" parent="azvi52GzjCQ6X3Fhh1YJ-1" vertex="1">
          <mxGeometry x="743.5" y="-251" width="104" height="30" as="geometry" />
        </mxCell>
        <mxCell id="pGGozBY4UUzD068neh3i-9" value="" style="rounded=0;whiteSpace=wrap;html=1;shadow=0;sketch=0;strokeColor=#CCCCCC;fillColor=#808080;fontSize=10;fontColor=#808080;" parent="azvi52GzjCQ6X3Fhh1YJ-1" vertex="1">
          <mxGeometry x="617.5" y="-211" width="244" height="154" as="geometry" />
        </mxCell>
        <mxCell id="pGGozBY4UUzD068neh3i-10" value="&lt;div style=&quot;text-align: left ; font-size: 16px&quot;&gt;&lt;font style=&quot;font-size: 16px&quot;&gt;New Datasets for Review&lt;/font&gt;&lt;/div&gt;&lt;br style=&quot;font-size: 16px&quot;&gt;&lt;span style=&quot;font-weight: normal&quot;&gt;There are 2 new Systems awaiting IMA Process Review.&lt;/span&gt;" style="text;html=1;strokeColor=none;fillColor=none;align=center;verticalAlign=middle;whiteSpace=wrap;rounded=0;shadow=0;sketch=0;fontSize=10;fontColor=#808080;fontStyle=1" parent="azvi52GzjCQ6X3Fhh1YJ-1" vertex="1">
          <mxGeometry x="623.5" y="-349" width="186" height="94" as="geometry" />
        </mxCell>
        <mxCell id="pGGozBY4UUzD068neh3i-11" value="Assigned item information displayed here" style="text;html=1;strokeColor=none;fillColor=none;align=center;verticalAlign=middle;whiteSpace=wrap;rounded=0;shadow=0;sketch=0;fontSize=10;" parent="azvi52GzjCQ6X3Fhh1YJ-1" vertex="1">
          <mxGeometry x="675.5" y="-158" width="128" height="56" as="geometry" />
        </mxCell>
        <mxCell id="pGGozBY4UUzD068neh3i-12" value="" style="shape=image;html=1;verticalAlign=top;verticalLabelPosition=bottom;labelBackgroundColor=#ffffff;imageAspect=0;aspect=fixed;image=https://cdn2.iconfinder.com/data/icons/ink-arrow/38/caret-down-128.png;shadow=0;sketch=0;strokeColor=#CCCCCC;fillColor=#808080;fontSize=10;align=left;rotation=90;fontColor=#808080;" parent="azvi52GzjCQ6X3Fhh1YJ-1" vertex="1">
          <mxGeometry x="612.5" y="-162" width="56" height="56" as="geometry" />
        </mxCell>
        <mxCell id="pGGozBY4UUzD068neh3i-13" value="" style="shape=image;html=1;verticalAlign=top;verticalLabelPosition=bottom;labelBackgroundColor=#ffffff;imageAspect=0;aspect=fixed;image=https://cdn2.iconfinder.com/data/icons/ink-arrow/38/caret-down-128.png;shadow=0;sketch=0;strokeColor=#CCCCCC;fillColor=#808080;fontSize=10;align=left;rotation=-90;fontColor=#808080;" parent="azvi52GzjCQ6X3Fhh1YJ-1" vertex="1">
          <mxGeometry x="803.5" y="-158" width="56" height="56" as="geometry" />
        </mxCell>
        <mxCell id="pGGozBY4UUzD068neh3i-14" value="" style="rounded=0;whiteSpace=wrap;html=1;align=left;labelBackgroundColor=#ffffff;shadow=0;strokeColor=#CCCCCC;" parent="azvi52GzjCQ6X3Fhh1YJ-1" vertex="1">
          <mxGeometry x="917.5" y="-349" width="243.5" height="138" as="geometry" />
        </mxCell>
        <mxCell id="pGGozBY4UUzD068neh3i-15" value="Go To IMA" style="rounded=0;whiteSpace=wrap;html=1;fontColor=#FFFFFF;fillColor=#3333FF;strokeColor=#3333FF;" parent="azvi52GzjCQ6X3Fhh1YJ-1" vertex="1">
          <mxGeometry x="1043" y="-251" width="104" height="30" as="geometry" />
        </mxCell>
        <mxCell id="pGGozBY4UUzD068neh3i-16" value="" style="rounded=0;whiteSpace=wrap;html=1;shadow=0;sketch=0;strokeColor=#CCCCCC;fillColor=#808080;fontSize=10;fontColor=#808080;" parent="azvi52GzjCQ6X3Fhh1YJ-1" vertex="1">
          <mxGeometry x="917" y="-211" width="244" height="154" as="geometry" />
        </mxCell>
        <mxCell id="pGGozBY4UUzD068neh3i-17" value="&lt;div style=&quot;text-align: left ; font-size: 16px&quot;&gt;New Object(s) Eligible for Disposition&lt;/div&gt;&lt;br style=&quot;font-size: 16px&quot;&gt;&lt;span style=&quot;font-weight: normal&quot;&gt;There are 2 new Systems awaiting IMA Process Review.&lt;/span&gt;" style="text;html=1;strokeColor=none;fillColor=none;align=center;verticalAlign=middle;whiteSpace=wrap;rounded=0;shadow=0;sketch=0;fontSize=10;fontColor=#808080;fontStyle=1" parent="azvi52GzjCQ6X3Fhh1YJ-1" vertex="1">
          <mxGeometry x="923" y="-349" width="186" height="94" as="geometry" />
        </mxCell>
        <mxCell id="pGGozBY4UUzD068neh3i-18" value="Assigned item information displayed here" style="text;html=1;strokeColor=none;fillColor=none;align=center;verticalAlign=middle;whiteSpace=wrap;rounded=0;shadow=0;sketch=0;fontSize=10;" parent="azvi52GzjCQ6X3Fhh1YJ-1" vertex="1">
          <mxGeometry x="975" y="-158" width="128" height="56" as="geometry" />
        </mxCell>
        <mxCell id="pGGozBY4UUzD068neh3i-19" value="" style="shape=image;html=1;verticalAlign=top;verticalLabelPosition=bottom;labelBackgroundColor=#ffffff;imageAspect=0;aspect=fixed;image=https://cdn2.iconfinder.com/data/icons/ink-arrow/38/caret-down-128.png;shadow=0;sketch=0;strokeColor=#CCCCCC;fillColor=#808080;fontSize=10;align=left;rotation=90;fontColor=#808080;" parent="azvi52GzjCQ6X3Fhh1YJ-1" vertex="1">
          <mxGeometry x="912" y="-162" width="56" height="56" as="geometry" />
        </mxCell>
        <mxCell id="pGGozBY4UUzD068neh3i-20" value="" style="shape=image;html=1;verticalAlign=top;verticalLabelPosition=bottom;labelBackgroundColor=#ffffff;imageAspect=0;aspect=fixed;image=https://cdn2.iconfinder.com/data/icons/ink-arrow/38/caret-down-128.png;shadow=0;sketch=0;strokeColor=#CCCCCC;fillColor=#808080;fontSize=10;align=left;rotation=-90;fontColor=#808080;" parent="azvi52GzjCQ6X3Fhh1YJ-1" vertex="1">
          <mxGeometry x="1103" y="-158" width="56" height="56" as="geometry" />
        </mxCell>
        <mxCell id="oigSXnoBtepVkoSUKCBC-0" value="Search for objects across multiple datasets" style="text;verticalAlign=middle;spacing=0;spacingLeft=16;fontSize=10;resizeWidth=1;fontColor=#808080;" parent="azvi52GzjCQ6X3Fhh1YJ-1" vertex="1">
          <mxGeometry x="14" y="-446" width="272" height="42" as="geometry" />
        </mxCell>
        <mxCell id="J-A0fSPV6Zhit_qyxfAy-0" value="&amp;lt;Classification Here&amp;gt;" style="rounded=0;whiteSpace=wrap;html=1;shadow=0;sketch=0;fontSize=12;align=center;fillColor=#FFFF33;" parent="azvi52GzjCQ6X3Fhh1YJ-1" vertex="1">
          <mxGeometry x="14" y="-840" width="1185" height="20" as="geometry" />
        </mxCell>
        <mxCell id="WL8sN1JBYlcNTWuqBppv-0" value="" style="rounded=0;whiteSpace=wrap;html=1;fillColor=#3333FF;" parent="azvi52GzjCQ6X3Fhh1YJ-1" vertex="1">
          <mxGeometry x="38" y="890" width="1137" height="60" as="geometry" />
        </mxCell>
        <mxCell id="WL8sN1JBYlcNTWuqBppv-1" value="My Assigned Tasks" style="text;html=1;strokeColor=none;fillColor=none;align=center;verticalAlign=middle;whiteSpace=wrap;rounded=0;fontColor=#999999;fontStyle=1;fontSize=20;" parent="azvi52GzjCQ6X3Fhh1YJ-1" vertex="1">
          <mxGeometry x="330" y="963" width="206" height="20" as="geometry" />
        </mxCell>
        <mxCell id="WL8sN1JBYlcNTWuqBppv-2" value="My Group&#39;s Assigned Tasks" style="text;html=1;strokeColor=none;fillColor=none;align=center;verticalAlign=middle;whiteSpace=wrap;rounded=0;fontStyle=1;fontColor=#999999;fontSize=20;" parent="azvi52GzjCQ6X3Fhh1YJ-1" vertex="1">
          <mxGeometry x="335" y="1244" width="270" height="20" as="geometry" />
        </mxCell>
        <mxCell id="WL8sN1JBYlcNTWuqBppv-3" value="&lt;font style=&quot;font-size: 14px&quot;&gt;FEEDBACK&lt;/font&gt;" style="rounded=1;whiteSpace=wrap;html=1;fillColor=#FF8000;strokeColor=#FF8000;fontColor=#FFFFFF;" parent="azvi52GzjCQ6X3Fhh1YJ-1" vertex="1">
          <mxGeometry x="1040" y="901.5" width="120" height="40" as="geometry" />
        </mxCell>
        <mxCell id="WL8sN1JBYlcNTWuqBppv-4" value="" style="shape=image;html=1;verticalAlign=top;verticalLabelPosition=bottom;labelBackgroundColor=#ffffff;imageAspect=0;aspect=fixed;image=https://cdn3.iconfinder.com/data/icons/social-media-2125/78/bell-128.png;strokeColor=#FF8000;fillColor=#FF8000;fontColor=#FFFFFF;" parent="azvi52GzjCQ6X3Fhh1YJ-1" vertex="1">
          <mxGeometry x="978" y="901.5" width="37" height="37" as="geometry" />
        </mxCell>
        <mxCell id="WL8sN1JBYlcNTWuqBppv-5" value="" style="fillColor=#f5f5f5;strokeColor=#666666;gradientColor=#b3b3b3;" parent="azvi52GzjCQ6X3Fhh1YJ-1" vertex="1">
          <mxGeometry x="399" y="1686" width="30" height="100" as="geometry" />
        </mxCell>
        <mxCell id="WL8sN1JBYlcNTWuqBppv-6" value="" style="shape=mxgraph.arrows2.arrow;dy=0.4;dx=16;notch=0;direction=north;fillColor=#f5f5f5;strokeColor=#666666;gradientColor=#b3b3b3;" parent="WL8sN1JBYlcNTWuqBppv-5" vertex="1">
          <mxGeometry x="3" y="30" width="24" height="70" as="geometry" />
        </mxCell>
        <mxCell id="WL8sN1JBYlcNTWuqBppv-7" value="Label" style="text;html=1;align=center;verticalAlign=middle;whiteSpace=wrap;fontSize=10;gradientColor=#b3b3b3;fillColor=#f5f5f5;strokeColor=#666666;" parent="WL8sN1JBYlcNTWuqBppv-5" vertex="1">
          <mxGeometry width="30" height="20" as="geometry" />
        </mxCell>
        <mxCell id="WL8sN1JBYlcNTWuqBppv-8" value="" style="fillColor=#f5f5f5;strokeColor=#666666;gradientColor=#b3b3b3;" parent="azvi52GzjCQ6X3Fhh1YJ-1" vertex="1">
          <mxGeometry x="434" y="1666" width="30" height="120" as="geometry" />
        </mxCell>
        <mxCell id="WL8sN1JBYlcNTWuqBppv-9" value="" style="shape=mxgraph.arrows2.arrow;dy=0.4;dx=16;notch=0;direction=south;fillColor=#f5f5f5;strokeColor=#666666;gradientColor=#b3b3b3;" parent="WL8sN1JBYlcNTWuqBppv-8" vertex="1">
          <mxGeometry x="3" width="24" height="80" as="geometry" />
        </mxCell>
        <mxCell id="WL8sN1JBYlcNTWuqBppv-10" value="Label" style="text;html=1;align=center;verticalAlign=middle;whiteSpace=wrap;fontSize=10;gradientColor=#b3b3b3;fillColor=#f5f5f5;strokeColor=#666666;" parent="WL8sN1JBYlcNTWuqBppv-8" vertex="1">
          <mxGeometry width="30" height="20" as="geometry" />
        </mxCell>
        <mxCell id="WL8sN1JBYlcNTWuqBppv-11" value="" style="fillColor=#f5f5f5;strokeColor=#666666;gradientColor=#b3b3b3;" parent="azvi52GzjCQ6X3Fhh1YJ-1" vertex="1">
          <mxGeometry x="469" y="1656" width="30" height="130" as="geometry" />
        </mxCell>
        <mxCell id="WL8sN1JBYlcNTWuqBppv-12" value="" style="shape=mxgraph.arrows2.arrow;dy=0.4;dx=16;notch=0;direction=north;fillColor=#f5f5f5;strokeColor=#666666;gradientColor=#b3b3b3;" parent="WL8sN1JBYlcNTWuqBppv-11" vertex="1">
          <mxGeometry x="3" y="80" width="24" height="50" as="geometry" />
        </mxCell>
        <mxCell id="WL8sN1JBYlcNTWuqBppv-13" value="Label" style="text;html=1;align=center;verticalAlign=middle;whiteSpace=wrap;fontSize=10;gradientColor=#b3b3b3;fillColor=#f5f5f5;strokeColor=#666666;" parent="WL8sN1JBYlcNTWuqBppv-11" vertex="1">
          <mxGeometry width="30" height="20" as="geometry" />
        </mxCell>
        <mxCell id="WL8sN1JBYlcNTWuqBppv-14" value="" style="fillColor=#f5f5f5;strokeColor=#666666;gradientColor=#b3b3b3;" parent="azvi52GzjCQ6X3Fhh1YJ-1" vertex="1">
          <mxGeometry x="504" y="1706" width="30" height="80" as="geometry" />
        </mxCell>
        <mxCell id="WL8sN1JBYlcNTWuqBppv-15" value="" style="shape=mxgraph.arrows2.arrow;dy=0.4;dx=16;notch=0;direction=south;fillColor=#f5f5f5;strokeColor=#666666;gradientColor=#b3b3b3;" parent="WL8sN1JBYlcNTWuqBppv-14" vertex="1">
          <mxGeometry x="3" width="24" height="30" as="geometry" />
        </mxCell>
        <mxCell id="WL8sN1JBYlcNTWuqBppv-16" value="Label" style="text;html=1;align=center;verticalAlign=middle;whiteSpace=wrap;fontSize=10;gradientColor=#b3b3b3;fillColor=#f5f5f5;strokeColor=#666666;" parent="WL8sN1JBYlcNTWuqBppv-14" vertex="1">
          <mxGeometry width="30" height="20" as="geometry" />
        </mxCell>
        <mxCell id="WL8sN1JBYlcNTWuqBppv-17" value="" style="fillColor=#f5f5f5;strokeColor=#666666;gradientColor=#b3b3b3;" parent="azvi52GzjCQ6X3Fhh1YJ-1" vertex="1">
          <mxGeometry x="539" y="1716" width="30" height="70" as="geometry" />
        </mxCell>
        <mxCell id="WL8sN1JBYlcNTWuqBppv-18" value="" style="shape=mxgraph.arrows2.arrow;dy=0.4;dx=16;notch=0;direction=north;fillColor=#f5f5f5;strokeColor=#666666;gradientColor=#b3b3b3;" parent="WL8sN1JBYlcNTWuqBppv-17" vertex="1">
          <mxGeometry x="3" y="10" width="24" height="60" as="geometry" />
        </mxCell>
        <mxCell id="WL8sN1JBYlcNTWuqBppv-19" value="Label" style="text;html=1;align=center;verticalAlign=middle;whiteSpace=wrap;fontSize=10;gradientColor=#b3b3b3;fillColor=#f5f5f5;strokeColor=#666666;" parent="WL8sN1JBYlcNTWuqBppv-17" vertex="1">
          <mxGeometry width="30" height="20" as="geometry" />
        </mxCell>
        <mxCell id="WL8sN1JBYlcNTWuqBppv-20" value="" style="html=1;verticalLabelPosition=bottom;align=center;labelBackgroundColor=#ffffff;verticalAlign=top;strokeWidth=2;strokeColor=#666666;shadow=0;dashed=0;shape=mxgraph.ios7.icons.pie_chart;fillColor=#f5f5f5;gradientColor=#b3b3b3;" parent="azvi52GzjCQ6X3Fhh1YJ-1" vertex="1">
          <mxGeometry x="672" y="1664" width="140" height="112" as="geometry" />
        </mxCell>
        <mxCell id="WL8sN1JBYlcNTWuqBppv-21" value="" style="shape=image;html=1;verticalAlign=top;verticalLabelPosition=bottom;labelBackgroundColor=#ffffff;imageAspect=0;aspect=fixed;image=https://cdn2.iconfinder.com/data/icons/ios-7-icons/50/line_chart-128.png;strokeColor=#FF8000;fillColor=#FF8000;fontColor=#FFFFFF;" parent="azvi52GzjCQ6X3Fhh1YJ-1" vertex="1">
          <mxGeometry x="954" y="1648" width="128" height="128" as="geometry" />
        </mxCell>
        <mxCell id="WL8sN1JBYlcNTWuqBppv-22" value="" style="shape=rect;strokeColor=#eeeeee;fillColor=#ffffff;shadow=1;whiteSpace=wrap;" parent="azvi52GzjCQ6X3Fhh1YJ-1" vertex="1">
          <mxGeometry x="38" y="960" width="272" height="827" as="geometry" />
        </mxCell>
        <mxCell id="WL8sN1JBYlcNTWuqBppv-23" value="Datasets" style="text;verticalAlign=middle;spacing=0;spacingLeft=16;fontSize=15;resizeWidth=1;fontStyle=1" parent="WL8sN1JBYlcNTWuqBppv-22" vertex="1">
          <mxGeometry width="272" height="42" relative="1" as="geometry" />
        </mxCell>
        <mxCell id="WL8sN1JBYlcNTWuqBppv-24" value="Create and manage datasets and the objects within them." style="text;verticalAlign=middle;spacing=0;spacingLeft=16;fontSize=10;resizeWidth=1;fontColor=#808080;whiteSpace=wrap;" parent="WL8sN1JBYlcNTWuqBppv-22" vertex="1">
          <mxGeometry width="192" height="42" relative="1" as="geometry">
            <mxPoint y="22" as="offset" />
          </mxGeometry>
        </mxCell>
        <mxCell id="WL8sN1JBYlcNTWuqBppv-25" value="Digitizations" style="text;verticalAlign=middle;spacing=0;spacingLeft=16;fontSize=15;resizeWidth=1;fontStyle=1" parent="WL8sN1JBYlcNTWuqBppv-22" vertex="1">
          <mxGeometry width="272" height="42" relative="1" as="geometry">
            <mxPoint y="71" as="offset" />
          </mxGeometry>
        </mxCell>
        <mxCell id="WL8sN1JBYlcNTWuqBppv-26" value="Bulk ingest of standard files in a defined format." style="text;verticalAlign=middle;spacing=0;spacingLeft=16;fontSize=10;resizeWidth=1;fontColor=#808080;" parent="WL8sN1JBYlcNTWuqBppv-22" vertex="1">
          <mxGeometry width="272" height="42" relative="1" as="geometry">
            <mxPoint y="91" as="offset" />
          </mxGeometry>
        </mxCell>
        <mxCell id="WL8sN1JBYlcNTWuqBppv-27" value="Holding Pen" style="text;verticalAlign=middle;spacing=0;spacingLeft=16;fontSize=15;resizeWidth=1;fontStyle=1" parent="WL8sN1JBYlcNTWuqBppv-22" vertex="1">
          <mxGeometry width="272" height="42" relative="1" as="geometry">
            <mxPoint y="128" as="offset" />
          </mxGeometry>
        </mxCell>
        <mxCell id="WL8sN1JBYlcNTWuqBppv-28" value="Secure, short term storage for objects" style="text;verticalAlign=middle;spacing=0;spacingLeft=16;fontSize=10;resizeWidth=1;fontColor=#808080;" parent="WL8sN1JBYlcNTWuqBppv-22" vertex="1">
          <mxGeometry width="272" height="42" relative="1" as="geometry">
            <mxPoint y="146" as="offset" />
          </mxGeometry>
        </mxCell>
        <mxCell id="WL8sN1JBYlcNTWuqBppv-29" value="IMA Process" style="text;verticalAlign=middle;spacing=0;spacingLeft=16;fontSize=15;resizeWidth=1;fontStyle=1" parent="WL8sN1JBYlcNTWuqBppv-22" vertex="1">
          <mxGeometry width="272" height="42" relative="1" as="geometry">
            <mxPoint y="182" as="offset" />
          </mxGeometry>
        </mxCell>
        <mxCell id="WL8sN1JBYlcNTWuqBppv-30" value="Guide systems through the IMA Processs" style="text;verticalAlign=middle;spacing=0;spacingLeft=16;fontSize=10;resizeWidth=1;fontColor=#808080;" parent="WL8sN1JBYlcNTWuqBppv-22" vertex="1">
          <mxGeometry width="272" height="42" relative="1" as="geometry">
            <mxPoint y="199" as="offset" />
          </mxGeometry>
        </mxCell>
        <mxCell id="WL8sN1JBYlcNTWuqBppv-31" value="Metrics" style="text;verticalAlign=middle;spacing=0;spacingLeft=16;fontSize=15;resizeWidth=1;fillColor=none;fontStyle=1" parent="WL8sN1JBYlcNTWuqBppv-22" vertex="1">
          <mxGeometry width="272" height="42" relative="1" as="geometry">
            <mxPoint y="234" as="offset" />
          </mxGeometry>
        </mxCell>
        <mxCell id="WL8sN1JBYlcNTWuqBppv-32" value="View various records management metrics" style="text;verticalAlign=middle;spacing=0;spacingLeft=16;fontSize=10;resizeWidth=1;fontColor=#808080;" parent="WL8sN1JBYlcNTWuqBppv-22" vertex="1">
          <mxGeometry width="272" height="42" relative="1" as="geometry">
            <mxPoint y="252" as="offset" />
          </mxGeometry>
        </mxCell>
        <mxCell id="WL8sN1JBYlcNTWuqBppv-33" value="" style="shape=rect;strokeColor=none;fillColor=#dddddd;" parent="WL8sN1JBYlcNTWuqBppv-22" vertex="1">
          <mxGeometry x="1" width="4" height="190" relative="1" as="geometry">
            <mxPoint x="-4" y="125" as="offset" />
          </mxGeometry>
        </mxCell>
        <mxCell id="WL8sN1JBYlcNTWuqBppv-34" value="Search" style="text;verticalAlign=middle;spacing=0;spacingLeft=16;fontSize=15;resizeWidth=1;fontStyle=1" parent="WL8sN1JBYlcNTWuqBppv-22" vertex="1">
          <mxGeometry y="261.99651162790775" width="272" height="73.43340380549682" as="geometry" />
        </mxCell>
        <mxCell id="WL8sN1JBYlcNTWuqBppv-35" value="Search for objects across multiple datasets" style="text;verticalAlign=middle;spacing=0;spacingLeft=16;fontSize=10;resizeWidth=1;fontColor=#808080;" parent="WL8sN1JBYlcNTWuqBppv-22" vertex="1">
          <mxGeometry y="302" width="272" height="42" as="geometry" />
        </mxCell>
        <mxCell id="WL8sN1JBYlcNTWuqBppv-36" value="&lt;font style=&quot;font-size: 39px&quot;&gt;IMA Process Assignment(s)&lt;/font&gt;" style="html=1;shadow=1;dashed=0;strokeWidth=1;whiteSpace=wrap;align=center;verticalAlign=middle;fontStyle=0;fontSize=40;sketch=0;strokeColor=#CCCCCC;" parent="azvi52GzjCQ6X3Fhh1YJ-1" vertex="1">
          <mxGeometry x="335" y="990" width="800" height="208" as="geometry" />
        </mxCell>
        <mxCell id="WL8sN1JBYlcNTWuqBppv-37" value="" style="html=1;verticalLabelPosition=bottom;labelBackgroundColor=#ffffff;verticalAlign=top;shadow=0;dashed=0;strokeWidth=4;shape=mxgraph.ios7.misc.more;strokeColor=#a0a0a0;" parent="WL8sN1JBYlcNTWuqBppv-36" vertex="1">
          <mxGeometry x="1" y="0.5" width="7" height="14" relative="1" as="geometry">
            <mxPoint x="-50" y="-7" as="offset" />
          </mxGeometry>
        </mxCell>
        <mxCell id="WL8sN1JBYlcNTWuqBppv-38" value="" style="flipH=1;html=1;verticalLabelPosition=bottom;labelBackgroundColor=#ffffff;verticalAlign=top;shadow=0;dashed=0;strokeWidth=4;shape=mxgraph.ios7.misc.more;strokeColor=#a0a0a0;" parent="WL8sN1JBYlcNTWuqBppv-36" vertex="1">
          <mxGeometry y="0.5" width="7" height="14" relative="1" as="geometry">
            <mxPoint x="43" y="-7" as="offset" />
          </mxGeometry>
        </mxCell>
        <mxCell id="WL8sN1JBYlcNTWuqBppv-39" value="" style="html=1;shadow=0;strokeColor=none;fillColor=#BBBBBB;" parent="WL8sN1JBYlcNTWuqBppv-36" vertex="1">
          <mxGeometry x="0.5" y="1" width="30" height="4" relative="1" as="geometry">
            <mxPoint x="-50" y="-20" as="offset" />
          </mxGeometry>
        </mxCell>
        <mxCell id="WL8sN1JBYlcNTWuqBppv-40" value="" style="html=1;shadow=0;strokeColor=none;fillColor=#BBBBBB;" parent="WL8sN1JBYlcNTWuqBppv-36" vertex="1">
          <mxGeometry x="0.5" y="1" width="30" height="4" relative="1" as="geometry">
            <mxPoint x="-15" y="-20" as="offset" />
          </mxGeometry>
        </mxCell>
        <mxCell id="WL8sN1JBYlcNTWuqBppv-41" value="" style="html=1;shadow=0;strokeColor=none;fillColor=#BBBBBB;" parent="WL8sN1JBYlcNTWuqBppv-36" vertex="1">
          <mxGeometry x="0.5" y="1" width="30" height="4" relative="1" as="geometry">
            <mxPoint x="20" y="-20" as="offset" />
          </mxGeometry>
        </mxCell>
        <mxCell id="WL8sN1JBYlcNTWuqBppv-42" value="&lt;font size=&quot;3&quot;&gt;&lt;b&gt;There are 2 new Systems awaiting IMA Process Review&lt;/b&gt;&lt;/font&gt;&lt;br style=&quot;font-size: 14px&quot;&gt;" style="html=1;shadow=0;strokeColor=none;fillColor=none;resizeWidth=1;fontColor=#FFFFFF;fontSize=14;" parent="WL8sN1JBYlcNTWuqBppv-36" vertex="1">
          <mxGeometry y="1" width="800" height="74" relative="1" as="geometry">
            <mxPoint x="3" y="-103" as="offset" />
          </mxGeometry>
        </mxCell>
        <mxCell id="WL8sN1JBYlcNTWuqBppv-43" value="Go To IMA" style="rounded=0;whiteSpace=wrap;html=1;fontColor=#FFFFFF;fillColor=#808080;strokeColor=#808080;" parent="WL8sN1JBYlcNTWuqBppv-36" vertex="1">
          <mxGeometry x="336" y="152" width="120" height="30" as="geometry" />
        </mxCell>
        <mxCell id="WL8sN1JBYlcNTWuqBppv-44" value="Metrics Summary" style="text;html=1;strokeColor=none;fillColor=none;align=center;verticalAlign=middle;whiteSpace=wrap;rounded=0;fontStyle=1;fontColor=#999999;fontSize=20;" parent="azvi52GzjCQ6X3Fhh1YJ-1" vertex="1">
          <mxGeometry x="335" y="1616" width="180" height="20" as="geometry" />
        </mxCell>
        <mxCell id="WL8sN1JBYlcNTWuqBppv-45" value="" style="whiteSpace=wrap;html=1;shape=mxgraph.basic.octagon2;align=center;verticalAlign=middle;dx=12;shadow=0;sketch=0;fontSize=20;fontColor=#808080;fillColor=#FF8000;strokeColor=#FF8000;" parent="azvi52GzjCQ6X3Fhh1YJ-1" vertex="1">
          <mxGeometry x="48" y="896.5" width="56" height="42" as="geometry" />
        </mxCell>
        <mxCell id="WL8sN1JBYlcNTWuqBppv-46" value="Eva" style="text;html=1;strokeColor=none;fillColor=none;align=center;verticalAlign=middle;whiteSpace=wrap;rounded=0;shadow=0;sketch=0;fontSize=20;fontColor=#FFFFFF;fontStyle=1" parent="azvi52GzjCQ6X3Fhh1YJ-1" vertex="1">
          <mxGeometry x="114" y="910" width="40" height="20" as="geometry" />
        </mxCell>
        <mxCell id="WL8sN1JBYlcNTWuqBppv-47" value="" style="html=1;verticalLabelPosition=bottom;align=center;labelBackgroundColor=#ffffff;verticalAlign=top;strokeWidth=2;shadow=0;dashed=0;shape=mxgraph.ios7.icons.user;sketch=0;fontSize=20;fontColor=#FFFFFF;fillColor=#FFFFFF;" parent="azvi52GzjCQ6X3Fhh1YJ-1" vertex="1">
          <mxGeometry x="840.5" y="905" width="30" height="30" as="geometry" />
        </mxCell>
        <mxCell id="WL8sN1JBYlcNTWuqBppv-48" value="John Doe" style="text;html=1;strokeColor=none;fillColor=none;align=center;verticalAlign=middle;whiteSpace=wrap;rounded=0;shadow=0;sketch=0;fontSize=19;fontColor=#FFFFFF;" parent="azvi52GzjCQ6X3Fhh1YJ-1" vertex="1">
          <mxGeometry x="884" y="910" width="94" height="20" as="geometry" />
        </mxCell>
        <mxCell id="WL8sN1JBYlcNTWuqBppv-49" value="&lt;font style=&quot;font-size: 39px&quot;&gt;IMA Process Assignment(s)&lt;/font&gt;" style="html=1;shadow=1;dashed=0;strokeWidth=1;whiteSpace=wrap;align=center;verticalAlign=middle;fontStyle=0;fontSize=40;sketch=0;strokeColor=#CCCCCC;" parent="azvi52GzjCQ6X3Fhh1YJ-1" vertex="1">
          <mxGeometry x="335" y="1285" width="800" height="208" as="geometry" />
        </mxCell>
        <mxCell id="WL8sN1JBYlcNTWuqBppv-50" value="" style="html=1;verticalLabelPosition=bottom;labelBackgroundColor=#ffffff;verticalAlign=top;shadow=0;dashed=0;strokeWidth=4;shape=mxgraph.ios7.misc.more;strokeColor=#a0a0a0;" parent="WL8sN1JBYlcNTWuqBppv-49" vertex="1">
          <mxGeometry x="1" y="0.5" width="7" height="14" relative="1" as="geometry">
            <mxPoint x="-50" y="-7" as="offset" />
          </mxGeometry>
        </mxCell>
        <mxCell id="WL8sN1JBYlcNTWuqBppv-51" value="" style="flipH=1;html=1;verticalLabelPosition=bottom;labelBackgroundColor=#ffffff;verticalAlign=top;shadow=0;dashed=0;strokeWidth=4;shape=mxgraph.ios7.misc.more;strokeColor=#a0a0a0;" parent="WL8sN1JBYlcNTWuqBppv-49" vertex="1">
          <mxGeometry y="0.5" width="7" height="14" relative="1" as="geometry">
            <mxPoint x="43" y="-7" as="offset" />
          </mxGeometry>
        </mxCell>
        <mxCell id="WL8sN1JBYlcNTWuqBppv-52" value="" style="html=1;shadow=0;strokeColor=none;fillColor=#BBBBBB;" parent="WL8sN1JBYlcNTWuqBppv-49" vertex="1">
          <mxGeometry x="0.5" y="1" width="30" height="4" relative="1" as="geometry">
            <mxPoint x="-50" y="-20" as="offset" />
          </mxGeometry>
        </mxCell>
        <mxCell id="WL8sN1JBYlcNTWuqBppv-53" value="" style="html=1;shadow=0;strokeColor=none;fillColor=#BBBBBB;" parent="WL8sN1JBYlcNTWuqBppv-49" vertex="1">
          <mxGeometry x="0.5" y="1" width="30" height="4" relative="1" as="geometry">
            <mxPoint x="-15" y="-20" as="offset" />
          </mxGeometry>
        </mxCell>
        <mxCell id="WL8sN1JBYlcNTWuqBppv-54" value="" style="html=1;shadow=0;strokeColor=none;fillColor=#BBBBBB;" parent="WL8sN1JBYlcNTWuqBppv-49" vertex="1">
          <mxGeometry x="0.5" y="1" width="30" height="4" relative="1" as="geometry">
            <mxPoint x="20" y="-20" as="offset" />
          </mxGeometry>
        </mxCell>
        <mxCell id="WL8sN1JBYlcNTWuqBppv-55" value="&lt;font size=&quot;3&quot;&gt;&lt;b&gt;There are 2 new Systems awaiting IMA Process Review&lt;/b&gt;&lt;/font&gt;&lt;br style=&quot;font-size: 14px&quot;&gt;" style="html=1;shadow=0;strokeColor=none;fillColor=none;resizeWidth=1;fontColor=#FFFFFF;fontSize=14;" parent="WL8sN1JBYlcNTWuqBppv-49" vertex="1">
          <mxGeometry y="1" width="800" height="74" relative="1" as="geometry">
            <mxPoint x="3" y="-103" as="offset" />
          </mxGeometry>
        </mxCell>
        <mxCell id="WL8sN1JBYlcNTWuqBppv-56" value="Go To IMA" style="rounded=0;whiteSpace=wrap;html=1;fontColor=#FFFFFF;fillColor=#808080;strokeColor=#808080;" parent="WL8sN1JBYlcNTWuqBppv-49" vertex="1">
          <mxGeometry x="336" y="152" width="120" height="30" as="geometry" />
        </mxCell>
        <mxCell id="WL8sN1JBYlcNTWuqBppv-57" value="&amp;lt;Classification Here&amp;gt;" style="rounded=0;whiteSpace=wrap;html=1;shadow=0;sketch=0;fontSize=12;align=center;fillColor=#FFFF33;" parent="azvi52GzjCQ6X3Fhh1YJ-1" vertex="1">
          <mxGeometry x="38" y="870" width="1138" height="20" as="geometry" />
        </mxCell>
        <mxCell id="lssQ_plv2i8sTGVMPvXq-0" value="" style="rounded=0;whiteSpace=wrap;html=1;fillColor=#3333FF;" parent="azvi52GzjCQ6X3Fhh1YJ-1" vertex="1">
          <mxGeometry x="50" y="2309" width="1171" height="60" as="geometry" />
        </mxCell>
        <mxCell id="lssQ_plv2i8sTGVMPvXq-1" value="" style="rounded=0;whiteSpace=wrap;html=1;align=left;shadow=0;" parent="azvi52GzjCQ6X3Fhh1YJ-1" vertex="1">
          <mxGeometry x="369.5" y="2812" width="199" height="163" as="geometry" />
        </mxCell>
        <mxCell id="lssQ_plv2i8sTGVMPvXq-2" value="My Assigned Tasks" style="text;html=1;strokeColor=none;fillColor=none;align=center;verticalAlign=middle;whiteSpace=wrap;rounded=0;fontColor=#999999;fontStyle=1;fontSize=20;" parent="azvi52GzjCQ6X3Fhh1YJ-1" vertex="1">
          <mxGeometry x="342" y="2382" width="206" height="20" as="geometry" />
        </mxCell>
        <mxCell id="lssQ_plv2i8sTGVMPvXq-3" value="My Group&#39;s Assigned Tasks" style="text;html=1;strokeColor=none;fillColor=none;align=center;verticalAlign=middle;whiteSpace=wrap;rounded=0;fontStyle=1;fontColor=#999999;fontSize=20;" parent="azvi52GzjCQ6X3Fhh1YJ-1" vertex="1">
          <mxGeometry x="347" y="2725" width="270" height="20" as="geometry" />
        </mxCell>
        <mxCell id="lssQ_plv2i8sTGVMPvXq-4" value="&lt;font style=&quot;font-size: 14px&quot;&gt;FEEDBACK&lt;/font&gt;" style="rounded=1;whiteSpace=wrap;html=1;fillColor=#FF8000;strokeColor=#FF8000;fontColor=#FFFFFF;" parent="azvi52GzjCQ6X3Fhh1YJ-1" vertex="1">
          <mxGeometry x="1086" y="2319" width="120" height="40" as="geometry" />
        </mxCell>
        <mxCell id="lssQ_plv2i8sTGVMPvXq-5" value="" style="shape=image;html=1;verticalAlign=top;verticalLabelPosition=bottom;labelBackgroundColor=#ffffff;imageAspect=0;aspect=fixed;image=https://cdn3.iconfinder.com/data/icons/social-media-2125/78/bell-128.png;strokeColor=#FF8000;fillColor=#FF8000;fontColor=#FFFFFF;" parent="azvi52GzjCQ6X3Fhh1YJ-1" vertex="1">
          <mxGeometry x="1033.5" y="2323" width="33" height="33" as="geometry" />
        </mxCell>
        <mxCell id="lssQ_plv2i8sTGVMPvXq-6" value="" style="fillColor=#f5f5f5;strokeColor=#666666;gradientColor=#b3b3b3;" parent="azvi52GzjCQ6X3Fhh1YJ-1" vertex="1">
          <mxGeometry x="407" y="3161" width="30" height="100" as="geometry" />
        </mxCell>
        <mxCell id="lssQ_plv2i8sTGVMPvXq-7" value="" style="shape=mxgraph.arrows2.arrow;dy=0.4;dx=16;notch=0;direction=north;fillColor=#f5f5f5;strokeColor=#666666;gradientColor=#b3b3b3;" parent="lssQ_plv2i8sTGVMPvXq-6" vertex="1">
          <mxGeometry x="3" y="30" width="24" height="70" as="geometry" />
        </mxCell>
        <mxCell id="lssQ_plv2i8sTGVMPvXq-8" value="Label" style="text;html=1;align=center;verticalAlign=middle;whiteSpace=wrap;fontSize=10;gradientColor=#b3b3b3;fillColor=#f5f5f5;strokeColor=#666666;" parent="lssQ_plv2i8sTGVMPvXq-6" vertex="1">
          <mxGeometry width="30" height="20" as="geometry" />
        </mxCell>
        <mxCell id="lssQ_plv2i8sTGVMPvXq-9" value="" style="fillColor=#f5f5f5;strokeColor=#666666;gradientColor=#b3b3b3;" parent="azvi52GzjCQ6X3Fhh1YJ-1" vertex="1">
          <mxGeometry x="442" y="3141" width="30" height="120" as="geometry" />
        </mxCell>
        <mxCell id="lssQ_plv2i8sTGVMPvXq-10" value="" style="shape=mxgraph.arrows2.arrow;dy=0.4;dx=16;notch=0;direction=south;fillColor=#f5f5f5;strokeColor=#666666;gradientColor=#b3b3b3;" parent="lssQ_plv2i8sTGVMPvXq-9" vertex="1">
          <mxGeometry x="3" width="24" height="80" as="geometry" />
        </mxCell>
        <mxCell id="lssQ_plv2i8sTGVMPvXq-11" value="Label" style="text;html=1;align=center;verticalAlign=middle;whiteSpace=wrap;fontSize=10;gradientColor=#b3b3b3;fillColor=#f5f5f5;strokeColor=#666666;" parent="lssQ_plv2i8sTGVMPvXq-9" vertex="1">
          <mxGeometry width="30" height="20" as="geometry" />
        </mxCell>
        <mxCell id="lssQ_plv2i8sTGVMPvXq-12" value="" style="fillColor=#f5f5f5;strokeColor=#666666;gradientColor=#b3b3b3;" parent="azvi52GzjCQ6X3Fhh1YJ-1" vertex="1">
          <mxGeometry x="477" y="3131" width="30" height="130" as="geometry" />
        </mxCell>
        <mxCell id="lssQ_plv2i8sTGVMPvXq-13" value="" style="shape=mxgraph.arrows2.arrow;dy=0.4;dx=16;notch=0;direction=north;fillColor=#f5f5f5;strokeColor=#666666;gradientColor=#b3b3b3;" parent="lssQ_plv2i8sTGVMPvXq-12" vertex="1">
          <mxGeometry x="3" y="80" width="24" height="50" as="geometry" />
        </mxCell>
        <mxCell id="lssQ_plv2i8sTGVMPvXq-14" value="Label" style="text;html=1;align=center;verticalAlign=middle;whiteSpace=wrap;fontSize=10;gradientColor=#b3b3b3;fillColor=#f5f5f5;strokeColor=#666666;" parent="lssQ_plv2i8sTGVMPvXq-12" vertex="1">
          <mxGeometry width="30" height="20" as="geometry" />
        </mxCell>
        <mxCell id="lssQ_plv2i8sTGVMPvXq-15" value="" style="fillColor=#f5f5f5;strokeColor=#666666;gradientColor=#b3b3b3;" parent="azvi52GzjCQ6X3Fhh1YJ-1" vertex="1">
          <mxGeometry x="512" y="3181" width="30" height="80" as="geometry" />
        </mxCell>
        <mxCell id="lssQ_plv2i8sTGVMPvXq-16" value="" style="shape=mxgraph.arrows2.arrow;dy=0.4;dx=16;notch=0;direction=south;fillColor=#f5f5f5;strokeColor=#666666;gradientColor=#b3b3b3;" parent="lssQ_plv2i8sTGVMPvXq-15" vertex="1">
          <mxGeometry x="3" width="24" height="30" as="geometry" />
        </mxCell>
        <mxCell id="lssQ_plv2i8sTGVMPvXq-17" value="Label" style="text;html=1;align=center;verticalAlign=middle;whiteSpace=wrap;fontSize=10;gradientColor=#b3b3b3;fillColor=#f5f5f5;strokeColor=#666666;" parent="lssQ_plv2i8sTGVMPvXq-15" vertex="1">
          <mxGeometry width="30" height="20" as="geometry" />
        </mxCell>
        <mxCell id="lssQ_plv2i8sTGVMPvXq-18" value="" style="fillColor=#f5f5f5;strokeColor=#666666;gradientColor=#b3b3b3;" parent="azvi52GzjCQ6X3Fhh1YJ-1" vertex="1">
          <mxGeometry x="547" y="3191" width="30" height="70" as="geometry" />
        </mxCell>
        <mxCell id="lssQ_plv2i8sTGVMPvXq-19" value="" style="shape=mxgraph.arrows2.arrow;dy=0.4;dx=16;notch=0;direction=north;fillColor=#f5f5f5;strokeColor=#666666;gradientColor=#b3b3b3;" parent="lssQ_plv2i8sTGVMPvXq-18" vertex="1">
          <mxGeometry x="3" y="10" width="24" height="60" as="geometry" />
        </mxCell>
        <mxCell id="lssQ_plv2i8sTGVMPvXq-20" value="Label" style="text;html=1;align=center;verticalAlign=middle;whiteSpace=wrap;fontSize=10;gradientColor=#b3b3b3;fillColor=#f5f5f5;strokeColor=#666666;" parent="lssQ_plv2i8sTGVMPvXq-18" vertex="1">
          <mxGeometry width="30" height="20" as="geometry" />
        </mxCell>
        <mxCell id="lssQ_plv2i8sTGVMPvXq-21" value="" style="html=1;verticalLabelPosition=bottom;align=center;labelBackgroundColor=#ffffff;verticalAlign=top;strokeWidth=2;strokeColor=#666666;shadow=0;dashed=0;shape=mxgraph.ios7.icons.pie_chart;fillColor=#f5f5f5;gradientColor=#b3b3b3;" parent="azvi52GzjCQ6X3Fhh1YJ-1" vertex="1">
          <mxGeometry x="678" y="3159" width="140" height="112" as="geometry" />
        </mxCell>
        <mxCell id="lssQ_plv2i8sTGVMPvXq-22" value="" style="shape=image;html=1;verticalAlign=top;verticalLabelPosition=bottom;labelBackgroundColor=#ffffff;imageAspect=0;aspect=fixed;image=https://cdn2.iconfinder.com/data/icons/ios-7-icons/50/line_chart-128.png;strokeColor=#FF8000;fillColor=#FF8000;fontColor=#FFFFFF;" parent="azvi52GzjCQ6X3Fhh1YJ-1" vertex="1">
          <mxGeometry x="958" y="3143" width="128" height="128" as="geometry" />
        </mxCell>
        <mxCell id="lssQ_plv2i8sTGVMPvXq-23" value="" style="rounded=0;whiteSpace=wrap;html=1;align=left;shadow=0;" parent="azvi52GzjCQ6X3Fhh1YJ-1" vertex="1">
          <mxGeometry x="926.5" y="2813" width="193" height="163" as="geometry" />
        </mxCell>
        <mxCell id="lssQ_plv2i8sTGVMPvXq-24" value="" style="rounded=0;whiteSpace=wrap;html=1;align=left;shadow=1;" parent="azvi52GzjCQ6X3Fhh1YJ-1" vertex="1">
          <mxGeometry x="559.5" y="2779" width="366" height="268" as="geometry" />
        </mxCell>
        <mxCell id="lssQ_plv2i8sTGVMPvXq-25" value="Go To" style="rounded=0;whiteSpace=wrap;html=1;fontColor=#FFFFFF;fillColor=#3333FF;strokeColor=#3333FF;" parent="azvi52GzjCQ6X3Fhh1YJ-1" vertex="1">
          <mxGeometry x="691" y="2963" width="120" height="30" as="geometry" />
        </mxCell>
        <mxCell id="lssQ_plv2i8sTGVMPvXq-26" value="" style="shape=rect;strokeColor=#eeeeee;fillColor=#ffffff;shadow=1;whiteSpace=wrap;" parent="azvi52GzjCQ6X3Fhh1YJ-1" vertex="1">
          <mxGeometry x="50" y="2379" width="272" height="881" as="geometry" />
        </mxCell>
        <mxCell id="lssQ_plv2i8sTGVMPvXq-27" value="Datasets" style="text;verticalAlign=middle;spacing=0;spacingLeft=16;fontSize=15;resizeWidth=1;fontStyle=1" parent="lssQ_plv2i8sTGVMPvXq-26" vertex="1">
          <mxGeometry width="272" height="42" relative="1" as="geometry" />
        </mxCell>
        <mxCell id="lssQ_plv2i8sTGVMPvXq-28" value="Create and manage datasets and the objects within them." style="text;verticalAlign=middle;spacing=0;spacingLeft=16;fontSize=10;resizeWidth=1;fontColor=#808080;whiteSpace=wrap;" parent="lssQ_plv2i8sTGVMPvXq-26" vertex="1">
          <mxGeometry width="192" height="42" relative="1" as="geometry">
            <mxPoint y="22" as="offset" />
          </mxGeometry>
        </mxCell>
        <mxCell id="lssQ_plv2i8sTGVMPvXq-29" value="Digitizations" style="text;verticalAlign=middle;spacing=0;spacingLeft=16;fontSize=15;resizeWidth=1;fontStyle=1" parent="lssQ_plv2i8sTGVMPvXq-26" vertex="1">
          <mxGeometry width="272" height="42" relative="1" as="geometry">
            <mxPoint y="71" as="offset" />
          </mxGeometry>
        </mxCell>
        <mxCell id="lssQ_plv2i8sTGVMPvXq-30" value="Bulk ingest of standard files in a defined format." style="text;verticalAlign=middle;spacing=0;spacingLeft=16;fontSize=10;resizeWidth=1;fontColor=#808080;" parent="lssQ_plv2i8sTGVMPvXq-26" vertex="1">
          <mxGeometry width="272" height="42" relative="1" as="geometry">
            <mxPoint y="91" as="offset" />
          </mxGeometry>
        </mxCell>
        <mxCell id="lssQ_plv2i8sTGVMPvXq-31" value="Holding Pen" style="text;verticalAlign=middle;spacing=0;spacingLeft=16;fontSize=15;resizeWidth=1;fontStyle=1" parent="lssQ_plv2i8sTGVMPvXq-26" vertex="1">
          <mxGeometry width="272" height="42" relative="1" as="geometry">
            <mxPoint y="128" as="offset" />
          </mxGeometry>
        </mxCell>
        <mxCell id="lssQ_plv2i8sTGVMPvXq-32" value="Secure, short term storage for objects" style="text;verticalAlign=middle;spacing=0;spacingLeft=16;fontSize=10;resizeWidth=1;fontColor=#808080;" parent="lssQ_plv2i8sTGVMPvXq-26" vertex="1">
          <mxGeometry width="272" height="42" relative="1" as="geometry">
            <mxPoint y="146" as="offset" />
          </mxGeometry>
        </mxCell>
        <mxCell id="lssQ_plv2i8sTGVMPvXq-33" value="IMA Process" style="text;verticalAlign=middle;spacing=0;spacingLeft=16;fontSize=15;resizeWidth=1;fontStyle=1" parent="lssQ_plv2i8sTGVMPvXq-26" vertex="1">
          <mxGeometry width="272" height="42" relative="1" as="geometry">
            <mxPoint y="182" as="offset" />
          </mxGeometry>
        </mxCell>
        <mxCell id="lssQ_plv2i8sTGVMPvXq-34" value="Guide systems through the IMA Processs" style="text;verticalAlign=middle;spacing=0;spacingLeft=16;fontSize=10;resizeWidth=1;fontColor=#808080;" parent="lssQ_plv2i8sTGVMPvXq-26" vertex="1">
          <mxGeometry width="272" height="42" relative="1" as="geometry">
            <mxPoint y="199" as="offset" />
          </mxGeometry>
        </mxCell>
        <mxCell id="lssQ_plv2i8sTGVMPvXq-35" value="Metrics" style="text;verticalAlign=middle;spacing=0;spacingLeft=16;fontSize=15;resizeWidth=1;fillColor=none;fontStyle=1" parent="lssQ_plv2i8sTGVMPvXq-26" vertex="1">
          <mxGeometry width="272" height="42" relative="1" as="geometry">
            <mxPoint y="234" as="offset" />
          </mxGeometry>
        </mxCell>
        <mxCell id="lssQ_plv2i8sTGVMPvXq-36" value="View various records management metrics" style="text;verticalAlign=middle;spacing=0;spacingLeft=16;fontSize=10;resizeWidth=1;fontColor=#808080;" parent="lssQ_plv2i8sTGVMPvXq-26" vertex="1">
          <mxGeometry width="272" height="42" relative="1" as="geometry">
            <mxPoint y="252" as="offset" />
          </mxGeometry>
        </mxCell>
        <mxCell id="lssQ_plv2i8sTGVMPvXq-37" value="" style="shape=rect;strokeColor=none;fillColor=#dddddd;" parent="lssQ_plv2i8sTGVMPvXq-26" vertex="1">
          <mxGeometry x="1" width="4" height="190" relative="1" as="geometry">
            <mxPoint x="-4" y="125" as="offset" />
          </mxGeometry>
        </mxCell>
        <mxCell id="lssQ_plv2i8sTGVMPvXq-38" value="Search" style="text;verticalAlign=middle;spacing=0;spacingLeft=16;fontSize=15;resizeWidth=1;fontStyle=1" parent="lssQ_plv2i8sTGVMPvXq-26" vertex="1">
          <mxGeometry y="261.00132062799173" width="272" height="78.22832980972515" as="geometry" />
        </mxCell>
        <mxCell id="lssQ_plv2i8sTGVMPvXq-39" value="" style="html=1;verticalLabelPosition=bottom;labelBackgroundColor=#ffffff;verticalAlign=top;shadow=0;dashed=0;strokeWidth=4;shape=mxgraph.ios7.misc.more;strokeColor=#a0a0a0;" parent="azvi52GzjCQ6X3Fhh1YJ-1" vertex="1">
          <mxGeometry x="1026.5" y="2881" width="7" height="14" as="geometry" />
        </mxCell>
        <mxCell id="lssQ_plv2i8sTGVMPvXq-40" value="" style="flipH=1;html=1;verticalLabelPosition=bottom;labelBackgroundColor=#ffffff;verticalAlign=top;shadow=0;dashed=0;strokeWidth=4;shape=mxgraph.ios7.misc.more;strokeColor=#a0a0a0;" parent="azvi52GzjCQ6X3Fhh1YJ-1" vertex="1">
          <mxGeometry x="414" y="2881" width="7" height="14" as="geometry" />
        </mxCell>
        <mxCell id="lssQ_plv2i8sTGVMPvXq-41" value="&lt;div&gt;&lt;font style=&quot;font-size: 20px&quot;&gt;IMA Process Assignment(s)&lt;/font&gt;&lt;/div&gt;&lt;br style=&quot;font-size: 16px&quot;&gt;&lt;span style=&quot;font-weight: normal&quot;&gt;There are 2 new Systems awaiting IMA Process Review.&lt;/span&gt;" style="text;html=1;strokeColor=none;fillColor=none;align=center;verticalAlign=middle;whiteSpace=wrap;rounded=0;shadow=0;sketch=0;fontSize=10;fontColor=#808080;fontStyle=1" parent="azvi52GzjCQ6X3Fhh1YJ-1" vertex="1">
          <mxGeometry x="584.5" y="2832" width="323" height="94" as="geometry" />
        </mxCell>
        <mxCell id="lssQ_plv2i8sTGVMPvXq-42" value="" style="rounded=0;whiteSpace=wrap;html=1;align=left;shadow=0;" parent="azvi52GzjCQ6X3Fhh1YJ-1" vertex="1">
          <mxGeometry x="371.5" y="2451" width="199" height="163" as="geometry" />
        </mxCell>
        <mxCell id="lssQ_plv2i8sTGVMPvXq-43" value="" style="rounded=0;whiteSpace=wrap;html=1;align=left;shadow=0;" parent="azvi52GzjCQ6X3Fhh1YJ-1" vertex="1">
          <mxGeometry x="928.5" y="2452" width="193" height="163" as="geometry" />
        </mxCell>
        <mxCell id="lssQ_plv2i8sTGVMPvXq-44" value="" style="rounded=0;whiteSpace=wrap;html=1;align=left;shadow=1;" parent="azvi52GzjCQ6X3Fhh1YJ-1" vertex="1">
          <mxGeometry x="561.5" y="2418" width="366" height="268" as="geometry" />
        </mxCell>
        <mxCell id="lssQ_plv2i8sTGVMPvXq-45" value="Go To" style="rounded=0;whiteSpace=wrap;html=1;fontColor=#FFFFFF;fillColor=#3333FF;strokeColor=#3333FF;" parent="azvi52GzjCQ6X3Fhh1YJ-1" vertex="1">
          <mxGeometry x="693" y="2602" width="120" height="30" as="geometry" />
        </mxCell>
        <mxCell id="lssQ_plv2i8sTGVMPvXq-46" value="" style="html=1;verticalLabelPosition=bottom;labelBackgroundColor=#ffffff;verticalAlign=top;shadow=0;dashed=0;strokeWidth=4;shape=mxgraph.ios7.misc.more;strokeColor=#a0a0a0;" parent="azvi52GzjCQ6X3Fhh1YJ-1" vertex="1">
          <mxGeometry x="1028.5" y="2520" width="7" height="14" as="geometry" />
        </mxCell>
        <mxCell id="lssQ_plv2i8sTGVMPvXq-47" value="" style="flipH=1;html=1;verticalLabelPosition=bottom;labelBackgroundColor=#ffffff;verticalAlign=top;shadow=0;dashed=0;strokeWidth=4;shape=mxgraph.ios7.misc.more;strokeColor=#a0a0a0;" parent="azvi52GzjCQ6X3Fhh1YJ-1" vertex="1">
          <mxGeometry x="416" y="2520" width="7" height="14" as="geometry" />
        </mxCell>
        <mxCell id="lssQ_plv2i8sTGVMPvXq-48" value="&lt;div&gt;&lt;font style=&quot;font-size: 20px&quot;&gt;IMA Process Assignment(s)&lt;/font&gt;&lt;/div&gt;&lt;br style=&quot;font-size: 16px&quot;&gt;&lt;span style=&quot;font-weight: normal&quot;&gt;There are 2 new Systems awaiting IMA Process Review.&lt;/span&gt;" style="text;html=1;strokeColor=none;fillColor=none;align=center;verticalAlign=middle;whiteSpace=wrap;rounded=0;shadow=0;sketch=0;fontSize=10;fontColor=#808080;fontStyle=1" parent="azvi52GzjCQ6X3Fhh1YJ-1" vertex="1">
          <mxGeometry x="586.5" y="2471" width="323" height="94" as="geometry" />
        </mxCell>
        <mxCell id="lssQ_plv2i8sTGVMPvXq-49" value="Metrics Summary" style="text;html=1;strokeColor=none;fillColor=none;align=center;verticalAlign=middle;whiteSpace=wrap;rounded=0;fontStyle=1;fontColor=#999999;fontSize=20;" parent="azvi52GzjCQ6X3Fhh1YJ-1" vertex="1">
          <mxGeometry x="344" y="3089" width="180" height="20" as="geometry" />
        </mxCell>
        <mxCell id="lssQ_plv2i8sTGVMPvXq-50" value="" style="whiteSpace=wrap;html=1;shape=mxgraph.basic.octagon2;align=center;verticalAlign=middle;dx=12;shadow=0;sketch=0;fontSize=20;fontColor=#808080;fillColor=#FF8000;strokeColor=#FF8000;" parent="azvi52GzjCQ6X3Fhh1YJ-1" vertex="1">
          <mxGeometry x="60" y="2315.5" width="56" height="42" as="geometry" />
        </mxCell>
        <mxCell id="lssQ_plv2i8sTGVMPvXq-51" value="Eva" style="text;html=1;strokeColor=none;fillColor=none;align=center;verticalAlign=middle;whiteSpace=wrap;rounded=0;shadow=0;sketch=0;fontSize=20;fontColor=#FFFFFF;fontStyle=1" parent="azvi52GzjCQ6X3Fhh1YJ-1" vertex="1">
          <mxGeometry x="126" y="2329" width="40" height="20" as="geometry" />
        </mxCell>
        <mxCell id="lssQ_plv2i8sTGVMPvXq-52" value="" style="html=1;verticalLabelPosition=bottom;align=center;labelBackgroundColor=#ffffff;verticalAlign=top;strokeWidth=2;shadow=0;dashed=0;shape=mxgraph.ios7.icons.user;sketch=0;fontSize=20;fontColor=#FFFFFF;fillColor=#FFFFFF;" parent="azvi52GzjCQ6X3Fhh1YJ-1" vertex="1">
          <mxGeometry x="879.5" y="2321.5" width="30" height="30" as="geometry" />
        </mxCell>
        <mxCell id="lssQ_plv2i8sTGVMPvXq-53" value="John Doe" style="text;html=1;strokeColor=none;fillColor=none;align=center;verticalAlign=middle;whiteSpace=wrap;rounded=0;shadow=0;sketch=0;fontSize=19;fontColor=#FFFFFF;" parent="azvi52GzjCQ6X3Fhh1YJ-1" vertex="1">
          <mxGeometry x="925.5" y="2329" width="94" height="20" as="geometry" />
        </mxCell>
        <mxCell id="lssQ_plv2i8sTGVMPvXq-54" value="Search for objects across multiple datasets" style="text;verticalAlign=middle;spacing=0;spacingLeft=16;fontSize=10;resizeWidth=1;fontColor=#808080;" parent="azvi52GzjCQ6X3Fhh1YJ-1" vertex="1">
          <mxGeometry x="50" y="2683" width="272" height="42" as="geometry" />
        </mxCell>
        <mxCell id="lssQ_plv2i8sTGVMPvXq-55" value="&amp;lt;Classification Here&amp;gt;" style="rounded=0;whiteSpace=wrap;html=1;shadow=0;sketch=0;fontSize=12;align=center;fillColor=#FFFF33;" parent="azvi52GzjCQ6X3Fhh1YJ-1" vertex="1">
          <mxGeometry x="50" y="2290" width="1171" height="20" as="geometry" />
        </mxCell>
        <mxCell id="gRCU2PeYcK_j9Pb8wwGP-0" value="" style="rounded=0;whiteSpace=wrap;html=1;fillColor=#3333FF;" parent="azvi52GzjCQ6X3Fhh1YJ-1" vertex="1">
          <mxGeometry x="40.5" y="3460" width="1014" height="60" as="geometry" />
        </mxCell>
        <mxCell id="gRCU2PeYcK_j9Pb8wwGP-1" value="" style="rounded=0;whiteSpace=wrap;html=1;align=left;fillColor=#0085FC;" parent="azvi52GzjCQ6X3Fhh1YJ-1" vertex="1">
          <mxGeometry x="334.5" y="3569" width="720" height="181" as="geometry" />
        </mxCell>
        <mxCell id="gRCU2PeYcK_j9Pb8wwGP-3" value="My Assigned Tasks" style="text;html=1;strokeColor=none;fillColor=none;align=center;verticalAlign=middle;whiteSpace=wrap;rounded=0;fontColor=#999999;" parent="azvi52GzjCQ6X3Fhh1YJ-1" vertex="1">
          <mxGeometry x="332.5" y="3533" width="116" height="20" as="geometry" />
        </mxCell>
        <mxCell id="gRCU2PeYcK_j9Pb8wwGP-4" value="My Group&#39;s Assigned Tasks" style="text;html=1;strokeColor=none;fillColor=none;align=center;verticalAlign=middle;whiteSpace=wrap;rounded=0;fontStyle=0;fontColor=#999999;" parent="azvi52GzjCQ6X3Fhh1YJ-1" vertex="1">
          <mxGeometry x="324.5" y="3771" width="180" height="20" as="geometry" />
        </mxCell>
        <mxCell id="gRCU2PeYcK_j9Pb8wwGP-5" value="&lt;font style=&quot;font-size: 14px&quot;&gt;FEEDBACK&lt;/font&gt;" style="rounded=1;whiteSpace=wrap;html=1;fillColor=#FF8000;strokeColor=#FF8000;fontColor=#FFFFFF;" parent="azvi52GzjCQ6X3Fhh1YJ-1" vertex="1">
          <mxGeometry x="923.5" y="3470" width="120" height="40" as="geometry" />
        </mxCell>
        <mxCell id="gRCU2PeYcK_j9Pb8wwGP-6" value="" style="shape=image;html=1;verticalAlign=top;verticalLabelPosition=bottom;labelBackgroundColor=#ffffff;imageAspect=0;aspect=fixed;image=https://cdn3.iconfinder.com/data/icons/social-media-2125/78/bell-128.png;strokeColor=#FF8000;fillColor=#FF8000;fontColor=#FFFFFF;" parent="azvi52GzjCQ6X3Fhh1YJ-1" vertex="1">
          <mxGeometry x="866.5" y="3473" width="37" height="37" as="geometry" />
        </mxCell>
        <mxCell id="gRCU2PeYcK_j9Pb8wwGP-7" value="" style="fillColor=#f5f5f5;strokeColor=#666666;gradientColor=#b3b3b3;" parent="azvi52GzjCQ6X3Fhh1YJ-1" vertex="1">
          <mxGeometry x="337.5" y="4125" width="30" height="100" as="geometry" />
        </mxCell>
        <mxCell id="gRCU2PeYcK_j9Pb8wwGP-8" value="" style="shape=mxgraph.arrows2.arrow;dy=0.4;dx=16;notch=0;direction=north;fillColor=#f5f5f5;strokeColor=#666666;gradientColor=#b3b3b3;" parent="gRCU2PeYcK_j9Pb8wwGP-7" vertex="1">
          <mxGeometry x="3" y="30" width="24" height="70" as="geometry" />
        </mxCell>
        <mxCell id="gRCU2PeYcK_j9Pb8wwGP-9" value="Label" style="text;html=1;align=center;verticalAlign=middle;whiteSpace=wrap;fontSize=10;gradientColor=#b3b3b3;fillColor=#f5f5f5;strokeColor=#666666;" parent="gRCU2PeYcK_j9Pb8wwGP-7" vertex="1">
          <mxGeometry width="30" height="20" as="geometry" />
        </mxCell>
        <mxCell id="gRCU2PeYcK_j9Pb8wwGP-10" value="" style="fillColor=#f5f5f5;strokeColor=#666666;gradientColor=#b3b3b3;" parent="azvi52GzjCQ6X3Fhh1YJ-1" vertex="1">
          <mxGeometry x="372.5" y="4105" width="30" height="120" as="geometry" />
        </mxCell>
        <mxCell id="gRCU2PeYcK_j9Pb8wwGP-11" value="" style="shape=mxgraph.arrows2.arrow;dy=0.4;dx=16;notch=0;direction=south;fillColor=#f5f5f5;strokeColor=#666666;gradientColor=#b3b3b3;" parent="gRCU2PeYcK_j9Pb8wwGP-10" vertex="1">
          <mxGeometry x="3" width="24" height="80" as="geometry" />
        </mxCell>
        <mxCell id="gRCU2PeYcK_j9Pb8wwGP-12" value="Label" style="text;html=1;align=center;verticalAlign=middle;whiteSpace=wrap;fontSize=10;gradientColor=#b3b3b3;fillColor=#f5f5f5;strokeColor=#666666;" parent="gRCU2PeYcK_j9Pb8wwGP-10" vertex="1">
          <mxGeometry width="30" height="20" as="geometry" />
        </mxCell>
        <mxCell id="gRCU2PeYcK_j9Pb8wwGP-13" value="" style="fillColor=#f5f5f5;strokeColor=#666666;gradientColor=#b3b3b3;" parent="azvi52GzjCQ6X3Fhh1YJ-1" vertex="1">
          <mxGeometry x="407.5" y="4095" width="30" height="130" as="geometry" />
        </mxCell>
        <mxCell id="gRCU2PeYcK_j9Pb8wwGP-14" value="" style="shape=mxgraph.arrows2.arrow;dy=0.4;dx=16;notch=0;direction=north;fillColor=#f5f5f5;strokeColor=#666666;gradientColor=#b3b3b3;" parent="gRCU2PeYcK_j9Pb8wwGP-13" vertex="1">
          <mxGeometry x="3" y="80" width="24" height="50" as="geometry" />
        </mxCell>
        <mxCell id="gRCU2PeYcK_j9Pb8wwGP-15" value="Label" style="text;html=1;align=center;verticalAlign=middle;whiteSpace=wrap;fontSize=10;gradientColor=#b3b3b3;fillColor=#f5f5f5;strokeColor=#666666;" parent="gRCU2PeYcK_j9Pb8wwGP-13" vertex="1">
          <mxGeometry width="30" height="20" as="geometry" />
        </mxCell>
        <mxCell id="gRCU2PeYcK_j9Pb8wwGP-16" value="" style="fillColor=#f5f5f5;strokeColor=#666666;gradientColor=#b3b3b3;" parent="azvi52GzjCQ6X3Fhh1YJ-1" vertex="1">
          <mxGeometry x="442.5" y="4145" width="30" height="80" as="geometry" />
        </mxCell>
        <mxCell id="gRCU2PeYcK_j9Pb8wwGP-17" value="" style="shape=mxgraph.arrows2.arrow;dy=0.4;dx=16;notch=0;direction=south;fillColor=#f5f5f5;strokeColor=#666666;gradientColor=#b3b3b3;" parent="gRCU2PeYcK_j9Pb8wwGP-16" vertex="1">
          <mxGeometry x="3" width="24" height="30" as="geometry" />
        </mxCell>
        <mxCell id="gRCU2PeYcK_j9Pb8wwGP-18" value="Label" style="text;html=1;align=center;verticalAlign=middle;whiteSpace=wrap;fontSize=10;gradientColor=#b3b3b3;fillColor=#f5f5f5;strokeColor=#666666;" parent="gRCU2PeYcK_j9Pb8wwGP-16" vertex="1">
          <mxGeometry width="30" height="20" as="geometry" />
        </mxCell>
        <mxCell id="gRCU2PeYcK_j9Pb8wwGP-19" value="" style="fillColor=#f5f5f5;strokeColor=#666666;gradientColor=#b3b3b3;" parent="azvi52GzjCQ6X3Fhh1YJ-1" vertex="1">
          <mxGeometry x="477.5" y="4155" width="30" height="70" as="geometry" />
        </mxCell>
        <mxCell id="gRCU2PeYcK_j9Pb8wwGP-20" value="" style="shape=mxgraph.arrows2.arrow;dy=0.4;dx=16;notch=0;direction=north;fillColor=#f5f5f5;strokeColor=#666666;gradientColor=#b3b3b3;" parent="gRCU2PeYcK_j9Pb8wwGP-19" vertex="1">
          <mxGeometry x="3" y="10" width="24" height="60" as="geometry" />
        </mxCell>
        <mxCell id="gRCU2PeYcK_j9Pb8wwGP-21" value="Label" style="text;html=1;align=center;verticalAlign=middle;whiteSpace=wrap;fontSize=10;gradientColor=#b3b3b3;fillColor=#f5f5f5;strokeColor=#666666;" parent="gRCU2PeYcK_j9Pb8wwGP-19" vertex="1">
          <mxGeometry width="30" height="20" as="geometry" />
        </mxCell>
        <mxCell id="gRCU2PeYcK_j9Pb8wwGP-22" value="" style="html=1;verticalLabelPosition=bottom;align=center;labelBackgroundColor=#ffffff;verticalAlign=top;strokeWidth=2;strokeColor=#666666;shadow=0;dashed=0;shape=mxgraph.ios7.icons.pie_chart;fillColor=#f5f5f5;gradientColor=#b3b3b3;" parent="azvi52GzjCQ6X3Fhh1YJ-1" vertex="1">
          <mxGeometry x="610.5" y="4103" width="140" height="112" as="geometry" />
        </mxCell>
        <mxCell id="gRCU2PeYcK_j9Pb8wwGP-23" value="" style="shape=image;html=1;verticalAlign=top;verticalLabelPosition=bottom;labelBackgroundColor=#ffffff;imageAspect=0;aspect=fixed;image=https://cdn2.iconfinder.com/data/icons/ios-7-icons/50/line_chart-128.png;strokeColor=#FF8000;fillColor=#FF8000;fontColor=#FFFFFF;" parent="azvi52GzjCQ6X3Fhh1YJ-1" vertex="1">
          <mxGeometry x="892.5" y="4087" width="128" height="128" as="geometry" />
        </mxCell>
        <mxCell id="gRCU2PeYcK_j9Pb8wwGP-25" value="&amp;lt;Classification Here&amp;gt;" style="rounded=0;whiteSpace=wrap;html=1;shadow=0;sketch=0;fontSize=12;align=center;fillColor=#FFFF33;" parent="azvi52GzjCQ6X3Fhh1YJ-1" vertex="1">
          <mxGeometry x="40.5" y="3440" width="1013" height="20" as="geometry" />
        </mxCell>
        <mxCell id="EV6xZvpJAwDicd8c8DNS-0" value="" style="shape=rect;strokeColor=#eeeeee;fillColor=#ffffff;shadow=1;whiteSpace=wrap;" vertex="1" parent="azvi52GzjCQ6X3Fhh1YJ-1">
          <mxGeometry x="40.5" y="3520" width="272" height="881" as="geometry" />
        </mxCell>
        <mxCell id="EV6xZvpJAwDicd8c8DNS-1" value="Datasets" style="text;verticalAlign=middle;spacing=0;spacingLeft=16;fontSize=15;resizeWidth=1;fontStyle=1" vertex="1" parent="EV6xZvpJAwDicd8c8DNS-0">
          <mxGeometry width="272" height="42" relative="1" as="geometry" />
        </mxCell>
        <mxCell id="EV6xZvpJAwDicd8c8DNS-2" value="Create and manage datasets and the objects within them." style="text;verticalAlign=middle;spacing=0;spacingLeft=16;fontSize=10;resizeWidth=1;fontColor=#808080;whiteSpace=wrap;" vertex="1" parent="EV6xZvpJAwDicd8c8DNS-0">
          <mxGeometry width="192" height="42" relative="1" as="geometry">
            <mxPoint y="22" as="offset" />
          </mxGeometry>
        </mxCell>
        <mxCell id="EV6xZvpJAwDicd8c8DNS-3" value="Digitizations" style="text;verticalAlign=middle;spacing=0;spacingLeft=16;fontSize=15;resizeWidth=1;fontStyle=1" vertex="1" parent="EV6xZvpJAwDicd8c8DNS-0">
          <mxGeometry width="272" height="42" relative="1" as="geometry">
            <mxPoint y="71" as="offset" />
          </mxGeometry>
        </mxCell>
        <mxCell id="EV6xZvpJAwDicd8c8DNS-4" value="Bulk ingest of standard files in a defined format." style="text;verticalAlign=middle;spacing=0;spacingLeft=16;fontSize=10;resizeWidth=1;fontColor=#808080;" vertex="1" parent="EV6xZvpJAwDicd8c8DNS-0">
          <mxGeometry width="272" height="42" relative="1" as="geometry">
            <mxPoint y="91" as="offset" />
          </mxGeometry>
        </mxCell>
        <mxCell id="EV6xZvpJAwDicd8c8DNS-5" value="Holding Pen" style="text;verticalAlign=middle;spacing=0;spacingLeft=16;fontSize=15;resizeWidth=1;fontStyle=1" vertex="1" parent="EV6xZvpJAwDicd8c8DNS-0">
          <mxGeometry width="272" height="42" relative="1" as="geometry">
            <mxPoint y="128" as="offset" />
          </mxGeometry>
        </mxCell>
        <mxCell id="EV6xZvpJAwDicd8c8DNS-6" value="Secure, short term storage for objects" style="text;verticalAlign=middle;spacing=0;spacingLeft=16;fontSize=10;resizeWidth=1;fontColor=#808080;" vertex="1" parent="EV6xZvpJAwDicd8c8DNS-0">
          <mxGeometry width="272" height="42" relative="1" as="geometry">
            <mxPoint y="146" as="offset" />
          </mxGeometry>
        </mxCell>
        <mxCell id="EV6xZvpJAwDicd8c8DNS-7" value="IMA Process" style="text;verticalAlign=middle;spacing=0;spacingLeft=16;fontSize=15;resizeWidth=1;fontStyle=1" vertex="1" parent="EV6xZvpJAwDicd8c8DNS-0">
          <mxGeometry width="272" height="42" relative="1" as="geometry">
            <mxPoint y="182" as="offset" />
          </mxGeometry>
        </mxCell>
        <mxCell id="EV6xZvpJAwDicd8c8DNS-8" value="Guide systems through the IMA Processs" style="text;verticalAlign=middle;spacing=0;spacingLeft=16;fontSize=10;resizeWidth=1;fontColor=#808080;" vertex="1" parent="EV6xZvpJAwDicd8c8DNS-0">
          <mxGeometry width="272" height="42" relative="1" as="geometry">
            <mxPoint y="199" as="offset" />
          </mxGeometry>
        </mxCell>
        <mxCell id="EV6xZvpJAwDicd8c8DNS-9" value="Metrics" style="text;verticalAlign=middle;spacing=0;spacingLeft=16;fontSize=15;resizeWidth=1;fillColor=none;fontStyle=1" vertex="1" parent="EV6xZvpJAwDicd8c8DNS-0">
          <mxGeometry width="272" height="42" relative="1" as="geometry">
            <mxPoint y="234" as="offset" />
          </mxGeometry>
        </mxCell>
        <mxCell id="EV6xZvpJAwDicd8c8DNS-10" value="View various records management metrics" style="text;verticalAlign=middle;spacing=0;spacingLeft=16;fontSize=10;resizeWidth=1;fontColor=#808080;" vertex="1" parent="EV6xZvpJAwDicd8c8DNS-0">
          <mxGeometry width="272" height="42" relative="1" as="geometry">
            <mxPoint y="252" as="offset" />
          </mxGeometry>
        </mxCell>
        <mxCell id="EV6xZvpJAwDicd8c8DNS-11" value="" style="shape=rect;strokeColor=none;fillColor=#dddddd;" vertex="1" parent="EV6xZvpJAwDicd8c8DNS-0">
          <mxGeometry x="1" width="4" height="190" relative="1" as="geometry">
            <mxPoint x="-4" y="125" as="offset" />
          </mxGeometry>
        </mxCell>
        <mxCell id="EV6xZvpJAwDicd8c8DNS-12" value="Search" style="text;verticalAlign=middle;spacing=0;spacingLeft=16;fontSize=15;resizeWidth=1;fontStyle=1" vertex="1" parent="EV6xZvpJAwDicd8c8DNS-0">
          <mxGeometry y="261.00132062799173" width="272" height="78.22832980972515" as="geometry" />
        </mxCell>
        <mxCell id="EV6xZvpJAwDicd8c8DNS-17" value="Status" style="rounded=0;whiteSpace=wrap;html=1;strokeColor=none;fillColor=#0085FC;fontColor=#FFFFFF;" vertex="1" parent="azvi52GzjCQ6X3Fhh1YJ-1">
          <mxGeometry x="960" y="3569" width="94" height="31" as="geometry" />
        </mxCell>
        <mxCell id="EV6xZvpJAwDicd8c8DNS-19" value="Task No." style="rounded=0;whiteSpace=wrap;html=1;strokeColor=none;fillColor=#0085FC;fontColor=#FFFFFF;" vertex="1" parent="azvi52GzjCQ6X3Fhh1YJ-1">
          <mxGeometry x="335" y="3569" width="91" height="31" as="geometry" />
        </mxCell>
        <mxCell id="EV6xZvpJAwDicd8c8DNS-20" value="Service" style="rounded=0;whiteSpace=wrap;html=1;strokeColor=none;fillColor=#0085FC;fontColor=#FFFFFF;" vertex="1" parent="azvi52GzjCQ6X3Fhh1YJ-1">
          <mxGeometry x="426" y="3569" width="126" height="31" as="geometry" />
        </mxCell>
        <mxCell id="EV6xZvpJAwDicd8c8DNS-21" value="Action" style="rounded=0;whiteSpace=wrap;html=1;strokeColor=none;fillColor=#0085FC;fontColor=#FFFFFF;" vertex="1" parent="azvi52GzjCQ6X3Fhh1YJ-1">
          <mxGeometry x="552" y="3569" width="218" height="31" as="geometry" />
        </mxCell>
        <mxCell id="EV6xZvpJAwDicd8c8DNS-22" value="Assignee" style="rounded=0;whiteSpace=wrap;html=1;strokeColor=none;fillColor=#0085FC;fontColor=#FFFFFF;" vertex="1" parent="azvi52GzjCQ6X3Fhh1YJ-1">
          <mxGeometry x="770" y="3569" width="94" height="31" as="geometry" />
        </mxCell>
        <mxCell id="EV6xZvpJAwDicd8c8DNS-23" value="Date Due" style="rounded=0;whiteSpace=wrap;html=1;strokeColor=none;fillColor=#0085FC;fontColor=#FFFFFF;" vertex="1" parent="azvi52GzjCQ6X3Fhh1YJ-1">
          <mxGeometry x="860.5" y="3569" width="99.5" height="31" as="geometry" />
        </mxCell>
        <mxCell id="EV6xZvpJAwDicd8c8DNS-26" value="Rules 57&lt;span style=&quot;font-family: monospace; font-size: 0px;&quot;&gt;%3CmxGraphModel%3E%3Croot%3E%3CmxCell%20id%3D%220%22%2F%3E%3CmxCell%20id%3D%221%22%20parent%3D%220%22%2F%3E%3CmxCell%20id%3D%222%22%20value%3D%22IMA%203359%22%20style%3D%22rounded%3D0%3BwhiteSpace%3Dwrap%3Bhtml%3D1%3BstrokeColor%3Dnone%3BfillColor%3D%230085FC%3BfontColor%3D%23FFFFFF%3B%22%20vertex%3D%221%22%20parent%3D%221%22%3E%3CmxGeometry%20x%3D%22335%22%20y%3D%223600%22%20width%3D%2291%22%20height%3D%2231%22%20as%3D%22geometry%22%2F%3E%3C%2FmxCell%3E%3C%2Froot%3E%3C%2FmxGraphModel%3E&lt;/span&gt;" style="rounded=0;whiteSpace=wrap;html=1;align=left;fillColor=#FFFFFF;strokeColor=none;" vertex="1" parent="azvi52GzjCQ6X3Fhh1YJ-1">
          <mxGeometry x="335" y="3662" width="91" height="31" as="geometry" />
        </mxCell>
        <mxCell id="EV6xZvpJAwDicd8c8DNS-27" value="Rules 998" style="rounded=0;whiteSpace=wrap;html=1;align=left;strokeColor=none;fillColor=#DFDFDF;" vertex="1" parent="azvi52GzjCQ6X3Fhh1YJ-1">
          <mxGeometry x="335" y="3693" width="91" height="31" as="geometry" />
        </mxCell>
        <mxCell id="EV6xZvpJAwDicd8c8DNS-28" value="IMA 3359" style="rounded=0;whiteSpace=wrap;html=1;align=left;fillColor=#FFFFFF;strokeColor=none;" vertex="1" parent="azvi52GzjCQ6X3Fhh1YJ-1">
          <mxGeometry x="335" y="3600" width="91" height="31" as="geometry" />
        </mxCell>
        <mxCell id="EV6xZvpJAwDicd8c8DNS-29" value="RCS 5589" style="rounded=0;whiteSpace=wrap;html=1;align=left;strokeColor=none;fillColor=#DFDFDF;" vertex="1" parent="azvi52GzjCQ6X3Fhh1YJ-1">
          <mxGeometry x="335" y="3631" width="91" height="31" as="geometry" />
        </mxCell>
        <mxCell id="EV6xZvpJAwDicd8c8DNS-30" value="IMA Process" style="rounded=0;whiteSpace=wrap;html=1;strokeColor=none;align=left;" vertex="1" parent="azvi52GzjCQ6X3Fhh1YJ-1">
          <mxGeometry x="426" y="3600" width="126" height="31" as="geometry" />
        </mxCell>
        <mxCell id="EV6xZvpJAwDicd8c8DNS-32" value="RCS" style="rounded=0;whiteSpace=wrap;html=1;strokeColor=none;align=left;fillColor=#DFDFDF;" vertex="1" parent="azvi52GzjCQ6X3Fhh1YJ-1">
          <mxGeometry x="426" y="3631" width="126" height="31" as="geometry" />
        </mxCell>
        <mxCell id="EV6xZvpJAwDicd8c8DNS-33" value="Rules Engine" style="rounded=0;whiteSpace=wrap;html=1;strokeColor=none;align=left;" vertex="1" parent="azvi52GzjCQ6X3Fhh1YJ-1">
          <mxGeometry x="426" y="3662" width="126" height="31" as="geometry" />
        </mxCell>
        <mxCell id="EV6xZvpJAwDicd8c8DNS-34" value="Rule Engine" style="rounded=0;whiteSpace=wrap;html=1;strokeColor=none;align=left;fillColor=#DFDFDF;" vertex="1" parent="azvi52GzjCQ6X3Fhh1YJ-1">
          <mxGeometry x="426" y="3693" width="126" height="31" as="geometry" />
        </mxCell>
        <mxCell id="EV6xZvpJAwDicd8c8DNS-35" value="New System for Review" style="rounded=0;whiteSpace=wrap;html=1;strokeColor=none;align=left;" vertex="1" parent="azvi52GzjCQ6X3Fhh1YJ-1">
          <mxGeometry x="552" y="3600" width="218" height="31" as="geometry" />
        </mxCell>
        <mxCell id="EV6xZvpJAwDicd8c8DNS-36" value="RCS Updates for Review" style="rounded=0;whiteSpace=wrap;html=1;strokeColor=none;align=left;fillColor=#DFDFDF;" vertex="1" parent="azvi52GzjCQ6X3Fhh1YJ-1">
          <mxGeometry x="552" y="3631" width="218" height="31" as="geometry" />
        </mxCell>
        <mxCell id="EV6xZvpJAwDicd8c8DNS-37" value="Rule Certification Due" style="rounded=0;whiteSpace=wrap;html=1;strokeColor=none;align=left;" vertex="1" parent="azvi52GzjCQ6X3Fhh1YJ-1">
          <mxGeometry x="552" y="3662" width="218" height="31" as="geometry" />
        </mxCell>
        <mxCell id="EV6xZvpJAwDicd8c8DNS-38" value="Rule Certification Due" style="rounded=0;whiteSpace=wrap;html=1;strokeColor=none;align=left;fillColor=#DFDFDF;" vertex="1" parent="azvi52GzjCQ6X3Fhh1YJ-1">
          <mxGeometry x="552" y="3693" width="218" height="31" as="geometry" />
        </mxCell>
        <mxCell id="EV6xZvpJAwDicd8c8DNS-39" value="Cindy-Lou Who" style="rounded=0;whiteSpace=wrap;html=1;strokeColor=none;align=left;" vertex="1" parent="azvi52GzjCQ6X3Fhh1YJ-1">
          <mxGeometry x="770" y="3600" width="94" height="31" as="geometry" />
        </mxCell>
        <mxCell id="EV6xZvpJAwDicd8c8DNS-40" value="Cindy-Lou Who" style="rounded=0;whiteSpace=wrap;html=1;strokeColor=none;fillColor=#DFDFDF;align=left;" vertex="1" parent="azvi52GzjCQ6X3Fhh1YJ-1">
          <mxGeometry x="770" y="3631" width="94" height="31" as="geometry" />
        </mxCell>
        <mxCell id="EV6xZvpJAwDicd8c8DNS-41" value="Cindy-Lou Who" style="rounded=0;whiteSpace=wrap;html=1;strokeColor=none;align=left;" vertex="1" parent="azvi52GzjCQ6X3Fhh1YJ-1">
          <mxGeometry x="770" y="3662" width="94" height="31" as="geometry" />
        </mxCell>
        <mxCell id="EV6xZvpJAwDicd8c8DNS-42" value="Cindy-Lou Who" style="rounded=0;whiteSpace=wrap;html=1;strokeColor=none;fillColor=#DFDFDF;align=left;" vertex="1" parent="azvi52GzjCQ6X3Fhh1YJ-1">
          <mxGeometry x="770" y="3693" width="94" height="31" as="geometry" />
        </mxCell>
        <mxCell id="EV6xZvpJAwDicd8c8DNS-43" value="January 20, 2021" style="rounded=0;whiteSpace=wrap;html=1;strokeColor=none;align=left;" vertex="1" parent="azvi52GzjCQ6X3Fhh1YJ-1">
          <mxGeometry x="861.5" y="3600" width="99.5" height="31" as="geometry" />
        </mxCell>
        <mxCell id="EV6xZvpJAwDicd8c8DNS-44" value="January 20, 2021" style="rounded=0;whiteSpace=wrap;html=1;strokeColor=none;align=left;fillColor=#DFDFDF;" vertex="1" parent="azvi52GzjCQ6X3Fhh1YJ-1">
          <mxGeometry x="861.5" y="3631" width="99.5" height="31" as="geometry" />
        </mxCell>
        <mxCell id="EV6xZvpJAwDicd8c8DNS-45" value="January 20, 2021" style="rounded=0;whiteSpace=wrap;html=1;strokeColor=none;align=left;" vertex="1" parent="azvi52GzjCQ6X3Fhh1YJ-1">
          <mxGeometry x="861.5" y="3662" width="99.5" height="31" as="geometry" />
        </mxCell>
        <mxCell id="EV6xZvpJAwDicd8c8DNS-46" value="January 20, 2021" style="rounded=0;whiteSpace=wrap;html=1;strokeColor=none;align=left;fillColor=#DFDFDF;" vertex="1" parent="azvi52GzjCQ6X3Fhh1YJ-1">
          <mxGeometry x="861.5" y="3693" width="99.5" height="31" as="geometry" />
        </mxCell>
        <mxCell id="EV6xZvpJAwDicd8c8DNS-48" value="New" style="rounded=0;whiteSpace=wrap;html=1;strokeColor=none;align=left;" vertex="1" parent="azvi52GzjCQ6X3Fhh1YJ-1">
          <mxGeometry x="960" y="3600" width="94" height="31" as="geometry" />
        </mxCell>
        <mxCell id="EV6xZvpJAwDicd8c8DNS-49" value="In Progress" style="rounded=0;whiteSpace=wrap;html=1;strokeColor=none;align=left;fillColor=#DFDFDF;" vertex="1" parent="azvi52GzjCQ6X3Fhh1YJ-1">
          <mxGeometry x="959.5" y="3631" width="94" height="31" as="geometry" />
        </mxCell>
        <mxCell id="EV6xZvpJAwDicd8c8DNS-50" value="New" style="rounded=0;whiteSpace=wrap;html=1;strokeColor=none;align=left;" vertex="1" parent="azvi52GzjCQ6X3Fhh1YJ-1">
          <mxGeometry x="959.5" y="3662" width="94" height="31" as="geometry" />
        </mxCell>
        <mxCell id="EV6xZvpJAwDicd8c8DNS-51" value="Pending Review" style="rounded=0;whiteSpace=wrap;html=1;strokeColor=none;align=left;fillColor=#DFDFDF;" vertex="1" parent="azvi52GzjCQ6X3Fhh1YJ-1">
          <mxGeometry x="960" y="3693" width="94" height="31" as="geometry" />
        </mxCell>
        <mxCell id="EV6xZvpJAwDicd8c8DNS-53" value="" style="html=1;shadow=0;dashed=0;shape=mxgraph.bootstrap.rrect;rSize=5;strokeColor=#DEE2E6;html=1;whiteSpace=wrap;fillColor=#ffffff;fontColor=#0085FC;fontSize=14;" vertex="1" parent="azvi52GzjCQ6X3Fhh1YJ-1">
          <mxGeometry x="860" y="3727" width="187" height="20" as="geometry" />
        </mxCell>
        <mxCell id="EV6xZvpJAwDicd8c8DNS-54" value="Previous" style="strokeColor=inherit;fillColor=inherit;gradientColor=inherit;html=1;shadow=0;dashed=0;shape=mxgraph.bootstrap.leftButton;rSize=5;perimeter=none;whiteSpace=wrap;resizeHeight=1;fontColor=#6C767D;fontSize=14;" vertex="1" parent="EV6xZvpJAwDicd8c8DNS-53">
          <mxGeometry width="70" height="20" relative="1" as="geometry" />
        </mxCell>
        <mxCell id="EV6xZvpJAwDicd8c8DNS-55" value="1" style="strokeColor=inherit;fillColor=inherit;gradientColor=inherit;fontColor=inherit;html=1;shadow=0;dashed=0;perimeter=none;whiteSpace=wrap;resizeHeight=1;fontSize=14;" vertex="1" parent="EV6xZvpJAwDicd8c8DNS-53">
          <mxGeometry width="30" height="20" relative="1" as="geometry">
            <mxPoint x="70" as="offset" />
          </mxGeometry>
        </mxCell>
        <mxCell id="EV6xZvpJAwDicd8c8DNS-56" value="2" style="html=1;shadow=0;dashed=0;perimeter=none;whiteSpace=wrap;resizeHeight=1;fillColor=#0085FC;strokeColor=none;fontColor=#ffffff;fontSize=14;" vertex="1" parent="EV6xZvpJAwDicd8c8DNS-53">
          <mxGeometry width="30" height="20" relative="1" as="geometry">
            <mxPoint x="100" as="offset" />
          </mxGeometry>
        </mxCell>
        <mxCell id="EV6xZvpJAwDicd8c8DNS-57" value="3" style="strokeColor=inherit;fillColor=inherit;gradientColor=inherit;fontColor=inherit;html=1;shadow=0;dashed=0;perimeter=none;whiteSpace=wrap;resizeHeight=1;fontSize=14;" vertex="1" parent="EV6xZvpJAwDicd8c8DNS-53">
          <mxGeometry width="30" height="20" relative="1" as="geometry">
            <mxPoint x="130" as="offset" />
          </mxGeometry>
        </mxCell>
        <mxCell id="EV6xZvpJAwDicd8c8DNS-58" value="Next" style="strokeColor=inherit;fillColor=inherit;gradientColor=inherit;fontColor=inherit;html=1;shadow=0;dashed=0;shape=mxgraph.bootstrap.rightButton;rSize=5;perimeter=none;whiteSpace=wrap;resizeHeight=1;fontSize=14;" vertex="1" parent="EV6xZvpJAwDicd8c8DNS-53">
          <mxGeometry x="1" width="60" height="20" relative="1" as="geometry">
            <mxPoint x="-60" as="offset" />
          </mxGeometry>
        </mxCell>
        <mxCell id="EV6xZvpJAwDicd8c8DNS-59" value="" style="rounded=0;whiteSpace=wrap;html=1;align=left;fillColor=#0085FC;" vertex="1" parent="azvi52GzjCQ6X3Fhh1YJ-1">
          <mxGeometry x="335" y="3800" width="720" height="181" as="geometry" />
        </mxCell>
        <mxCell id="EV6xZvpJAwDicd8c8DNS-60" value="Status" style="rounded=0;whiteSpace=wrap;html=1;strokeColor=none;fillColor=#0085FC;fontColor=#FFFFFF;" vertex="1" parent="azvi52GzjCQ6X3Fhh1YJ-1">
          <mxGeometry x="960.5" y="3800" width="94" height="31" as="geometry" />
        </mxCell>
        <mxCell id="EV6xZvpJAwDicd8c8DNS-61" value="Task No." style="rounded=0;whiteSpace=wrap;html=1;strokeColor=none;fillColor=#0085FC;fontColor=#FFFFFF;" vertex="1" parent="azvi52GzjCQ6X3Fhh1YJ-1">
          <mxGeometry x="335.5" y="3800" width="91" height="31" as="geometry" />
        </mxCell>
        <mxCell id="EV6xZvpJAwDicd8c8DNS-62" value="Service" style="rounded=0;whiteSpace=wrap;html=1;strokeColor=none;fillColor=#0085FC;fontColor=#FFFFFF;" vertex="1" parent="azvi52GzjCQ6X3Fhh1YJ-1">
          <mxGeometry x="426.5" y="3800" width="126" height="31" as="geometry" />
        </mxCell>
        <mxCell id="EV6xZvpJAwDicd8c8DNS-63" value="Action" style="rounded=0;whiteSpace=wrap;html=1;strokeColor=none;fillColor=#0085FC;fontColor=#FFFFFF;" vertex="1" parent="azvi52GzjCQ6X3Fhh1YJ-1">
          <mxGeometry x="552.5" y="3800" width="218" height="31" as="geometry" />
        </mxCell>
        <mxCell id="EV6xZvpJAwDicd8c8DNS-64" value="Assignee" style="rounded=0;whiteSpace=wrap;html=1;strokeColor=none;fillColor=#0085FC;fontColor=#FFFFFF;" vertex="1" parent="azvi52GzjCQ6X3Fhh1YJ-1">
          <mxGeometry x="770.5" y="3800" width="94" height="31" as="geometry" />
        </mxCell>
        <mxCell id="EV6xZvpJAwDicd8c8DNS-65" value="Date Due" style="rounded=0;whiteSpace=wrap;html=1;strokeColor=none;fillColor=#0085FC;fontColor=#FFFFFF;" vertex="1" parent="azvi52GzjCQ6X3Fhh1YJ-1">
          <mxGeometry x="861" y="3800" width="99.5" height="31" as="geometry" />
        </mxCell>
        <mxCell id="EV6xZvpJAwDicd8c8DNS-66" value="Rules 57&lt;span style=&quot;font-family: monospace; font-size: 0px;&quot;&gt;%3CmxGraphModel%3E%3Croot%3E%3CmxCell%20id%3D%220%22%2F%3E%3CmxCell%20id%3D%221%22%20parent%3D%220%22%2F%3E%3CmxCell%20id%3D%222%22%20value%3D%22IMA%203359%22%20style%3D%22rounded%3D0%3BwhiteSpace%3Dwrap%3Bhtml%3D1%3BstrokeColor%3Dnone%3BfillColor%3D%230085FC%3BfontColor%3D%23FFFFFF%3B%22%20vertex%3D%221%22%20parent%3D%221%22%3E%3CmxGeometry%20x%3D%22335%22%20y%3D%223600%22%20width%3D%2291%22%20height%3D%2231%22%20as%3D%22geometry%22%2F%3E%3C%2FmxCell%3E%3C%2Froot%3E%3C%2FmxGraphModel%3E&lt;/span&gt;" style="rounded=0;whiteSpace=wrap;html=1;align=left;fillColor=#FFFFFF;strokeColor=none;" vertex="1" parent="azvi52GzjCQ6X3Fhh1YJ-1">
          <mxGeometry x="335.5" y="3893" width="91" height="31" as="geometry" />
        </mxCell>
        <mxCell id="EV6xZvpJAwDicd8c8DNS-67" value="IMA 3360" style="rounded=0;whiteSpace=wrap;html=1;align=left;strokeColor=none;fillColor=#DFDFDF;" vertex="1" parent="azvi52GzjCQ6X3Fhh1YJ-1">
          <mxGeometry x="335.5" y="3924" width="91" height="31" as="geometry" />
        </mxCell>
        <mxCell id="EV6xZvpJAwDicd8c8DNS-68" value="RCS 1063" style="rounded=0;whiteSpace=wrap;html=1;align=left;fillColor=#FFFFFF;strokeColor=none;" vertex="1" parent="azvi52GzjCQ6X3Fhh1YJ-1">
          <mxGeometry x="335.5" y="3831" width="91" height="31" as="geometry" />
        </mxCell>
        <mxCell id="EV6xZvpJAwDicd8c8DNS-69" value="RCS 1064" style="rounded=0;whiteSpace=wrap;html=1;align=left;strokeColor=none;fillColor=#DFDFDF;" vertex="1" parent="azvi52GzjCQ6X3Fhh1YJ-1">
          <mxGeometry x="335.5" y="3862" width="91" height="31" as="geometry" />
        </mxCell>
        <mxCell id="EV6xZvpJAwDicd8c8DNS-70" value="RCS" style="rounded=0;whiteSpace=wrap;html=1;strokeColor=none;align=left;" vertex="1" parent="azvi52GzjCQ6X3Fhh1YJ-1">
          <mxGeometry x="426.5" y="3831" width="126" height="31" as="geometry" />
        </mxCell>
        <mxCell id="EV6xZvpJAwDicd8c8DNS-71" value="RCS" style="rounded=0;whiteSpace=wrap;html=1;strokeColor=none;align=left;fillColor=#DFDFDF;" vertex="1" parent="azvi52GzjCQ6X3Fhh1YJ-1">
          <mxGeometry x="426.5" y="3862" width="126" height="31" as="geometry" />
        </mxCell>
        <mxCell id="EV6xZvpJAwDicd8c8DNS-72" value="Rules Engine" style="rounded=0;whiteSpace=wrap;html=1;strokeColor=none;align=left;" vertex="1" parent="azvi52GzjCQ6X3Fhh1YJ-1">
          <mxGeometry x="426.5" y="3893" width="126" height="31" as="geometry" />
        </mxCell>
        <mxCell id="EV6xZvpJAwDicd8c8DNS-73" value="IMA Process" style="rounded=0;whiteSpace=wrap;html=1;strokeColor=none;align=left;fillColor=#DFDFDF;" vertex="1" parent="azvi52GzjCQ6X3Fhh1YJ-1">
          <mxGeometry x="426.5" y="3924" width="126" height="31" as="geometry" />
        </mxCell>
        <mxCell id="EV6xZvpJAwDicd8c8DNS-74" value="RCS Updates for Review" style="rounded=0;whiteSpace=wrap;html=1;strokeColor=none;align=left;" vertex="1" parent="azvi52GzjCQ6X3Fhh1YJ-1">
          <mxGeometry x="552.5" y="3831" width="218" height="31" as="geometry" />
        </mxCell>
        <mxCell id="EV6xZvpJAwDicd8c8DNS-75" value="RCS Updates for Review" style="rounded=0;whiteSpace=wrap;html=1;strokeColor=none;align=left;fillColor=#DFDFDF;" vertex="1" parent="azvi52GzjCQ6X3Fhh1YJ-1">
          <mxGeometry x="552.5" y="3862" width="218" height="31" as="geometry" />
        </mxCell>
        <mxCell id="EV6xZvpJAwDicd8c8DNS-76" value="Rule Certification Due" style="rounded=0;whiteSpace=wrap;html=1;strokeColor=none;align=left;" vertex="1" parent="azvi52GzjCQ6X3Fhh1YJ-1">
          <mxGeometry x="552.5" y="3893" width="218" height="31" as="geometry" />
        </mxCell>
        <mxCell id="EV6xZvpJAwDicd8c8DNS-77" value="New System for Review" style="rounded=0;whiteSpace=wrap;html=1;strokeColor=none;align=left;fillColor=#DFDFDF;" vertex="1" parent="azvi52GzjCQ6X3Fhh1YJ-1">
          <mxGeometry x="552.5" y="3924" width="218" height="31" as="geometry" />
        </mxCell>
        <mxCell id="EV6xZvpJAwDicd8c8DNS-78" value="Bob Ross" style="rounded=0;whiteSpace=wrap;html=1;strokeColor=none;align=left;" vertex="1" parent="azvi52GzjCQ6X3Fhh1YJ-1">
          <mxGeometry x="770.5" y="3831" width="94" height="31" as="geometry" />
        </mxCell>
        <mxCell id="EV6xZvpJAwDicd8c8DNS-79" value="Sponge Bob" style="rounded=0;whiteSpace=wrap;html=1;strokeColor=none;fillColor=#DFDFDF;align=left;" vertex="1" parent="azvi52GzjCQ6X3Fhh1YJ-1">
          <mxGeometry x="770.5" y="3862" width="94" height="31" as="geometry" />
        </mxCell>
        <mxCell id="EV6xZvpJAwDicd8c8DNS-80" value="Cindy-Lou Who" style="rounded=0;whiteSpace=wrap;html=1;strokeColor=none;align=left;" vertex="1" parent="azvi52GzjCQ6X3Fhh1YJ-1">
          <mxGeometry x="770.5" y="3893" width="94" height="31" as="geometry" />
        </mxCell>
        <mxCell id="EV6xZvpJAwDicd8c8DNS-81" value="Big Bird" style="rounded=0;whiteSpace=wrap;html=1;strokeColor=none;fillColor=#DFDFDF;align=left;" vertex="1" parent="azvi52GzjCQ6X3Fhh1YJ-1">
          <mxGeometry x="770.5" y="3924" width="94" height="31" as="geometry" />
        </mxCell>
        <mxCell id="EV6xZvpJAwDicd8c8DNS-82" value="January 20, 2021" style="rounded=0;whiteSpace=wrap;html=1;strokeColor=none;align=left;" vertex="1" parent="azvi52GzjCQ6X3Fhh1YJ-1">
          <mxGeometry x="862" y="3831" width="99.5" height="31" as="geometry" />
        </mxCell>
        <mxCell id="EV6xZvpJAwDicd8c8DNS-83" value="January 20, 2021" style="rounded=0;whiteSpace=wrap;html=1;strokeColor=none;align=left;fillColor=#DFDFDF;" vertex="1" parent="azvi52GzjCQ6X3Fhh1YJ-1">
          <mxGeometry x="862" y="3862" width="99.5" height="31" as="geometry" />
        </mxCell>
        <mxCell id="EV6xZvpJAwDicd8c8DNS-84" value="January 20, 2021" style="rounded=0;whiteSpace=wrap;html=1;strokeColor=none;align=left;" vertex="1" parent="azvi52GzjCQ6X3Fhh1YJ-1">
          <mxGeometry x="862" y="3893" width="99.5" height="31" as="geometry" />
        </mxCell>
        <mxCell id="EV6xZvpJAwDicd8c8DNS-85" value="January 20, 2021" style="rounded=0;whiteSpace=wrap;html=1;strokeColor=none;align=left;fillColor=#DFDFDF;" vertex="1" parent="azvi52GzjCQ6X3Fhh1YJ-1">
          <mxGeometry x="862" y="3924" width="99.5" height="31" as="geometry" />
        </mxCell>
        <mxCell id="EV6xZvpJAwDicd8c8DNS-86" value="New" style="rounded=0;whiteSpace=wrap;html=1;strokeColor=none;align=left;" vertex="1" parent="azvi52GzjCQ6X3Fhh1YJ-1">
          <mxGeometry x="960.5" y="3831" width="94" height="31" as="geometry" />
        </mxCell>
        <mxCell id="EV6xZvpJAwDicd8c8DNS-87" value="In Progress" style="rounded=0;whiteSpace=wrap;html=1;strokeColor=none;align=left;fillColor=#DFDFDF;" vertex="1" parent="azvi52GzjCQ6X3Fhh1YJ-1">
          <mxGeometry x="960" y="3862" width="94" height="31" as="geometry" />
        </mxCell>
        <mxCell id="EV6xZvpJAwDicd8c8DNS-88" value="New" style="rounded=0;whiteSpace=wrap;html=1;strokeColor=none;align=left;" vertex="1" parent="azvi52GzjCQ6X3Fhh1YJ-1">
          <mxGeometry x="960" y="3893" width="94" height="31" as="geometry" />
        </mxCell>
        <mxCell id="EV6xZvpJAwDicd8c8DNS-89" value="Pending Review" style="rounded=0;whiteSpace=wrap;html=1;strokeColor=none;align=left;fillColor=#DFDFDF;" vertex="1" parent="azvi52GzjCQ6X3Fhh1YJ-1">
          <mxGeometry x="960.5" y="3924" width="94" height="31" as="geometry" />
        </mxCell>
        <mxCell id="EV6xZvpJAwDicd8c8DNS-90" value="" style="html=1;shadow=0;dashed=0;shape=mxgraph.bootstrap.rrect;rSize=5;strokeColor=#DEE2E6;html=1;whiteSpace=wrap;fillColor=#ffffff;fontColor=#0085FC;fontSize=14;" vertex="1" parent="azvi52GzjCQ6X3Fhh1YJ-1">
          <mxGeometry x="860.5" y="3958" width="187" height="20" as="geometry" />
        </mxCell>
        <mxCell id="EV6xZvpJAwDicd8c8DNS-91" value="Previous" style="strokeColor=inherit;fillColor=inherit;gradientColor=inherit;html=1;shadow=0;dashed=0;shape=mxgraph.bootstrap.leftButton;rSize=5;perimeter=none;whiteSpace=wrap;resizeHeight=1;fontColor=#6C767D;fontSize=14;" vertex="1" parent="EV6xZvpJAwDicd8c8DNS-90">
          <mxGeometry width="70" height="20" relative="1" as="geometry" />
        </mxCell>
        <mxCell id="EV6xZvpJAwDicd8c8DNS-92" value="1" style="strokeColor=inherit;fillColor=inherit;gradientColor=inherit;fontColor=inherit;html=1;shadow=0;dashed=0;perimeter=none;whiteSpace=wrap;resizeHeight=1;fontSize=14;" vertex="1" parent="EV6xZvpJAwDicd8c8DNS-90">
          <mxGeometry width="30" height="20" relative="1" as="geometry">
            <mxPoint x="70" as="offset" />
          </mxGeometry>
        </mxCell>
        <mxCell id="EV6xZvpJAwDicd8c8DNS-93" value="2" style="html=1;shadow=0;dashed=0;perimeter=none;whiteSpace=wrap;resizeHeight=1;fillColor=#0085FC;strokeColor=none;fontColor=#ffffff;fontSize=14;" vertex="1" parent="EV6xZvpJAwDicd8c8DNS-90">
          <mxGeometry width="30" height="20" relative="1" as="geometry">
            <mxPoint x="100" as="offset" />
          </mxGeometry>
        </mxCell>
        <mxCell id="EV6xZvpJAwDicd8c8DNS-94" value="3" style="strokeColor=inherit;fillColor=inherit;gradientColor=inherit;fontColor=inherit;html=1;shadow=0;dashed=0;perimeter=none;whiteSpace=wrap;resizeHeight=1;fontSize=14;" vertex="1" parent="EV6xZvpJAwDicd8c8DNS-90">
          <mxGeometry width="30" height="20" relative="1" as="geometry">
            <mxPoint x="130" as="offset" />
          </mxGeometry>
        </mxCell>
        <mxCell id="EV6xZvpJAwDicd8c8DNS-95" value="Next" style="strokeColor=inherit;fillColor=inherit;gradientColor=inherit;fontColor=inherit;html=1;shadow=0;dashed=0;shape=mxgraph.bootstrap.rightButton;rSize=5;perimeter=none;whiteSpace=wrap;resizeHeight=1;fontSize=14;" vertex="1" parent="EV6xZvpJAwDicd8c8DNS-90">
          <mxGeometry x="1" width="60" height="20" relative="1" as="geometry">
            <mxPoint x="-60" as="offset" />
          </mxGeometry>
        </mxCell>
      </root>
    </mxGraphModel>
  </diagram>
</mxfile>
